<?xml version="1.0" standalone="no"?>
<!DOCTYPE svg PUBLIC "-//W3C//DTD SVG 20010904//EN"
 "http://www.w3.org/TR/2001/REC-SVG-20010904/DTD/svg10.dtd">
<svg version="1.0" xmlns="http://www.w3.org/2000/svg"
 width="1920.000000pt" height="1080.000000pt" viewBox="0 0 1920.000000 1080.000000"
 preserveAspectRatio="xMidYMid meet">

<g transform="translate(0.000000,1080.000000) scale(0.100000,-0.100000)"
fill="#000000" stroke="none">
<path d="M14703 10725 c0 -44 2 -61 4 -37 2 23 2 59 0 80 -2 20 -4 1 -4 -43z"/>
<path d="M14980 10720 c-3 -47 -2 -103 1 -125 l6 -40 2 38 1 37 134 0 135 0 4
-32 4 -33 1 33 2 32 272 0 c149 0 269 2 266 5 -3 3 -125 6 -271 6 l-266 -1 -4
83 -3 82 -2 -82 -2 -83 -135 0 -134 0 -3 83 -3 82 -5 -85z"/>
<path d="M15833 10730 c0 -41 2 -58 4 -37 2 20 2 54 0 75 -2 20 -4 3 -4 -38z"/>
<path d="M16112 10723 l-2 -83 -142 0 -143 0 5 -82 5 -83 3 78 3 77 134 0 134
0 4 -117 3 -118 2 118 2 117 135 0 134 0 4 -112 3 -113 2 113 2 112 280 0 279
0 4 -77 3 -78 2 78 2 77 135 0 134 0 4 -112 3 -113 2 113 2 112 135 0 136 0
-2 -151 c0 -83 2 -154 6 -157 4 -4 6 2 5 13 -1 11 -2 82 -1 158 l1 137 420 0
420 0 0 -135 0 -134 -112 -4 -113 -3 113 -2 112 -2 1 -137 c0 -76 1 -172 1
-213 l2 -75 3 73 4 72 134 0 135 0 0 -280 0 -279 -57 -4 -58 -3 57 -2 57 -2 4
-122 3 -123 2 123 2 122 143 0 142 0 -3 285 -3 284 133 4 133 3 -132 2 -133 2
0 135 0 134 133 4 132 3 -132 2 -132 2 -4 133 -3 132 -2 -132 -2 -133 -135 0
-135 0 0 135 0 135 273 2 c149 1 213 4 140 5 l-132 4 -4 82 -3 82 -2 -82 -2
-83 -135 0 -134 0 -4 83 -3 82 -2 -82 -2 -82 -132 -4 -133 -3 133 -2 132 -2 0
-135 0 -135 -135 0 -135 0 -2 223 c-1 122 -4 185 -5 140 l-4 -82 -279 0 -279
0 -4 82 -3 82 -2 -82 -2 -83 -135 0 -134 0 -4 83 -3 82 -2 -82 -2 -83 -135 0
-134 0 -4 83 -3 82 -2 -82 -2 -83 -560 0 -559 0 -4 83 -3 82 -2 -82z m2538
-508 l0 -135 -135 0 -135 0 0 135 0 135 135 0 135 0 0 -135z m280 0 l0 -135
-137 -2 -138 -2 137 -3 138 -4 0 -279 0 -280 -135 0 -135 0 0 274 c0 151 0
278 -1 283 -1 4 -1 70 0 146 l1 137 135 0 135 0 0 -135z"/>
<path d="M18738 9793 c34 -2 88 -2 120 0 31 2 3 3 -63 3 -66 0 -92 -1 -57 -3z"/>
<path d="M16393 10725 c0 -44 2 -61 4 -37 2 23 2 59 0 80 -2 20 -4 1 -4 -43z"/>
<path d="M16963 10730 c0 -41 2 -58 4 -37 2 20 2 54 0 75 -2 20 -4 3 -4 -38z"/>
<path d="M14290 10640 c-83 -4 -36 -6 140 -6 254 0 283 3 80 8 -53 2 -152 1
-220 -2z"/>
<path d="M14703 10605 c0 -22 2 -30 4 -17 2 12 2 30 0 40 -3 9 -5 -1 -4 -23z"/>
<path d="M14778 10633 c34 -2 90 -2 125 0 34 2 6 3 -63 3 -69 0 -97 -1 -62 -3z"/>
<path d="M16673 10550 c0 -41 2 -58 4 -37 2 20 2 54 0 75 -2 20 -4 3 -4 -38z"/>
<path d="M17804 10520 c0 -58 1 -81 3 -52 2 28 2 76 0 105 -2 28 -3 5 -3 -53z"/>
<path d="M17468 10353 c7 -3 16 -2 19 1 4 3 -2 6 -13 5 -11 0 -14 -3 -6 -6z"/>
<path d="M17628 10353 c28 -2 76 -2 105 0 28 2 5 3 -53 3 -58 0 -81 -1 -52 -3z"/>
<path d="M16113 10230 c0 -41 2 -58 4 -37 2 20 2 54 0 75 -2 20 -4 3 -4 -38z"/>
<path d="M17803 10240 c0 -36 2 -50 4 -32 2 17 2 47 0 65 -2 17 -4 3 -4 -33z"/>
<path d="M18028 10073 c12 -2 32 -2 45 0 12 2 2 4 -23 4 -25 0 -35 -2 -22 -4z"/>
<path d="M18163 10073 c37 -2 97 -2 135 0 37 2 6 3 -68 3 -74 0 -105 -1 -67
-3z"/>
<path d="M18603 9793 c9 -2 23 -2 30 0 6 3 -1 5 -18 5 -16 0 -22 -2 -12 -5z"/>
<path d="M19018 9793 c34 -2 90 -2 125 0 34 2 6 3 -63 3 -69 0 -97 -1 -62 -3z"/>
<path d="M14805 9563 c-260 -56 -379 -212 -361 -473 5 -73 39 -238 61 -291 5
-13 -7 -10 -51 12 -69 35 -147 39 -209 10 -49 -22 -68 -43 -97 -106 -32 -70
-32 -241 1 -329 40 -112 106 -192 192 -236 43 -22 59 -20 59 10 0 33 66 206
105 276 l37 66 32 -80 c48 -120 108 -212 179 -279 126 -117 189 -134 530 -139
208 -3 277 -8 357 -24 180 -37 333 -102 404 -173 60 -61 85 -120 100 -249 8
-60 19 -115 24 -120 7 -7 27 22 63 93 28 57 63 118 76 136 36 47 103 77 160
70 92 -10 138 -75 136 -194 0 -40 1 -73 2 -73 2 0 24 33 49 73 92 147 146 318
146 462 0 92 -18 138 -65 170 l-31 20 224 -3 c208 -4 225 -5 244 -24 13 -13
27 -18 41 -14 12 3 25 6 28 6 15 0 29 52 18 71 -8 16 -4 30 22 72 18 29 37 61
43 72 6 11 56 98 111 193 82 143 106 176 132 187 17 7 36 23 43 34 16 30 -7
75 -40 79 -19 2 -35 20 -67 75 l-43 72 0 -38 c0 -21 10 -57 23 -80 41 -76 33
-111 -67 -287 -165 -289 -197 -340 -215 -340 -10 0 -26 -9 -36 -20 -17 -19
-31 -20 -235 -20 l-218 0 16 43 c24 69 20 155 -11 219 -50 102 -202 221 -420
329 l-83 42 143 246 c118 202 148 247 170 253 15 4 31 14 35 22 7 12 53 15
296 15 273 0 288 0 302 -19 8 -11 26 -21 38 -23 17 -3 34 -22 63 -73 l39 -69
0 40 c0 23 -10 57 -23 80 -19 33 -21 45 -13 69 9 25 7 31 -17 52 -34 29 -51
30 -77 4 -20 -20 -32 -21 -310 -21 -279 0 -289 0 -309 20 -27 27 -44 26 -78
-3 -25 -22 -27 -27 -17 -53 10 -27 2 -45 -127 -269 -76 -131 -140 -243 -142
-248 -3 -10 -171 72 -231 114 -53 37 -144 116 -303 264 -258 241 -407 307
-688 305 -77 -1 -149 -3 -160 -6z"/>
<path d="M19018 9503 c34 -2 90 -2 125 0 34 2 6 3 -63 3 -69 0 -97 -1 -62 -3z"/>
<path d="M18930 9475 c0 -12 -4 -13 -19 -5 -29 15 -49 12 -72 -11 -17 -17 -20
-29 -16 -57 5 -30 -2 -48 -47 -126 -30 -50 -94 -160 -142 -245 -59 -101 -95
-155 -107 -157 -28 -4 -57 -34 -57 -59 0 -24 38 -65 61 -65 9 0 56 -72 114
-172 54 -95 118 -205 141 -245 36 -60 42 -77 37 -107 -10 -65 59 -103 102 -56
16 18 31 20 147 20 121 0 128 1 128 20 0 19 -7 20 -128 20 -115 0 -131 2 -146
19 -10 11 -27 21 -38 23 -13 2 -34 27 -58 68 -21 36 -72 126 -115 200 -43 74
-90 155 -104 180 -50 87 -45 104 114 382 95 168 145 247 157 248 9 0 20 5 23
10 16 26 25 4 25 -60 l0 -69 -62 -4 -63 -3 63 -2 62 -2 0 -135 0 -134 -62 -4
-63 -3 63 -2 62 -2 0 -342 c0 -188 3 -339 6 -336 3 4 5 94 5 202 l-1 195 132
4 133 3 -132 2 -133 2 0 135 0 134 133 4 132 3 -132 2 -133 2 0 135 0 134 133
4 132 3 -132 2 -133 2 0 64 c0 35 -3 71 -6 80 -5 14 10 16 130 16 l136 0 0 25
0 24 -132 3 c-131 3 -133 3 -130 26 2 12 1 22 -2 22 -3 0 -6 -7 -6 -15z"/>
<path d="M18693 9223 c9 -2 23 -2 30 0 6 3 -1 5 -18 5 -16 0 -22 -2 -12 -5z"/>
<path d="M18653 9155 c0 -33 2 -45 4 -27 2 18 2 45 0 60 -2 15 -4 0 -4 -33z"/>
<path d="M17650 8760 c-22 -22 -26 -50 -10 -66 8 -8 -7 -41 -47 -110 -32 -54
-96 -165 -143 -247 -70 -122 -90 -150 -120 -165 -26 -13 -36 -24 -38 -45 -4
-32 21 -67 49 -67 12 0 45 -49 107 -157 49 -87 114 -201 145 -253 34 -58 52
-99 46 -105 -27 -28 11 -87 56 -87 16 0 35 8 44 20 15 20 26 20 303 20 268 0
288 -2 304 -19 41 -46 112 -8 100 54 -7 35 -1 46 189 367 17 30 45 79 61 107
21 38 35 53 50 53 26 0 54 30 54 58 0 27 -33 62 -58 62 -11 0 -32 24 -57 68
-242 419 -245 425 -239 460 12 61 -59 98 -101 52 -17 -19 -31 -20 -305 -20
-274 0 -288 1 -305 20 -10 11 -29 20 -42 20 -12 0 -32 -9 -43 -20z m694 -79
c10 -11 27 -21 39 -23 15 -2 53 -60 143 -218 68 -118 132 -230 143 -247 17
-27 19 -37 9 -57 -8 -19 -8 -29 1 -40 10 -12 -14 -61 -131 -265 -100 -175
-148 -250 -160 -251 -10 0 -27 -9 -38 -20 -19 -19 -33 -20 -309 -20 -200 0
-292 3 -297 11 -3 6 -21 17 -38 24 -24 10 -45 38 -95 127 -36 62 -99 169 -140
238 -109 183 -111 163 65 470 103 179 147 246 162 248 11 2 28 12 38 23 16 18
33 19 304 19 271 0 288 -1 304 -19z"/>
<path d="M17803 7985 c0 -22 2 -30 4 -17 2 12 2 30 0 40 -3 9 -5 -1 -4 -23z"/>
<path d="M17858 7813 c7 -3 16 -2 19 1 4 3 -2 6 -13 5 -11 0 -14 -3 -6 -6z"/>
<path d="M18863 8373 c9 -2 25 -2 35 0 9 3 1 5 -18 5 -19 0 -27 -2 -17 -5z"/>
<path d="M18928 8125 c-2 -19 -1 -40 2 -46 4 -5 7 11 8 36 2 53 -4 60 -10 10z"/>
<path d="M19013 8093 c37 -2 96 -2 130 0 34 2 4 3 -68 3 -71 0 -99 -1 -62 -3z"/>
<path d="M19013 7813 c37 -2 96 -2 130 0 34 2 4 3 -68 3 -71 0 -99 -1 -62 -3z"/>
<path d="M14591 7724 c-48 -17 -91 -42 -91 -53 0 -3 4 -12 9 -20 7 -11 21 -8
77 14 81 32 148 31 195 -4 34 -25 59 -22 59 8 0 13 -16 27 -52 45 -61 30 -129
34 -197 10z"/>
<path d="M15341 7718 c-53 -27 -71 -52 -53 -70 10 -10 16 -10 30 0 68 49 149
53 235 11 35 -17 50 -20 58 -12 34 34 -56 83 -161 90 -54 4 -73 0 -109 -19z"/>
<path d="M14979 7663 c-43 -115 -139 -410 -139 -430 0 -39 48 -78 128 -104 53
-17 75 -20 83 -12 18 18 4 28 -76 58 -41 15 -80 35 -85 45 -7 14 8 71 64 232
40 117 71 219 69 226 -8 22 -33 13 -44 -15z"/>
<path d="M16436 7610 c-58 -18 -106 -85 -106 -150 0 -65 45 -129 72 -102 7 7
5 17 -6 33 -9 14 -16 43 -16 71 0 57 29 96 80 107 26 5 35 12 35 26 0 23 -18
27 -59 15z"/>
<path d="M19048 7533 c28 -2 76 -2 105 0 28 2 5 3 -53 3 -58 0 -81 -1 -52 -3z"/>
<path d="M14625 7495 c-47 -46 -17 -125 49 -125 29 0 76 39 76 64 0 28 -22 64
-47 75 -36 16 -51 14 -78 -14z"/>
<path d="M15396 7497 c-33 -33 -34 -76 -3 -105 33 -31 80 -29 106 4 39 50 16
108 -46 120 -26 5 -37 1 -57 -19z"/>
<path d="M18515 7372 l-140 -3 -66 -117 c-37 -64 -115 -200 -173 -302 l-107
-185 22 -40 c22 -39 108 -189 214 -370 28 -49 65 -114 81 -142 l29 -53 135 0
c74 0 233 -1 354 -1 l218 -2 59 103 59 102 0 403 0 403 -56 99 c-31 54 -59
100 -61 102 -4 6 -366 7 -568 3z"/>
<path d="M16182 7236 c-78 -244 -179 -419 -339 -586 -244 -257 -515 -360 -776
-295 l-24 7 18 -54 c10 -29 27 -103 39 -163 23 -113 34 -145 50 -145 5 0 67
46 137 102 370 294 711 629 811 798 l26 44 7 -34 c4 -19 10 -74 14 -122 4 -49
10 -88 15 -88 16 0 80 81 109 138 23 46 131 338 131 355 0 3 -18 7 -41 11 -51
8 -86 26 -127 64 l-31 29 -19 -61z"/>
<path d="M15400 6913 c-52 -69 -89 -86 -177 -79 -68 5 -73 4 -73 -14 0 -34 89
-50 164 -29 78 22 199 169 138 169 -9 0 -33 -21 -52 -47z"/>
<path d="M17800 6699 c0 -5 5 -7 10 -4 6 3 10 8 10 11 0 2 -4 4 -10 4 -5 0
-10 -5 -10 -11z"/>
<path d="M17890 6690 l-55 -6 63 -4 c34 -3 62 -2 62 2 0 12 -14 14 -70 8z"/>
<path d="M17548 6683 c12 -2 32 -2 45 0 12 2 2 4 -23 4 -25 0 -35 -2 -22 -4z"/>
<path d="M17693 6683 c15 -2 39 -2 55 0 15 2 2 4 -28 4 -30 0 -43 -2 -27 -4z"/>
<path d="M18020 6550 c6 -11 13 -20 16 -20 2 0 0 9 -6 20 -6 11 -13 20 -16 20
-2 0 0 -9 6 -20z"/>
<path d="M18056 6487 c3 -10 9 -15 12 -12 3 3 0 11 -7 18 -10 9 -11 8 -5 -6z"/>
<path d="M17802 6453 c-2 -42 -2 -42 -44 -46 l-43 -4 43 -1 42 -2 0 -175 c0
-96 3 -175 8 -175 4 0 6 78 4 174 l-3 175 38 4 38 4 -37 1 c-36 2 -37 3 -41
45 l-4 42 -1 -42z"/>
<path d="M18080 6438 l0 -28 -97 0 c-121 0 -118 -8 5 -11 l92 -3 0 -133 0
-133 -107 -1 c-134 -1 -176 -14 -50 -15 167 -2 157 0 157 -34 0 -16 5 -30 10
-30 6 0 10 14 10 30 l0 30 97 0 c91 0 95 1 81 18 -9 9 -23 32 -33 51 -13 27
-19 31 -27 20 -8 -11 -9 -10 -4 4 4 11 -11 48 -40 98 -44 75 -70 110 -40 51 8
-15 17 -57 19 -92 3 -36 10 -66 16 -68 6 -2 9 -13 6 -25 -5 -20 -2 -22 35 -21
22 1 43 -2 46 -7 3 -5 -30 -9 -75 -9 l-81 0 0 129 c0 86 4 131 11 133 7 2 4
16 -10 38 l-21 35 0 -27z"/>
<path d="M17598 6403 c12 -2 30 -2 40 0 9 3 -1 5 -23 4 -22 0 -30 -2 -17 -4z"/>
<path d="M12615 6358 c-5 -21 6 -48 53 -130 57 -98 60 -106 58 -163 -2 -56 -9
-71 -87 -205 -47 -80 -88 -154 -93 -165 -17 -46 -102 -164 -118 -164 -10 -1
-27 -10 -38 -21 -17 -17 -33 -20 -115 -20 -83 0 -96 -2 -105 -19 -5 -11 -10
-23 -10 -26 0 -4 47 -4 104 -1 86 4 107 2 117 -11 7 -8 23 -19 36 -24 20 -8
23 -15 23 -69 l0 -60 -136 0 -136 0 2 58 c3 81 2 94 -12 90 -7 -3 -11 -28 -9
-76 l2 -72 -35 0 c-19 0 -38 -5 -42 -11 -5 -8 6 -10 35 -7 l41 4 1 -108 c1
-60 2 -118 2 -130 1 -22 -2 -23 -103 -29 l-105 -5 103 -2 102 -2 0 -70 c0 -40
4 -70 10 -70 6 0 10 30 10 69 0 64 2 70 23 74 l22 4 -22 2 c-23 1 -23 3 -23
130 0 125 1 129 23 135 29 8 232 8 240 0 3 -4 -1 -23 -9 -43 -20 -47 -3 -29
32 34 17 32 21 45 11 36 -16 -12 -17 -8 -17 47 0 52 4 65 26 87 21 21 25 32
20 58 -3 18 0 48 7 67 12 34 55 110 67 120 4 3 50 79 102 170 62 106 103 166
114 169 31 5 54 32 54 61 0 29 -27 60 -53 60 -10 0 -38 38 -73 98 -31 53 -65
110 -75 127 l-18 29 -6 -26z m-55 -676 c0 -5 -7 -17 -15 -28 -14 -18 -14 -17
-4 9 12 27 19 34 19 19z m-40 -73 c-7 -11 -14 -18 -17 -15 -3 3 0 12 7 21 18
21 23 19 10 -6z"/>
<path d="M17775 6120 c3 -5 8 -10 11 -10 2 0 4 5 4 10 0 6 -5 10 -11 10 -5 0
-7 -4 -4 -10z"/>
<path d="M18180 6081 c0 -15 -8 -21 -37 -24 -21 -2 -4 -4 38 -5 75 -2 77 -2
77 23 0 22 -5 25 -39 25 -32 0 -39 -4 -39 -19z"/>
<path d="M18266 6083 c-6 -14 -5 -15 5 -6 7 7 10 15 7 18 -3 3 -9 -2 -12 -12z"/>
<path d="M18858 6073 l-78 -4 0 -104 0 -105 40 0 40 0 0 100 0 100 35 0 35 0
0 -105 0 -105 -134 0 -134 0 3 105 c1 58 -2 108 -6 111 -5 3 -9 -44 -9 -104
l0 -109 -60 -7 c-33 -4 -65 -4 -70 -1 -6 3 -10 1 -10 -4 0 -7 27 -11 70 -11
l70 0 0 -101 c0 -69 -3 -98 -11 -93 -6 3 -3 -8 5 -25 9 -17 18 -31 19 -31 1 0
0 56 -2 125 l-3 125 59 0 60 0 11 -64 c7 -35 12 -77 12 -95 0 -21 5 -31 15
-31 18 0 20 -17 4 -22 -9 -3 -9 -9 0 -25 15 -29 -7 -36 -88 -29 -34 3 -61 2
-61 0 0 -14 52 -78 65 -80 9 -1 2 11 -17 29 l-33 32 59 3 c32 2 65 1 72 -2 10
-4 32 -125 26 -148 -1 -5 4 -8 11 -8 7 0 28 -11 47 -25 18 -13 37 -22 41 -19
5 3 9 49 9 102 l0 98 30 2 c33 3 30 8 50 -110 7 -37 9 -71 5 -77 -4 -8 21 -11
79 -11 l86 0 0 53 c0 37 -3 48 -10 37 -5 -8 -10 -11 -10 -6 0 6 -7 1 -15 -10
-14 -18 -14 -18 -15 -1 0 22 -25 17 -25 -4 0 -15 -6 -19 -30 -19 -11 0 -15 11
-15 40 0 22 -4 40 -10 40 -5 0 -10 13 -10 30 0 29 0 29 67 32 42 2 68 8 71 16
3 9 -15 12 -70 12 l-73 0 3 130 3 130 70 0 c39 0 69 4 69 10 0 6 -48 10 -125
10 l-125 0 0 115 c0 63 -3 114 -7 113 -5 -1 -43 -4 -85 -5z m72 -377 c0 -129
-1 -134 -20 -129 -11 3 -22 15 -25 27 -21 91 -25 118 -25 174 l0 62 35 0 35 0
0 -134z m80 4 l0 -130 -30 0 -30 0 0 130 0 130 30 0 30 0 0 -130z m-81 -252
c-1 -51 -3 -85 -6 -75 -2 9 -8 17 -13 17 -5 0 -6 15 -4 33 3 17 1 51 -4 75 -9
38 -8 42 9 42 17 0 19 -8 18 -92z"/>
<path d="M18968 6063 c7 -3 16 -2 19 1 4 3 -2 6 -13 5 -11 0 -14 -3 -6 -6z"/>
<path d="M19010 5965 l0 -105 25 0 c25 0 25 0 25 95 0 52 4 95 8 95 9 0 52
-76 52 -91 0 -5 8 -17 18 -27 9 -10 23 -27 30 -38 7 -10 -2 8 -19 41 -74 138
-72 135 -106 135 l-33 0 0 -105z"/>
<path d="M17801 5933 c2 -70 6 -63 11 20 2 26 0 47 -4 47 -5 0 -7 -30 -7 -67z"/>
<path d="M18080 5925 l0 -75 -32 0 c-18 0 -44 -4 -58 -8 -19 -5 -10 -8 40 -13
36 -3 76 -1 90 5 25 10 25 10 3 13 -21 4 -23 9 -23 79 0 43 -4 74 -10 74 -6 0
-10 -32 -10 -75z"/>
<path d="M18153 5993 c26 -2 47 -8 47 -13 0 -5 -9 -25 -21 -44 -32 -55 -15
-43 20 14 l31 50 -63 -2 c-56 -1 -58 -2 -14 -5z"/>
<path d="M18372 5940 c0 -14 2 -19 5 -12 2 6 2 18 0 25 -3 6 -5 1 -5 -13z"/>
<path d="M18145 5879 c-4 -6 -5 -12 -2 -15 2 -3 7 2 10 11 7 17 1 20 -8 4z"/>
<path d="M13705 5840 c-3 -5 -1 -10 4 -10 6 0 11 5 11 10 0 6 -2 10 -4 10 -3
0 -8 -4 -11 -10z"/>
<path d="M17810 5838 c0 -4 14 -8 30 -8 17 0 30 2 30 4 0 2 -13 6 -30 8 -16 3
-30 1 -30 -4z"/>
<path d="M18415 5840 c-30 -8 -30 -8 8 -9 23 -1 36 3 32 9 -3 6 -7 9 -8 9 -1
-1 -15 -5 -32 -9z"/>
<path d="M17888 5833 c7 -3 16 -2 19 1 4 3 -2 6 -13 5 -11 0 -14 -3 -6 -6z"/>
<path d="M12385 5765 c15 -27 32 -54 38 -60 6 -5 -2 13 -18 40 -15 28 -32 55
-38 60 -6 6 2 -12 18 -40z"/>
<path d="M12435 5628 l0 -63 -107 0 c-58 0 -110 -3 -114 -7 -4 -5 47 -8 114
-8 l122 0 0 46 c0 30 4 43 11 38 6 -3 3 8 -5 25 -9 17 -18 31 -19 31 -1 0 -2
-28 -2 -62z"/>
<path d="M15351 5555 c-49 -38 -90 -72 -91 -76 0 -3 20 -15 44 -26 36 -18 44
-26 44 -49 0 -31 25 -54 60 -54 21 0 23 -3 18 -26 -12 -46 -54 -326 -61 -406
l-7 -78 66 0 c105 0 173 -45 196 -129 6 -20 31 -166 55 -326 44 -281 47 -291
73 -310 49 -35 95 -89 153 -178 43 -67 58 -84 63 -70 3 10 -57 356 -132 768
l-138 750 35 6 c42 8 61 32 61 77 0 28 8 41 42 71 l41 37 -34 14 c-19 8 -63
26 -98 42 -56 25 -77 28 -181 31 l-118 3 -91 -71z"/>
<path d="M17865 5560 c-3 -5 -1 -10 4 -10 6 0 11 5 11 10 0 6 -2 10 -4 10 -3
0 -8 -4 -11 -10z"/>
<path d="M18520 5560 l-95 -5 101 -5 c79 -4 100 -2 97 8 -3 6 -6 11 -7 10 0
-1 -44 -4 -96 -8z"/>
<path d="M12520 5534 c0 -6 7 -19 16 -30 14 -18 14 -18 3 6 -14 31 -19 36 -19
24z"/>
<path d="M18640 5509 c7 -12 10 -54 8 -99 -2 -51 0 -76 7 -69 15 15 14 131 -2
162 -7 15 -16 27 -19 27 -2 0 0 -9 6 -21z"/>
<path d="M18760 5476 c0 -2 8 -10 18 -17 15 -13 16 -12 3 4 -13 16 -21 21 -21
13z"/>
<path d="M19120 5455 c0 -9 6 -12 15 -9 8 4 15 7 15 9 0 2 -7 5 -15 9 -9 3
-15 0 -15 -9z"/>
<path d="M12522 5390 c-18 -29 -15 -38 4 -12 9 13 14 25 12 27 -2 2 -9 -5 -16
-15z"/>
<path d="M18786 5393 c-6 -14 -5 -15 5 -6 7 7 10 15 7 18 -3 3 -9 -2 -12 -12z"/>
<path d="M18750 5360 c-9 -6 -10 -10 -3 -10 6 0 15 5 18 10 8 12 4 12 -15 0z"/>
<path d="M18688 5308 c-32 -51 -33 -58 -38 -176 -3 -67 -4 -122 -3 -122 1 0
10 14 19 31 8 17 11 28 5 25 -12 -8 -16 159 -5 188 5 12 20 16 61 16 48 0 54
-2 49 -17 -5 -15 -4 -15 9 1 8 11 15 22 15 25 0 3 -25 4 -55 3 -30 -2 -55 -1
-55 3 0 4 9 23 21 41 11 19 18 34 16 34 -3 0 -20 -24 -39 -52z"/>
<path d="M18973 5353 c9 -2 23 -2 30 0 6 3 -1 5 -18 5 -16 0 -22 -2 -12 -5z"/>
<path d="M12230 5341 c0 -6 5 -13 10 -16 6 -3 10 1 10 9 0 9 -4 16 -10 16 -5
0 -10 -4 -10 -9z"/>
<path d="M12490 5335 c-7 -9 -10 -18 -7 -21 3 -3 10 4 17 15 13 25 8 27 -10 6z"/>
<path d="M18895 5280 c-18 -20 -17 -20 8 -20 23 0 27 -4 26 -27 -1 -23 -3 -24
-6 -7 -3 16 -14 24 -40 29 -19 3 -38 4 -41 1 -3 -3 0 -6 7 -6 9 0 11 -33 9
-125 l-3 -125 -72 0 c-40 0 -73 3 -73 8 0 4 8 16 16 27 16 20 16 20 9 -2 -5
-19 -2 -23 14 -23 22 0 29 16 11 22 -6 2 -12 13 -13 26 0 12 -2 22 -3 22 -1 0
-15 -21 -30 -47 -16 -27 -34 -57 -41 -68 -23 -38 -30 -58 -25 -81 7 -36 22
-18 22 26 0 21 5 42 10 45 6 4 10 -12 10 -39 l0 -46 40 0 40 0 0 49 0 50 -42
4 c-24 2 -5 4 42 5 l85 2 -3 -60 -4 -60 41 0 41 0 0 -40 0 -40 -184 0 -183 0
0 -57 c0 -53 6 -68 94 -226 110 -196 110 -196 89 -193 -16 2 -56 63 -170 259
-39 65 -63 97 -75 97 -21 0 -46 26 -55 57 -5 15 -1 28 13 42 l21 21 -27 0
c-16 0 -37 -7 -47 -15 -10 -8 -23 -12 -27 -9 -5 3 -14 -6 -20 -20 -17 -36 12
-144 62 -230 22 -38 38 -70 36 -73 -2 -2 -15 17 -28 41 -13 25 -25 44 -26 42
-4 -4 75 -327 367 -1501 127 -511 238 -968 246 -1015 41 -250 -16 -442 -180
-605 -131 -130 -274 -189 -456 -188 -130 0 -199 21 -369 109 -81 43 -147 72
-152 67 -5 -5 35 -305 91 -687 55 -373 100 -683 100 -687 0 -5 257 -9 575 -9
l575 0 -1 2453 c-1 2084 -5 2613 -19 2482 -1 -11 -2 -23 -1 -27 0 -5 -3 -8 -9
-8 -6 0 -10 -33 -10 -79 0 -60 -4 -82 -16 -92 -14 -11 -19 -9 -35 11 -10 14
-17 30 -15 35 2 6 -25 10 -73 10 l-76 0 -3 38 -3 37 69 0 68 0 34 60 c29 51
38 60 62 60 15 0 28 5 28 10 0 6 -9 10 -20 10 l-20 0 20 40 c16 32 20 59 20
150 l0 110 -143 0 c-131 0 -146 -2 -162 -20z m128 3 c-13 -2 -35 -2 -50 0 -16
2 -5 4 22 4 28 0 40 -2 28 -4z m-38 -33 c-4 -6 -10 -8 -15 -5 -5 3 -11 -50
-13 -122 l-3 -128 -2 133 c-2 127 -1 132 19 132 11 0 17 -5 14 -10z m55 -102
c-3 -62 -9 -119 -14 -127 -6 -10 -6 -12 2 -7 7 4 12 2 12 -3 0 -6 -7 -11 -15
-11 -12 0 -15 19 -15 115 0 85 -3 115 -12 116 -10 0 -10 2 0 6 6 2 10 9 6 14
-3 5 5 9 18 9 23 0 23 0 18 -112z m-42 -175 c-31 -4 -37 -8 -41 -31 -4 -24 -4
-24 -6 6 -1 32 0 32 42 30 l42 -1 -37 -4z m-358 -233 c0 -13 -6 -20 -17 -19
-11 0 -13 3 -5 6 6 2 12 11 12 19 0 8 2 14 5 14 3 0 5 -9 5 -20z m-232 -30 c7
-12 17 -18 21 -15 5 3 8 -16 7 -43 -1 -29 5 -62 16 -84 23 -48 17 -49 -11 -2
-16 26 -20 45 -15 69 5 28 1 39 -20 60 -27 27 -31 35 -18 35 4 0 13 -9 20 -20z
m92 -230 c6 -11 8 -20 6 -20 -3 0 -10 9 -16 20 -6 11 -8 20 -6 20 3 0 10 -9
16 -20z m44 -76 c3 -8 2 -12 -4 -9 -6 3 -10 10 -10 16 0 14 7 11 14 -7z m-44
-34 c6 -11 8 -20 6 -20 -3 0 -10 9 -16 20 -6 11 -8 20 -6 20 3 0 10 -9 16 -20z
m40 -70 c6 -11 8 -20 6 -20 -3 0 -10 9 -16 20 -6 11 -8 20 -6 20 3 0 10 -9 16
-20z m251 -43 c11 -21 15 -36 8 -31 -9 5 -10 2 -6 -9 9 -24 0 -21 -14 4 -8 15
-8 19 0 15 6 -4 11 -2 11 3 0 6 -7 11 -15 11 -8 0 -19 9 -25 19 -13 26 -13 28
6 28 8 0 24 -18 35 -40z m39 -73 c0 -8 -19 -13 -24 -6 -3 5 1 9 9 9 8 0 15 -2
15 -3z"/>
<path d="M18303 5273 c15 -2 37 -2 50 0 12 2 0 4 -28 4 -27 0 -38 -2 -22 -4z"/>
<path d="M18388 5273 c7 -3 16 -2 19 1 4 3 -2 6 -13 5 -11 0 -14 -3 -6 -6z"/>
<path d="M18471 5276 c7 -7 139 -10 146 -3 3 4 -29 7 -72 7 -43 0 -76 -2 -74
-4z"/>
<path d="M12046 5214 c-3 -8 1 -14 9 -14 8 0 15 5 15 11 0 6 9 8 23 3 12 -3
19 -3 15 1 -13 14 -56 13 -62 -1z"/>
<path d="M18757 5223 c-44 -79 -56 -104 -42 -88 19 23 58 95 51 95 -3 0 -7 -3
-9 -7z"/>
<path d="M12016 5143 l-18 -38 26 28 c16 17 31 25 39 21 8 -5 8 -2 -2 9 -19
24 -25 22 -45 -20z"/>
<path d="M12380 5140 c-6 -11 -8 -20 -6 -20 3 0 10 9 16 20 6 11 8 20 6 20 -3
0 -10 -9 -16 -20z"/>
<path d="M18756 5103 c-6 -14 -5 -15 5 -6 7 7 10 15 7 18 -3 3 -9 -2 -12 -12z"/>
<path d="M12345 5080 c-9 -16 -13 -30 -11 -30 3 0 12 14 21 30 9 17 13 30 11
30 -3 0 -12 -13 -21 -30z"/>
<path d="M14482 5045 c-16 -14 -33 -36 -36 -50 -6 -24 -9 -25 -86 -25 -68 0
-83 -3 -101 -21 -19 -19 -21 -28 -14 -82 8 -75 27 -122 53 -136 14 -7 140 -11
376 -11 402 0 386 -3 386 78 -1 72 -16 125 -45 150 -23 19 -37 22 -110 22
l-83 0 -20 33 c-30 52 -74 67 -190 67 -93 0 -103 -2 -130 -25z"/>
<path d="M18761 5054 c0 -11 3 -14 6 -6 3 7 2 16 -1 19 -3 4 -6 -2 -5 -13z"/>
<path d="M12310 5020 c-8 -15 -22 -20 -53 -21 -36 -1 -38 -2 -17 -9 45 -14 59
-11 75 20 9 17 13 30 11 30 -3 0 -10 -9 -16 -20z"/>
<path d="M18507 4993 c-6 -9 121 -8 130 1 4 3 -23 6 -60 6 -36 0 -68 -3 -70
-7z"/>
<path d="M12270 4950 c-6 -11 -8 -20 -6 -20 3 0 10 9 16 20 6 11 8 20 6 20 -3
0 -10 -9 -16 -20z"/>
<path d="M12225 4874 c-9 -15 -12 -23 -6 -20 11 7 35 46 28 46 -3 0 -12 -12
-22 -26z"/>
<path d="M11900 4860 c0 -5 30 -9 71 -8 42 1 65 4 57 9 -18 12 -128 11 -128
-1z"/>
<path d="M14493 3824 c-8 -23 27 -91 77 -147 81 -91 246 -190 405 -242 110
-36 160 -42 168 -21 8 19 12 17 -108 52 -222 63 -419 193 -486 319 -26 49 -46
63 -56 39z"/>
<path d="M15713 3665 c-7 -21 1 -28 59 -49 26 -9 63 -30 84 -46 38 -31 54 -31
54 0 0 31 -82 84 -163 104 -20 5 -29 2 -34 -9z"/>
<path d="M14520 3451 c0 -24 61 -96 138 -162 66 -57 210 -132 297 -154 91 -23
190 -30 200 -15 12 20 -23 40 -69 40 -153 1 -357 104 -483 245 -60 67 -83 80
-83 46z"/>
<path d="M16192 3227 c-152 -285 -282 -531 -282 -534 0 -1 17 -10 37 -18 20
-9 56 -31 79 -50 l42 -35 26 68 c14 37 73 193 131 347 l106 279 -23 18 c-56
44 -52 46 -116 -75z"/>
<path d="M14695 3040 c-10 -17 4 -30 107 -97 140 -90 225 -131 305 -145 77
-13 106 -7 101 19 -3 14 -17 19 -69 24 -80 7 -161 43 -308 139 -109 71 -125
78 -136 60z"/>
<path d="M11725 2670 c-12 -13 -16 -29 -12 -52 5 -35 11 -23 -188 -368 -70
-121 -90 -148 -122 -165 -28 -15 -39 -27 -41 -48 -4 -33 20 -64 50 -69 15 -2
59 -70 163 -252 126 -219 142 -252 133 -272 -8 -18 -7 -29 6 -49 23 -35 69
-38 98 -4 16 18 29 19 302 16 282 -2 285 -3 310 -26 42 -40 103 0 93 61 -4 28
10 59 96 208 55 96 118 207 141 247 32 56 46 73 68 77 60 12 60 100 0 112 -24
5 -42 29 -122 167 -52 89 -118 202 -147 251 -37 61 -50 93 -43 100 16 16 12
44 -10 66 -26 26 -55 25 -80 0 -20 -20 -33 -20 -306 -20 -271 0 -287 1 -311
20 -32 25 -55 25 -78 0z m696 -76 c14 -14 32 -24 39 -22 8 2 69 -94 154 -244
183 -320 182 -280 21 -559 -157 -271 -162 -279 -184 -279 -10 0 -26 -9 -36
-20 -17 -19 -31 -20 -305 -20 -274 0 -288 1 -305 20 -10 11 -26 20 -36 20 -13
0 -42 42 -99 143 -45 78 -110 190 -144 248 -53 89 -61 109 -52 128 7 16 6 28
-2 41 -9 15 10 56 129 261 77 134 144 248 149 253 6 6 18 11 27 12 10 2 25 12
33 22 14 19 29 20 300 21 l284 1 27 -26z"/>
<path d="M12898 1603 c7 -3 16 -2 19 1 4 3 -2 6 -13 5 -11 0 -14 -3 -6 -6z"/>
<path d="M12721 1534 c0 -11 3 -14 6 -6 3 7 2 16 -1 19 -3 4 -6 -2 -5 -13z"/>
<path d="M12720 1419 l0 -94 -125 3 c-85 3 -125 0 -125 -7 0 -7 42 -11 125
-11 l125 0 0 -30 c0 -27 -10 -35 -120 -100 -65 -39 -126 -73 -135 -76 -14 -6
-16 7 -15 107 1 148 1 148 -8 129 -4 -8 -5 -68 -2 -132 l5 -118 -45 -23 c-39
-20 -57 -22 -137 -19 l-93 3 0 60 c0 33 -4 59 -10 59 -6 0 -10 -28 -10 -62 l0
-63 -130 -2 -130 -2 0 30 c0 16 -4 29 -10 29 -5 0 -10 -14 -10 -30 l0 -31
-132 3 c-100 2 -132 6 -131 16 2 6 -2 12 -7 12 -6 0 -10 -6 -10 -12 0 -9 -16
-13 -47 -13 -27 0 -75 -2 -108 -6 -51 -5 -44 -6 48 -7 l107 -2 0 -111 c0 -71
4 -108 10 -104 6 3 10 52 10 111 l0 104 130 0 131 0 -3 -116 -3 -115 -128 -55
c-138 -58 -141 -59 -132 -44 3 5 1 18 -4 27 -9 15 -10 13 -11 -13 0 -21 -6
-33 -17 -37 -34 -10 -336 -116 -338 -119 -4 -3 107 -440 128 -508 l14 -45 992
-3 c545 -1 991 1 991 4 0 5 -52 196 -295 1073 -30 107 -60 227 -66 267 l-13
72 -68 -44 c-37 -24 -70 -44 -73 -44 -3 0 -27 -16 -54 -35 -26 -19 -51 -35
-53 -35 -3 0 -6 55 -7 122 -1 67 -4 124 -6 127 -3 2 -5 -38 -5 -90z m-380
-384 c0 -6 -439 -225 -450 -225 -3 0 -4 49 -2 110 l3 110 130 0 129 0 0 -40
c0 -22 5 -40 10 -40 6 0 10 18 10 40 l0 39 78 4 c42 1 80 4 85 5 4 1 7 0 7 -3z"/>
<path d="M12350 1320 c0 -5 16 -10 35 -10 19 0 35 5 35 10 0 6 -16 10 -35 10
-19 0 -35 -4 -35 -10z"/>
<path d="M12750 1320 c0 -5 13 -10 29 -10 17 0 33 5 36 10 4 6 -8 10 -29 10
-20 0 -36 -4 -36 -10z"/>
<path d="M11738 833 c7 -3 16 -2 19 1 4 3 -2 6 -13 5 -11 0 -14 -3 -6 -6z"/>
<path d="M11591 778 c0 -9 -7 -18 -13 -21 -7 -2 25 -5 72 -6 47 0 92 3 100 9
10 7 -10 8 -67 4 -74 -6 -81 -5 -86 12 -4 15 -5 16 -6 2z"/>
<path d="M11285 759 c-30 -7 -30 -7 -3 -8 26 -1 27 -4 31 -58 l3 -58 2 57 c2
54 3 57 30 60 l27 3 -30 5 c-16 3 -43 3 -60 -1z"/>
<path d="M11408 753 c7 -3 16 -2 19 1 4 3 -2 6 -13 5 -11 0 -14 -3 -6 -6z"/>
<path d="M11311 614 c0 -11 3 -14 6 -6 3 7 2 16 -1 19 -3 4 -6 -2 -5 -13z"/>
</g>
</svg>
