<svg width="33" height="33" viewBox="0 0 33 33" fill="none" xmlns="http://www.w3.org/2000/svg">
<g clip-path="url(#clip0)">
<path d="M22.6092 32.8125H9.6492C7.0092 32.8125 4.9292 30.6525 4.9292 28.0925V13.6125C4.9292 13.1325 5.2492 12.8125 5.7292 12.8125C6.2092 12.8125 6.5292 13.1325 6.5292 13.6125V28.0925C6.5292 29.8525 7.9692 31.2125 9.6492 31.2125H22.6092C24.3692 31.2125 25.7292 29.7725 25.7292 28.0925V13.6125C25.7292 13.1325 26.0492 12.8125 26.5292 12.8125C27.0092 12.8125 27.3292 13.1325 27.3292 13.6125V28.0925C27.3292 30.6525 25.1692 32.8125 22.6092 32.8125Z" fill="white"/>
<path d="M26.8489 4.7325H20.7689C20.3689 2.4925 18.4489 0.8125 16.1289 0.8125C13.8089 0.8125 11.8889 2.4925 11.4889 4.7325H5.40891C3.56891 4.7325 2.12891 6.1725 2.12891 8.0125C2.12891 9.8525 3.56891 11.2125 5.40891 11.2125H26.9289C28.7689 11.2125 30.2089 9.7725 30.2089 7.9325C30.2089 6.0925 28.6889 4.7325 26.8489 4.7325ZM16.1289 2.4125C17.5689 2.4125 18.7689 3.3725 19.0889 4.7325H13.0889C13.4889 3.3725 14.6889 2.4125 16.1289 2.4125ZM26.8489 9.6125H5.40891C4.52891 9.6125 3.72891 8.8925 3.72891 7.9325C3.72891 7.0525 4.44891 6.2525 5.40891 6.2525H26.9289C27.8089 6.2525 28.6089 6.9725 28.6089 7.9325C28.5289 8.8925 27.8089 9.6125 26.8489 9.6125Z" fill="white"/>
<path d="M10.529 28.8926C10.049 28.8926 9.729 28.5726 9.729 28.0926V14.7326C9.729 14.2526 10.049 13.9326 10.529 13.9326C11.009 13.9326 11.329 14.2526 11.329 14.7326V28.0926C11.329 28.4926 10.929 28.8926 10.529 28.8926Z" fill="white"/>
<path d="M21.7292 28.8926C21.2492 28.8926 20.9292 28.5726 20.9292 28.0926V14.7326C20.9292 14.2526 21.2492 13.9326 21.7292 13.9326C22.2092 13.9326 22.5292 14.2526 22.5292 14.7326V28.0926C22.5292 28.4926 22.1292 28.8926 21.7292 28.8926Z" fill="white"/>
<path d="M16.1291 28.8926C15.6491 28.8926 15.3291 28.5726 15.3291 28.0926V14.7326C15.3291 14.2526 15.6491 13.9326 16.1291 13.9326C16.6091 13.9326 16.9291 14.2526 16.9291 14.7326V28.0926C16.9291 28.4926 16.5291 28.8926 16.1291 28.8926Z" fill="white"/>
</g>
<defs>
<clipPath id="clip0">
<rect width="32" height="32" fill="white" transform="translate(0.208984 0.8125)"/>
</clipPath>
</defs>
</svg>
