<svg width="63" height="57" viewBox="0 0 63 57" fill="none" xmlns="http://www.w3.org/2000/svg">
<g clip-path="url(#clip0)">
<path d="M0.208984 8.40625C0.208984 3.98797 3.79071 0.40625 8.20898 0.40625H54.209C58.6273 0.40625 62.209 3.98797 62.209 8.40625V48.4063C62.209 52.8245 58.6273 56.4062 54.209 56.4062H8.20898C3.79071 56.4062 0.208984 52.8245 0.208984 48.4062V8.40625Z" fill="#B80707" fill-opacity="0.85"/>
</g>
<g clip-path="url(#clip1)">
<path d="M37.6092 42.8125H24.6492C22.0092 42.8125 19.9292 40.6525 19.9292 38.0925V23.6125C19.9292 23.1325 20.2492 22.8125 20.7292 22.8125C21.2092 22.8125 21.5292 23.1325 21.5292 23.6125V38.0925C21.5292 39.8525 22.9692 41.2125 24.6492 41.2125H37.6092C39.3692 41.2125 40.7292 39.7725 40.7292 38.0925V23.6125C40.7292 23.1325 41.0492 22.8125 41.5292 22.8125C42.0092 22.8125 42.3292 23.1325 42.3292 23.6125V38.0925C42.3292 40.6525 40.1692 42.8125 37.6092 42.8125Z" fill="white"/>
<path d="M41.8489 14.7325H35.7689C35.3689 12.4925 33.4489 10.8125 31.1289 10.8125C28.8089 10.8125 26.8889 12.4925 26.4889 14.7325H20.4089C18.5689 14.7325 17.1289 16.1725 17.1289 18.0125C17.1289 19.8525 18.5689 21.2125 20.4089 21.2125H41.9289C43.7689 21.2125 45.2089 19.7725 45.2089 17.9325C45.2089 16.0925 43.6889 14.7325 41.8489 14.7325ZM31.1289 12.4125C32.5689 12.4125 33.7689 13.3725 34.0889 14.7325H28.0889C28.4889 13.3725 29.6889 12.4125 31.1289 12.4125ZM41.8489 19.6125H20.4089C19.5289 19.6125 18.7289 18.8925 18.7289 17.9325C18.7289 17.0525 19.4489 16.2525 20.4089 16.2525H41.9289C42.8089 16.2525 43.6089 16.9725 43.6089 17.9325C43.5289 18.8925 42.8089 19.6125 41.8489 19.6125Z" fill="white"/>
<path d="M25.529 38.8926C25.049 38.8926 24.729 38.5726 24.729 38.0926V24.7326C24.729 24.2526 25.049 23.9326 25.529 23.9326C26.009 23.9326 26.329 24.2526 26.329 24.7326V38.0926C26.329 38.4926 25.929 38.8926 25.529 38.8926Z" fill="white"/>
<path d="M36.7292 38.8926C36.2492 38.8926 35.9292 38.5726 35.9292 38.0926V24.7326C35.9292 24.2526 36.2492 23.9326 36.7292 23.9326C37.2092 23.9326 37.5292 24.2526 37.5292 24.7326V38.0926C37.5292 38.4926 37.1292 38.8926 36.7292 38.8926Z" fill="white"/>
<path d="M31.1291 38.8926C30.6491 38.8926 30.3291 38.5726 30.3291 38.0926V24.7326C30.3291 24.2526 30.6491 23.9326 31.1291 23.9326C31.6091 23.9326 31.9291 24.2526 31.9291 24.7326V38.0926C31.9291 38.4926 31.5291 38.8926 31.1291 38.8926Z" fill="white"/>
</g>
<defs>
<clipPath id="clip0">
<path d="M0.208984 8.40625C0.208984 3.98797 3.79071 0.40625 8.20898 0.40625H54.209C58.6273 0.40625 62.209 3.98797 62.209 8.40625V48.4063C62.209 52.8245 58.6273 56.4062 54.209 56.4062H8.20898C3.79071 56.4062 0.208984 52.8245 0.208984 48.4062V8.40625Z" fill="white"/>
</clipPath>
<clipPath id="clip1">
<rect width="32" height="32" fill="white" transform="translate(15.209 10.8125)"/>
</clipPath>
</defs>
</svg>
