<svg width="63" height="57" viewBox="0 0 63 57" fill="none" xmlns="http://www.w3.org/2000/svg">
<g clip-path="url(#clip0)">
<path d="M0.159668 8.64062C0.159668 4.22235 3.74139 0.640625 8.15967 0.640625H54.1597C58.5779 0.640625 62.1597 4.22235 62.1597 8.64063V48.6406C62.1597 53.0589 58.5779 56.6406 54.1597 56.6406H8.15967C3.74139 56.6406 0.159668 53.0589 0.159668 48.6406V8.64062Z" fill="#00A761" fill-opacity="0.89"/>
</g>
<path d="M31.1597 19.0781C24.7145 19.0781 19.2575 23.0901 17.3472 28.6406C19.2575 34.1911 24.7145 38.2031 31.1597 38.2031C37.6048 38.2031 43.0618 34.1911 44.9722 28.6406C43.0618 23.0901 37.6048 19.0781 31.1597 19.0781Z" stroke="white" stroke-width="2" stroke-miterlimit="10" stroke-linecap="round" stroke-linejoin="round"/>
<path d="M31.1597 33.9531C34.0937 33.9531 36.4722 31.5746 36.4722 28.6406C36.4722 25.7066 34.0937 23.3281 31.1597 23.3281C28.2257 23.3281 25.8472 25.7066 25.8472 28.6406C25.8472 31.5746 28.2257 33.9531 31.1597 33.9531Z" stroke="white" stroke-width="2" stroke-miterlimit="10" stroke-linecap="round" stroke-linejoin="round"/>
<defs>
<clipPath id="clip0">
<path d="M0.159668 8.64062C0.159668 4.22235 3.74139 0.640625 8.15967 0.640625H54.1597C58.5779 0.640625 62.1597 4.22235 62.1597 8.64063V48.6406C62.1597 53.0589 58.5779 56.6406 54.1597 56.6406H8.15967C3.74139 56.6406 0.159668 53.0589 0.159668 48.6406V8.64062Z" fill="white"/>
</clipPath>
</defs>
</svg>
