<svg width="37" height="37" viewBox="0 0 37 37" fill="none" xmlns="http://www.w3.org/2000/svg">
<path d="M31.5606 8.48287L29.1037 6.02925C28.85 5.77556 28.5164 5.64844 28.1834 5.64844C27.8504 5.64844 27.5174 5.775 27.2637 6.02869L25.2983 7.98844L29.5953 12.2781L31.5606 10.3189C32.0686 9.8115 32.0686 8.98856 31.5606 8.48287Z" fill="white"/>
<path d="M12.54 20.7226L16.8375 25.0128L28.6754 13.1969L24.3779 8.90674L12.54 20.7226Z" fill="white"/>
<path d="M11.6123 21.6406L10.6948 26.8449L15.9098 25.9303L11.6123 21.6406Z" fill="white"/>
<path d="M23.4925 29.1643H7.28914V12.9609H18.7242L21.5423 10.1484H6.2952C5.29451 10.1484 4.47607 10.9669 4.47607 11.9676V30.1582C4.47607 31.1589 5.29451 31.9774 6.2952 31.9774H24.4859C25.4866 31.9774 26.305 31.1589 26.305 30.1582V17.1527L23.4925 19.9601V29.1643Z" fill="white"/>
</svg>
