<svg width="63" height="57" viewBox="0 0 63 57" fill="none" xmlns="http://www.w3.org/2000/svg">
<g clip-path="url(#clip0)">
<path d="M0.208984 8.40625C0.208984 3.98797 3.79071 0.40625 8.20898 0.40625H54.209C58.6273 0.40625 62.209 3.98797 62.209 8.40625V48.4063C62.209 52.8245 58.6273 56.4062 54.209 56.4062H8.20898C3.79071 56.4062 0.208984 52.8245 0.208984 48.4062V8.40625Z" fill="#16961C" fill-opacity="0.85"/>
</g>
<path d="M44.5606 16.4829L42.1037 14.0293C41.85 13.7756 41.5164 13.6484 41.1834 13.6484C40.8504 13.6484 40.5174 13.775 40.2637 14.0287L38.2983 15.9884L42.5953 20.2781L44.5606 18.3189C45.0686 17.8115 45.0686 16.9886 44.5606 16.4829Z" fill="white"/>
<path d="M25.54 28.7226L29.8375 33.0128L41.6754 21.1969L37.3779 16.9067L25.54 28.7226Z" fill="white"/>
<path d="M24.6123 29.6406L23.6948 34.8449L28.9098 33.9303L24.6123 29.6406Z" fill="white"/>
<path d="M36.4925 37.1643H20.2891V20.9609H31.7242L34.5423 18.1484H19.2952C18.2945 18.1484 17.4761 18.9669 17.4761 19.9676V38.1582C17.4761 39.1589 18.2945 39.9774 19.2952 39.9774H37.4859C38.4866 39.9774 39.305 39.1589 39.305 38.1582V25.1527L36.4925 27.9601V37.1643Z" fill="white"/>
<defs>
<clipPath id="clip0">
<path d="M0.208984 8.40625C0.208984 3.98797 3.79071 0.40625 8.20898 0.40625H54.209C58.6273 0.40625 62.209 3.98797 62.209 8.40625V48.4063C62.209 52.8245 58.6273 56.4062 54.209 56.4062H8.20898C3.79071 56.4062 0.208984 52.8245 0.208984 48.4062V8.40625Z" fill="white"/>
</clipPath>
</defs>
</svg>
