<svg xmlns="http://www.w3.org/2000/svg" viewBox="0 0 500 500"><g id="freepik--Box--inject-77"><rect x="98.98" y="373.21" width="61.52" height="69.43" style="fill:#407BFF"></rect><rect x="129.74" y="373.21" width="61.52" height="69.43" style="fill:#407BFF"></rect><rect x="98.98" y="373.21" width="61.52" height="69.43" style="fill:#fff;opacity:0.7000000000000001"></rect><rect x="160.43" y="373.21" width="30.82" height="69.43" style="fill:#fff;opacity:0.2"></rect><ellipse cx="174.86" cy="408.28" rx="7.83" ry="13.52" transform="translate(-9.48 4.19) rotate(-1.34)" style="fill:#fff"></ellipse><polygon points="179.6 405.99 176.26 406.07 176.13 400.41 173.55 400.47 173.68 406.13 170.01 406.22 170.11 410.63 173.78 410.54 173.92 416.15 176.5 416.09 176.37 410.48 179.71 410.4 179.6 405.99" style="fill:#407BFF"></polygon><rect x="124.77" y="373.21" width="12.46" height="12.46" style="fill:#f5f5f5"></rect><rect x="124.77" y="398.1" width="12.46" height="44.54" style="fill:#f5f5f5"></rect><rect x="129.74" y="316.26" width="50.47" height="56.97" style="fill:#407BFF"></rect><rect x="154.98" y="316.26" width="50.47" height="56.97" style="fill:#407BFF"></rect><rect x="129.74" y="316.26" width="42.6" height="56.97" style="fill:#fff;opacity:0.7000000000000001"></rect><rect x="172.34" y="316.26" width="33.11" height="56.97" style="fill:#fff;opacity:0.2"></rect><path d="M195.31,344.89c.15,6.12-2.61,11.16-6.16,11.24s-6.54-4.82-6.68-10.94S185.09,334,188.63,334,195.17,338.76,195.31,344.89Z" style="fill:#fff"></path><polygon points="192.79 343.16 190.05 343.22 189.94 338.57 187.82 338.62 187.93 343.27 184.91 343.34 185 346.96 188.01 346.89 188.12 351.5 190.24 351.44 190.13 346.84 192.87 346.78 192.79 343.16" style="fill:#407BFF"></polygon><rect x="140.67" y="316.26" width="10.23" height="56.97" style="fill:#f5f5f5"></rect></g><g id="freepik--Character--inject-77"><path d="M238.39,239.1s-14.73,69.76-16,92.9,4.77,81.29,4.77,81.29l18.82,3,3.59-74.21,8.25-56.57s8.64,46,12.36,56.77,21.47,42,36.13,66.95L318.91,400s-23.55-67.34-27.57-80.49-1.3-68.9-13.7-84.73Z" style="fill:#407BFF"></path><path d="M238.39,239.1s-14.73,69.76-16,92.9,4.77,81.29,4.77,81.29l18.82,3,3.59-74.21,8.25-56.57s8.64,46,12.36,56.77,21.47,42,36.13,66.95L318.91,400s-23.55-67.34-27.57-80.49-1.3-68.9-13.7-84.73Z" style="fill:#fff;opacity:0.4"></path><path d="M241.89,432.6c-.09.56-9.85-1.56-9.85-1.56l-.66-9.64-.26-3.78,10-.88s.17,2.88.35,6.18C241.67,427.24,242,432.27,241.89,432.6Z" style="fill:#b55b52"></path><path d="M241.43,422.92l-10.05-1.52-.26-3.78,10-.88S241.25,419.62,241.43,422.92Z" style="opacity:0.2"></path><path d="M224.89,434.43l-.4-.55c-.12-.17-3-4.2-2.58-6.18a1.33,1.33,0,0,1,.68-.91.91.91,0,0,1,.94,0c1.43.87,1.38,6.35,1.37,7Zm-1.8-7.32a.64.64,0,0,0-.29.08.92.92,0,0,0-.45.61c-.31,1.36,1.31,4,2.1,5.22,0-1.93-.26-5.31-1.15-5.85A.4.4,0,0,0,223.09,427.11Z" style="fill:#407BFF"></path><path d="M223.88,434.49l-.58-.24c-.62-.25-6.06-2.52-6.4-4.47a1.15,1.15,0,0,1,.41-1.07,1.41,1.41,0,0,1,1.24-.35c2.2.38,4.92,5.36,5,5.57Zm-5.61-5.71a.92.92,0,0,0-.65.27.68.68,0,0,0-.27.66c.22,1.28,3.62,3,5.5,3.86-.78-1.33-2.8-4.49-4.38-4.77Z" style="fill:#407BFF"></path><path d="M241.57,432.06l-10.1-1.59a2.55,2.55,0,0,0-1.8.39,21.12,21.12,0,0,1-7.75,3.22c-4.32.61-8.16-.24-8.52,1a3.71,3.71,0,0,0,1.86,4.19c1.42.74,18.82,3.44,26.16,4.56a2.56,2.56,0,0,0,2.93-2.77l-.63-6.7A2.58,2.58,0,0,0,241.57,432.06Z" style="fill:#222221"></path><polygon points="224.67 410.98 226.25 419.3 246.85 421.26 247.46 412.84 224.67 410.98" style="fill:#407BFF"></polygon><path d="M325.24,410.44c.28.5-8.68,4.91-8.68,4.91l-5.94-6.53-3.11-3.43,3.16-3,4.1-3.87s.42.48,1.11,1.24l3.64,4.1C322.22,406.92,325.1,410.19,325.24,410.44Z" style="fill:#b55b52"></path><path d="M319.52,403.87l-8.9,4.95-3.11-3.43,3.16-3,5.21-2.63Z" style="opacity:0.2"></path><path d="M313.65,419.34l-.52-.24c-.19-.08-4.58-2.09-5-3.86a1.11,1.11,0,0,1,.28-1,1.23,1.23,0,0,1,1.15-.46c1.78.29,3.63,4.56,3.84,5.05Zm-4.25-5.14a.8.8,0,0,0-.62.32.67.67,0,0,0-.17.63c.24,1.12,2.72,2.56,4.15,3.28-.69-1.48-2.11-4-3.24-4.22Z" style="fill:#407BFF"></path><path d="M307.07,421.44a3.8,3.8,0,0,1-2.55-.65,1.42,1.42,0,0,1-.33-1.48,2,2,0,0,1,1.17-1.4c2.61-1.18,8.44,1.79,8.69,1.92l.5.26-.54.16A30.93,30.93,0,0,1,307.07,421.44Zm-.19-3.36a3.27,3.27,0,0,0-1.34.24,1.56,1.56,0,0,0-.91,1.1,1,1,0,0,0,.2,1c1.2,1.16,6.09.15,8.48-.49C312.09,419.4,309,418.08,306.88,418.08Z" style="fill:#407BFF"></path><path d="M324.66,410.08l-8.9,5a2.5,2.5,0,0,0-1.17,1.42,21,21,0,0,1-4.08,7.33c-3,3.17-6.54,4.89-6.05,6.08a3.69,3.69,0,0,0,4.05,2.13c1.57-.3,16.89-9,23.34-12.66a2.56,2.56,0,0,0,.57-4l-4.65-4.87A2.58,2.58,0,0,0,324.66,410.08Z" style="fill:#222221"></path><polygon points="298.9 404.93 305.31 410.49 322.68 399.23 317.93 392.25 298.9 404.93" style="fill:#407BFF"></polygon><path d="M259.28,152c.55-.31,12-.83,23,1.48s-8.6,15.84-8.6,15.84l-6.14,24.58-11.25.1-1.36-34.9Z" style="fill:#ebebeb"></path><path d="M282.27,153.51l-23.86,37.65,2.64-39.48s-8.67.22-11.36,1-5,7.06-6.93,15.66-4.86,29.22-4.86,29.22l-13.71,115s46.87,10,68.95,2.23c0,0-8.3-103.29-6.93-109.67s5.8-29.72,5.8-29.72,6.14-11.65,3.47-15.08S282.27,153.51,282.27,153.51Z" style="fill:#407BFF"></path><line x1="254.14" y1="225.95" x2="257.54" y2="317.21" style="fill:none;stroke:#fff;stroke-linecap:round;stroke-linejoin:round;stroke-width:0.75px"></line><rect x="176.6" y="167.01" width="87.39" height="64.58" transform="translate(-52.51 81.72) rotate(-18.82)" style="fill:#407BFF"></rect><polygon points="251.24 154.64 189.35 243.96 177.73 238.69 156.9 177.57 239.62 149.38 251.24 154.64" style="fill:#407BFF"></polygon><polygon points="251.24 154.64 168.52 182.83 189.35 243.96 177.73 238.69 156.9 177.57 239.62 149.38 251.24 154.64" style="fill:#fff;opacity:0.7000000000000001"></polygon><rect x="176.6" y="167.01" width="87.39" height="64.58" transform="translate(-52.51 81.72) rotate(-18.82)" style="fill:#fff;opacity:0.46"></rect><circle cx="220.29" cy="199.3" r="23.45" transform="matrix(0.77, -0.63, 0.63, 0.77, -76.41, 184.65)" style="fill:#fafafa"></circle><polygon points="232.78 191.24 223.27 194.35 220.21 185.01 212.86 187.42 215.92 196.76 205.46 200.18 207.83 207.45 218.3 204.02 221.33 213.28 228.68 210.87 225.65 201.61 235.16 198.5 232.78 191.24" style="fill:#407BFF"></polygon><path d="M261,103.14V88.59s15.93-7.17,31.16,7.47l-7,14.12Z" style="fill:#407BFF"></path><rect x="273.94" y="90.47" width="1.84" height="5.63" transform="translate(23.27 -51.46) rotate(11.17)" style="fill:#fff"></rect><rect x="273.94" y="90.47" width="1.84" height="5.63" transform="translate(130.11 344.88) rotate(-78.83)" style="fill:#fff"></rect><path d="M284,130c-2.91,4.19-5.58,3.61-5.58,3.61a16,16,0,0,1-3.37,4.23c-.48,13.07,3.37,16.6,3.37,16.6-4,6.17-8.94,6-13.94,4.2s-5.26-5.72-5.26-5.72c4.52-2.22,4.58-5.7,3.93-8.08a10.5,10.5,0,0,0-1.14-2.62c-8.49-2.33-10.94-10.47-10.36-18.15a41.51,41.51,0,0,1,3.38-13.5l5-7.57,19.55,4,1.05,10.36-4,7.68C283.68,119.83,286.94,125.76,284,130Z" style="fill:#b55b52"></path><path d="M261,129.9a9.4,9.4,0,0,1-1.42-.1.35.35,0,1,1,.12-.69s5,.87,7.15-2.83a.35.35,0,1,1,.61.35C265.81,129.45,262.76,129.9,261,129.9Z" style="fill:#263238"></path><path d="M259.63,125.33c.21,0,1.06-6.38,1.06-6.38l-4.54,5.46A4,4,0,0,0,259.63,125.33Z" style="fill:#a02724"></path><path d="M266.66,119.08c-.11.79-.6,1.38-1.09,1.31s-.8-.77-.69-1.56.6-1.39,1.09-1.32S266.77,118.28,266.66,119.08Z" style="fill:#263238"></path><path d="M257,118.2c-.11.79-.6,1.38-1.09,1.31s-.8-.76-.69-1.56.6-1.38,1.09-1.31S257.16,117.4,257,118.2Z" style="fill:#263238"></path><path d="M270.58,115.5a.47.47,0,0,1-.42-.27c-1.19-2.53-2.87-2.2-2.94-2.19a.47.47,0,0,1-.22-.91c.1,0,2.48-.56,4,2.7a.47.47,0,0,1-.23.63A.45.45,0,0,1,270.58,115.5Z" style="fill:#263238"></path><path d="M253.93,113.82a.45.45,0,0,1-.32-.13.46.46,0,0,1,0-.66c.12-.12,2.8-2.86,6.18-1.51a.47.47,0,0,1,.27.61.48.48,0,0,1-.62.26c-2.81-1.12-5.12,1.26-5.15,1.29A.44.44,0,0,1,253.93,113.82Z" style="fill:#263238"></path><path d="M266.37,141.69a8.85,8.85,0,0,1-3.19,3.1,10.5,10.5,0,0,0-1.14-2.62A10.62,10.62,0,0,0,266.37,141.69Z" style="opacity:0.2"></path><path d="M278.65,107.88s-16.87,4.51-23.59,2.12-4.37-10.65-3.46-11.43c1.24-1.06,3.94,3.32,3.94,3.32s-2.21-4.69-.48-5.72,2,6,8.3,5.26,23.76-5.49,24.79,5.49a39,39,0,0,1-3.09,19.26s-.93-6-8.36-1.23c0,0-2.47-1.76,0-4.18C281,116.58,279.5,111.07,278.65,107.88Z" style="fill:#263238"></path><path d="M276.86,107s-2.93,9.58,2.46,9.12,2.08-10.46,2.08-10.46Z" style="fill:#263238"></path><path d="M262.69,102s-3.52-2.59-2.62-4.47,2.3,2.66,9.31,1.83,15.33-1.46,16.87,3.19-14,1.11-14,1.11l-9.58,2.06Z" style="fill:#263238"></path><path d="M261.47,216.46l-6.77-1.91s-8-.49-8.67,2.56-1,8.31,2.18,8.73,13.08-.2,13.08-.2Z" style="fill:#b55b52"></path><path d="M284.57,170l10.91-9.74s13.51,30,14.27,41.53-8.15,16.71-15.7,18.65-32.57,7.11-32.57,7.11l-1.35-13.92s26.65-4.55,36.91-9.26C297,204.4,287.77,177.55,284.57,170Z" style="fill:#407BFF"></path><polygon points="261.48 227.58 286.7 222.19 286.77 225.99 261.48 227.58" style="opacity:0.1"></polygon><path d="M264.5,158.59l2.87,7.58a81.3,81.3,0,0,0,12.52-11.41l-4.16-6.93S271.92,155.41,264.5,158.59Z" style="fill:#fafafa"></path><path d="M262.4,150.3a19.65,19.65,0,0,0,2.1,8.29l-3.13,7a15.21,15.21,0,0,1-4.3-12.31Z" style="fill:#fafafa"></path></g></svg>