<svg xmlns="http://www.w3.org/2000/svg" viewBox="0 0 500 500"><g id="freepik--Floor--inject-10"><path d="M468.19,471.91c0,.14-97.69.26-218.18.26s-218.2-.12-218.2-.26,97.67-.27,218.2-.27S468.19,471.76,468.19,471.91Z" style="fill:#263238"></path></g><g id="freepik--Plant--inject-10"><polygon points="391.36 426.55 398.2 471.53 437.97 471.53 447.2 427.2 391.36 426.55" style="fill:#FF725E"></polygon><path d="M441.64,455.37c0,.13-10.19.24-22.76.24s-22.75-.11-22.75-.24,10.18-.23,22.75-.23S441.64,455.24,441.64,455.37Z" style="fill:#fafafa"></path><path d="M441.79,453.16c0,.13-10.25.23-22.91.23s-22.91-.1-22.91-.23,10.26-.23,22.91-.23S441.79,453,441.79,453.16Z" style="fill:#fafafa"></path><path d="M441.72,450.66c0,.13-10.26.24-22.91.24s-22.92-.11-22.92-.24,10.26-.23,22.92-.23S441.72,450.53,441.72,450.66Z" style="fill:#fafafa"></path><path d="M402.77,469a37.49,37.49,0,0,1-1.22-5.66,38.18,38.18,0,0,1-.76-5.75,72.19,72.19,0,0,1,2,11.41Z" style="fill:#fafafa"></path><path d="M405.48,468.48A43.55,43.55,0,0,1,405,463a42.16,42.16,0,0,1-.25-5.55,27.77,27.77,0,0,1,.72,5.51A27.32,27.32,0,0,1,405.48,468.48Z" style="fill:#fafafa"></path><path d="M410.41,468.48a27.13,27.13,0,0,1-1-5.67,28.27,28.27,0,0,1-.3-5.75,49.46,49.46,0,0,1,.77,5.7A51.61,51.61,0,0,1,410.41,468.48Z" style="fill:#fafafa"></path><path d="M413.87,468.72a27.81,27.81,0,0,1-.55-5.76,28.66,28.66,0,0,1,.17-5.78,46.16,46.16,0,0,1,.29,5.77A48.4,48.4,0,0,1,413.87,468.72Z" style="fill:#fafafa"></path><path d="M420,468.48a31.66,31.66,0,0,1-.42-5.46,32.31,32.31,0,0,1,.05-5.48A33.62,33.62,0,0,1,420,463,33,33,0,0,1,420,468.48Z" style="fill:#fafafa"></path><path d="M424.47,468.72a68,68,0,0,1,.09-11.3,68,68,0,0,1-.09,11.3Z" style="fill:#fafafa"></path><path d="M428.67,468.12a75.67,75.67,0,0,1,1.14-11.77,75.67,75.67,0,0,1-1.14,11.77Z" style="fill:#fafafa"></path><path d="M434.08,467.53a31,31,0,0,1,2.15-9.87,47.67,47.67,0,0,1-1,4.94A44.71,44.71,0,0,1,434.08,467.53Z" style="fill:#fafafa"></path><path d="M430.25,337.79a.73.73,0,0,1-.05.22l-.19.64c-.18.59-.43,1.4-.75,2.42s-.75,2.34-1.17,3.85-1,3.21-1.43,5.13-1.06,4-1.55,6.26-1,4.69-1.54,7.25c-.95,5.12-1.82,10.8-2.43,16.78s-.85,11.73-.93,16.94c0,2.61,0,5.09.07,7.41s.16,4.48.28,6.44.27,3.75.39,5.31.26,2.91.39,4,.19,1.91.26,2.53l0,.66a.91.91,0,0,1,0,.22s0-.07-.05-.22-.06-.39-.11-.65c-.08-.61-.2-1.46-.34-2.52s-.33-2.44-.47-4-.35-3.34-.46-5.31-.28-4.14-.34-6.46-.1-4.81-.11-7.42c.05-5.23.31-11,.89-17s1.5-11.69,2.48-16.82c.53-2.56,1-5,1.58-7.25s1.08-4.36,1.61-6.27,1.05-3.61,1.5-5.11.88-2.79,1.25-3.83.63-1.82.84-2.4l.22-.63A1,1,0,0,1,430.25,337.79Z" style="fill:#455a64"></path><path d="M423.07,365.64a14.77,14.77,0,0,1,6.18-7.81,3.55,3.55,0,0,1,3.27-.6c1.39.67,1.5,2.62,1.09,4.11a10.91,10.91,0,0,1-4.5,6.13,9.18,9.18,0,0,1-6.76,1.71" style="fill:#455a64"></path><path d="M420.66,384.45c1-3.88,4.12-9.4,7.34-11.81a4.69,4.69,0,0,1,1.66-.89,2,2,0,0,1,1.79.39,2.74,2.74,0,0,1,.4,2.58,15.67,15.67,0,0,1-11.6,11.68" style="fill:#455a64"></path><path d="M420,401a22.71,22.71,0,0,1,7.4-9.31,3.52,3.52,0,0,1,2.59-.92c1.4.25,2,2,1.92,3.39-.26,2.93-2.5,5.28-4.8,7.1a29.81,29.81,0,0,1-6.85,3.52" style="fill:#455a64"></path><path d="M420.36,412.9a22.06,22.06,0,0,1,6.3-7.17,4.68,4.68,0,0,1,1.89-.85,1.94,1.94,0,0,1,1.86.71c.63.93,0,2.18-.65,3.08a18,18,0,0,1-9,6.59" style="fill:#455a64"></path><path d="M420.05,408.07a69.78,69.78,0,0,0-9-9.18c-.51-.43-1.16-.89-1.79-.68a1.34,1.34,0,0,0-.83,1.21,3.47,3.47,0,0,0,.34,1.51,17.49,17.49,0,0,0,11.6,9.76" style="fill:#455a64"></path><path d="M420.34,392.58,413.26,384a8.51,8.51,0,0,0-2.3-2.18,2.93,2.93,0,0,0-3,0,2.87,2.87,0,0,0-1,2.85,7.39,7.39,0,0,0,1.38,2.83,21.17,21.17,0,0,0,5.15,5.48c2.08,1.43,4,2.36,6.47,2" style="fill:#455a64"></path><path d="M421.32,375.15a24.72,24.72,0,0,0-7.12-10.7,4.23,4.23,0,0,0-1.86-1.08,3.12,3.12,0,0,0-3.24,2.28,5.84,5.84,0,0,0,.64,4.69,12.36,12.36,0,0,0,3.33,3.51,28.86,28.86,0,0,0,7.87,4.26" style="fill:#455a64"></path><path d="M424.15,359.6c-.68-5-3.29-9.17-6.31-13.21-.63-.86-1.52-1.76-2.57-1.6a2,2,0,0,0-1.48,1.27,4.81,4.81,0,0,0-.28,2,15.46,15.46,0,0,0,10,13.8" style="fill:#455a64"></path><path d="M426.13,351.66a41.66,41.66,0,0,1-.26-7.73,13.92,13.92,0,0,1,2.57-7.21,6,6,0,0,1,2.57-2.05,3.25,3.25,0,0,1,3.15.42,3.44,3.44,0,0,1,1.08,2.78,8.79,8.79,0,0,1-.79,3c-1.89,4.54-5,9.56-8.32,10.83" style="fill:#455a64"></path><path d="M395.3,357.62a4,4,0,0,1,0,.64c0,.46,0,1.06,0,1.81s0,1.75,0,2.87,0,2.4.14,3.8c.12,2.82.39,6.16.82,9.86s1.09,7.74,2,11.94,1.94,8.16,3,11.73,2.18,6.73,3.2,9.36c.48,1.32,1,2.49,1.4,3.53s.8,1.93,1.12,2.65l.71,1.67a5.86,5.86,0,0,1,.22.59,2.63,2.63,0,0,1-.31-.55l-.79-1.64c-.34-.71-.75-1.58-1.19-2.62s-1-2.19-1.46-3.51c-1.06-2.62-2.19-5.79-3.32-9.35s-2.15-7.54-3.05-11.76-1.49-8.28-1.93-12-.64-7.07-.72-9.89c-.07-1.41-.06-2.69-.07-3.81s0-2.09,0-2.88.05-1.35.07-1.82A2.64,2.64,0,0,1,395.3,357.62Z" style="fill:#263238"></path><path d="M396.41,378.13a10.55,10.55,0,0,1,2.52-6.65,2.54,2.54,0,0,1,2.1-1.11c1.09.16,1.59,1.46,1.62,2.56a7.72,7.72,0,0,1-1.74,5.15,6.54,6.54,0,0,1-4.23,2.61" style="fill:#263238"></path><path d="M398.81,391.45c-.14-2.86.78-7.28,2.46-9.61a3.34,3.34,0,0,1,.94-1,1.4,1.4,0,0,1,1.3-.12,2,2,0,0,1,.83,1.67A11.18,11.18,0,0,1,399,392.87" style="fill:#263238"></path><path d="M401.92,402.87a16.11,16.11,0,0,1,3-7.93,2.5,2.5,0,0,1,1.56-1.19c1-.13,1.81.9,2,1.9.46,2.05-.56,4.13-1.74,5.86a21.21,21.21,0,0,1-3.9,3.87" style="fill:#263238"></path><path d="M404.74,410.89a15.58,15.58,0,0,1,2.74-6.24,3.25,3.25,0,0,1,1.11-1,1.35,1.35,0,0,1,1.41.08c.63.49.49,1.48.22,2.23a12.82,12.82,0,0,1-4.7,6.43" style="fill:#263238"></path><path d="M403.48,407.67a49.59,49.59,0,0,0-8.11-4.31,1.43,1.43,0,0,0-1.37-.08,1,1,0,0,0-.3,1,2.42,2.42,0,0,0,.56,1,12.46,12.46,0,0,0,10,4.15" style="fill:#263238"></path><path d="M400.34,397.06l-6.67-4.35a6.18,6.18,0,0,0-2-1,2.07,2.07,0,0,0-2.07.63,2,2,0,0,0,0,2.14,5.38,5.38,0,0,0,1.55,1.64,15,15,0,0,0,4.69,2.62,6.18,6.18,0,0,0,4.83,0" style="fill:#263238"></path><path d="M397.26,385a17.61,17.61,0,0,0-7.15-5.75,2.93,2.93,0,0,0-1.5-.34,2.24,2.24,0,0,0-1.72,2.25,4.21,4.21,0,0,0,1.45,3.06,8.81,8.81,0,0,0,3,1.67,20,20,0,0,0,6.27,1.2" style="fill:#263238"></path><path d="M395.84,373.78c-1.54-3.25-4.21-5.53-7.14-7.63a2.15,2.15,0,0,0-2.09-.54,1.47,1.47,0,0,0-.74,1.18,3.5,3.5,0,0,0,.24,1.43,11,11,0,0,0,9.8,7.24" style="fill:#263238"></path><path d="M395.48,368a29,29,0,0,1-1.84-5.21,9.89,9.89,0,0,1,.2-5.45,4.18,4.18,0,0,1,1.31-2,2.3,2.3,0,0,1,2.23-.4,2.48,2.48,0,0,1,1.34,1.66,6.44,6.44,0,0,1,.09,2.19c-.31,3.5-1.37,7.59-3.33,9.16" style="fill:#263238"></path><path d="M445.57,357.19a2.54,2.54,0,0,1,.06.63c0,.46,0,1.06.07,1.81s.05,1.76,0,2.88,0,2.4-.07,3.81c-.08,2.82-.32,6.18-.72,9.89s-1.06,7.77-1.93,12-2,8.19-3.05,11.76-2.26,6.73-3.32,9.35c-.5,1.32-1,2.49-1.46,3.52s-.85,1.91-1.19,2.62-.59,1.22-.79,1.63a3,3,0,0,1-.31.56,5.38,5.38,0,0,1,.22-.6l.71-1.67c.32-.72.71-1.6,1.12-2.64s.92-2.21,1.4-3.54c1-2.62,2.11-5.8,3.2-9.35s2.12-7.53,3-11.73,1.5-8.26,2-11.95.7-7,.82-9.85c.1-1.41.1-2.68.14-3.8s0-2.09,0-2.87,0-1.36,0-1.82A3.91,3.91,0,0,1,445.57,357.19Z" style="fill:#455a64"></path><path d="M444.46,377.69a10.53,10.53,0,0,0-2.52-6.64,2.55,2.55,0,0,0-2.1-1.12c-1.09.16-1.59,1.47-1.62,2.57a7.69,7.69,0,0,0,1.74,5.14,6.55,6.55,0,0,0,4.23,2.62" style="fill:#455a64"></path><path d="M442.06,391c.14-2.87-.78-7.29-2.46-9.62a3.19,3.19,0,0,0-.94-1,1.37,1.37,0,0,0-1.3-.12,2,2,0,0,0-.83,1.66,11.18,11.18,0,0,0,5.39,10.45" style="fill:#455a64"></path><path d="M439,402.43a16.11,16.11,0,0,0-3-7.93,2.48,2.48,0,0,0-1.56-1.18c-1-.13-1.81.9-2,1.89-.46,2.05.56,4.13,1.74,5.87A21.21,21.21,0,0,0,438,405" style="fill:#455a64"></path><path d="M436.13,410.46a15.52,15.52,0,0,0-2.74-6.24,3.18,3.18,0,0,0-1.11-1,1.37,1.37,0,0,0-1.41.08c-.63.5-.49,1.48-.22,2.24a12.75,12.75,0,0,0,4.7,6.42" style="fill:#455a64"></path><path d="M437.39,407.23a50.37,50.37,0,0,1,8.11-4.31,1.46,1.46,0,0,1,1.37-.07,1,1,0,0,1,.3,1,2.49,2.49,0,0,1-.56.95,12.52,12.52,0,0,1-10,4.15" style="fill:#455a64"></path><path d="M440.53,396.62l6.67-4.35a6.38,6.38,0,0,1,2-1,2.1,2.1,0,0,1,2.07.63,2,2,0,0,1,0,2.15,5.24,5.24,0,0,1-1.55,1.63,14.75,14.75,0,0,1-4.69,2.62,6.18,6.18,0,0,1-4.83,0" style="fill:#455a64"></path><path d="M443.61,384.54a17.51,17.51,0,0,1,7.15-5.74,2.93,2.93,0,0,1,1.5-.34,2.24,2.24,0,0,1,1.72,2.25,4.18,4.18,0,0,1-1.45,3.05,9,9,0,0,1-3,1.68,20.32,20.32,0,0,1-6.27,1.2" style="fill:#455a64"></path><path d="M445,373.35c1.54-3.26,4.21-5.53,7.14-7.64.61-.44,1.41-.87,2.09-.53a1.45,1.45,0,0,1,.74,1.18,3.48,3.48,0,0,1-.24,1.42A11,11,0,0,1,445,375" style="fill:#455a64"></path><path d="M445.39,367.52a29.61,29.61,0,0,0,1.84-5.21,9.93,9.93,0,0,0-.2-5.46,4.23,4.23,0,0,0-1.31-2,2.32,2.32,0,0,0-2.23-.39,2.48,2.48,0,0,0-1.34,1.66,6.37,6.37,0,0,0-.09,2.18c.31,3.5,1.37,7.6,3.33,9.17" style="fill:#455a64"></path><path d="M386.8,417.64v8.42a3.31,3.31,0,0,0,3.31,3.31h57.58a3.32,3.32,0,0,0,3.32-3.31v-8.42Z" style="fill:#FF725E"></path><g style="opacity:0.4"><polygon points="391.79 429.37 392.27 432.05 445.4 435.83 446.75 429.37 391.79 429.37"></polygon></g></g><g id="freepik--Character--inject-10"><path d="M169.29,132.53c-3-4.69-.79-12.79-2.41-18.11s-1.4-8.61-4.87-12.91a27,27,0,0,0-13.29-8.25,25.49,25.49,0,0,0-20.55,4.59c-3,2.17-6,4.61-7.84,7.84-2.27,3.93-2.62,8.37-2.51,13l-.29-.3a13.12,13.12,0,0,0-7.62-2.47,6.66,6.66,0,0,0-3.67.88,3.48,3.48,0,0,0-1.69,3.2c.26,2,2.47,3,4.36,3.68a4.83,4.83,0,0,0,3.46,9c2.69-.75,4.12-3.52,5.81-5.87a30.74,30.74,0,0,1-1.29,11.38c-1.52,4.28-4.65,8.25-4.3,12.77.16,2,1,4.06.65,6.07-.62,3.11-4,4.85-5.54,7.6-2.11,3.64-.66,8.54,2.33,11.5s7.16,4.39,11.23,5.45c9.65,2.52,20.63,3.32,28.93-2.21l23.26-23.72C174.42,149.68,174.57,140.87,169.29,132.53Z" style="fill:#263238"></path><path d="M162.33,458.28l0,1.14s19.69,7.26,20,10.95l-38.66.92.22-12.88A22.17,22.17,0,0,0,162.33,458.28Z" style="fill:#FF725E"></path><g style="opacity:0.6000000000000001"><path d="M147.94,462.43a1.57,1.57,0,0,0-1,1.83,1.51,1.51,0,0,0,1.8,1.05,1.67,1.67,0,0,0,1.1-1.94,1.58,1.58,0,0,0-2-.89" style="fill:#fff"></path></g><g style="opacity:0.6000000000000001"><path d="M143.71,471.29l0-3.1,37,.25s1.74.71,1.57,1.93Z" style="fill:#fff"></path></g><path d="M162.5,459.53c0,.19-.94.3-1.85.92s-1.39,1.44-1.57,1.37.08-1.17,1.2-1.91S162.54,459.35,162.5,459.53Z" style="fill:#263238"></path><path d="M166.6,461.11c.05.18-.76.52-1.39,1.34s-.78,1.66-1,1.65-.34-1.06.46-2.06S166.59,460.93,166.6,461.11Z" style="fill:#263238"></path><path d="M169,465.91c-.17,0-.46-.89,0-1.94s1.34-1.48,1.42-1.32-.45.72-.82,1.58S169.2,465.89,169,465.91Z" style="fill:#263238"></path><path d="M120.12,256.17l64.27,14.6-1.21,8.14L164.79,424l-12.71-.29-1.31,10.71-20.14.3s-3-36.19-3.79-49.11-1.21-35.11-3.63-48.83S104.56,282.26,120.12,256.17Z" style="fill:#263238"></path><path d="M163.64,427.41c-.15,1.14-3,33.06-3,33.06H146.05l-2.56-32.93Z" style="fill:#eb996e"></path><path d="M150.77,433.51c-.14,1.14-3,33.06-3,33.06H133.19l-2.56-32.93Z" style="fill:#ffbe9d"></path><polygon points="167.05 418.05 165.16 428.35 151.01 428.18 151.32 418.22 167.05 418.05" style="fill:#455a64"></polygon><path d="M158.45,281.81a2,2,0,0,1,0,.37c0,.27,0,.63,0,1.09,0,1-.08,2.4-.14,4.19-.15,3.68-.36,8.94-.63,15.43-.58,13.05-1.38,31-2.26,50.89s-1.8,37.85-2.42,50.9c-.33,6.48-.6,11.74-.79,15.42-.1,1.79-.18,3.2-.24,4.19l-.08,1.09a2.24,2.24,0,0,1,0,.37,2.21,2.21,0,0,1,0-.38c0-.27,0-.63,0-1.09,0-1,.08-2.39.14-4.19.15-3.68.36-8.94.63-15.43.58-13.05,1.38-31,2.26-50.89s1.8-37.84,2.42-50.89c.33-6.48.6-11.75.79-15.42.1-1.79.18-3.2.24-4.19,0-.46.06-.82.08-1.09A2,2,0,0,1,158.45,281.81Z" style="fill:#455a64"></path><polygon points="153.52 427.41 151.63 437.71 129.45 437.71 127.88 427.75 153.52 427.41" style="fill:#455a64"></polygon><path d="M133.15,461.81s10.27,7.29,15.24,1l1.3,3.06,5.84,21.78a2.91,2.91,0,0,1-1.64,3.49,2.82,2.82,0,0,1-3-.57c-4.22-4-19.69-18.87-19.54-20.89l.06-5.34a2.74,2.74,0,0,1,1.73-2.51Z" style="fill:#FF725E"></path><g style="opacity:0.6000000000000001"><path d="M153.38,491.27l-22-23.47V469a3.26,3.26,0,0,0,1,2.58c1.79,2.4,6.72,7.78,18.42,19a2.78,2.78,0,0,0,2.56.72Z" style="fill:#fff"></path></g><g style="opacity:0.6000000000000001"><path d="M134.58,464.32a1.72,1.72,0,0,1,.48,2.23,1.65,1.65,0,0,1-2.21.5,1.81,1.81,0,0,1-.49-2.37,1.71,1.71,0,0,1,2.35-.26" style="fill:#fff"></path></g><path d="M147,479.25c.16.08.77-1.37,2.41-2.15a8.65,8.65,0,0,1,3.17-.62c0-.07-.32-.28-1-.37a4.38,4.38,0,0,0-2.47.45,4.47,4.47,0,0,0-1.85,1.69C147,478.82,147,479.23,147,479.25Z" style="fill:#263238"></path><path d="M149,482.94a19.63,19.63,0,0,1,2.44-1.2,21.84,21.84,0,0,1,2.69-.36c.08-.14-1.25-.72-2.87-.22S148.87,482.86,149,482.94Z" style="fill:#263238"></path><path d="M143.36,474.54c.13.13,1.48-1.27,3.63-2.1a26.46,26.46,0,0,1,4.09-1c0-.15-2-.53-4.31.4S143.22,474.46,143.36,474.54Z" style="fill:#263238"></path><path d="M142.87,467.91c.07.16,1.59-.48,3.57-.56s3.56.39,3.62.22-1.51-.94-3.64-.83S142.78,467.78,142.87,467.91Z" style="fill:#263238"></path><path d="M147.57,467.29a2.25,2.25,0,0,0-.15-1,7.27,7.27,0,0,0-1.32-2.54,3.29,3.29,0,0,0-1.63-1.25,1.16,1.16,0,0,0-1.22.48,1.89,1.89,0,0,0-.2,1.31,4,4,0,0,0,4.12,3,4.64,4.64,0,0,0,4-3.22,1.62,1.62,0,0,0-.17-1.33,1.13,1.13,0,0,0-1.26-.37,3.92,3.92,0,0,0-1.61,1.27,8,8,0,0,0-1.45,2.45,2.17,2.17,0,0,0-.24,1,12.52,12.52,0,0,1,2-3.18,3.65,3.65,0,0,1,1.43-1.06.6.6,0,0,1,.69.19,1.12,1.12,0,0,1,.06.88,4.13,4.13,0,0,1-3.52,2.75,3.47,3.47,0,0,1-3.54-2.48,1.39,1.39,0,0,1,.1-.92.63.63,0,0,1,.67-.28,3,3,0,0,1,1.4,1A10.45,10.45,0,0,1,147.57,467.29Z" style="fill:#263238"></path><path d="M251.81,167.41s5.39-7.7,6.56-8.35,11.09-2.61,11.85-2.24,11.81,4.1,10.3,5.24-9.21-1.55-9.21-1.55l-1.14.36s6.67,2.16,8,3.22.49,2.53-.74,2.2-7-2.41-7.39-2.22,6.22,2.62,6.88,3.17c.9.74.73,2.51-.51,2.23-.73-.17-6.9-2.84-6.9-2.84a57,57,0,0,1,5.2,3.29c.65.85-.13,1.86-1.2,1.45-.73-.29-4.07-2.57-5.05-3,0,0-1,.1-2.15,1.89s-6.8,5.49-6.8,5.49L255.7,178l-6.4-8.86Z" style="fill:#ffbe9d"></path><path d="M254.39,167.94a2.29,2.29,0,0,0,2.64.41c.88-.36,1.62-1,2.48-1.44,2.56-1.26,5.83-.36,8.33-1.74.35-.2.72-.54.6-.93s-.54-.46-.91-.5l-9.39-1.24" style="fill:#ffbe9d"></path><path d="M258.14,162.5a3.57,3.57,0,0,1,1,0l2.78.29,4.12.48,1.18.15a1.84,1.84,0,0,1,1.33.5.78.78,0,0,1,0,.89,1.6,1.6,0,0,1-.56.54,6.91,6.91,0,0,1-1.29.54,37.51,37.51,0,0,1-5.07.62,7.1,7.1,0,0,0-2.05.58c-.61.28-1.13.66-1.65,1a3.36,3.36,0,0,1-2.78.52c-.67-.25-.84-.66-.81-.65a2.72,2.72,0,0,0,.87.44,3.23,3.23,0,0,0,2.52-.64,18.49,18.49,0,0,1,1.65-1,7.4,7.4,0,0,1,2.18-.66,43.36,43.36,0,0,0,5-.65,6.13,6.13,0,0,0,1.17-.49c.34-.19.54-.5.39-.65s-.56-.25-1-.3l-1.19-.17-4.1-.6c-1.16-.17-2.11-.33-2.76-.45A4,4,0,0,1,258.14,162.5Z" style="fill:#eb996e"></path><path d="M280.49,162.09a5.55,5.55,0,0,1-2.16.25,12.74,12.74,0,0,1-2.35-.27c-.86-.23-1.78-.52-2.76-.81l-2.07-.64h.13a32.1,32.1,0,0,1-5.14.77,30.62,30.62,0,0,1,5-1.28h.06l.07,0,2.06.61,2.72.84a15,15,0,0,0,2.26.38C279.66,162.07,280.48,162,280.49,162.09Z" style="fill:#eb996e"></path><path d="M169.7,153.58s12.08-.65,18.15,2.33,32.81,21.37,32.81,21.37l27.4-10.15,9.7,13.15L234,197.58a20.17,20.17,0,0,1-19.26,1.83L184,187.2Z" style="fill:#FF725E"></path><path d="M222.24,190.19a6,6,0,0,1-.92-1.74,18,18,0,0,1-1.15-4.63,17.56,17.56,0,0,1,.13-4.76,6.23,6.23,0,0,1,.52-1.91,34.07,34.07,0,0,0-.18,6.62A34.15,34.15,0,0,0,222.24,190.19Z" style="fill:#263238"></path><g style="opacity:0.30000000000000004"><path d="M220.57,177.46c-1.13,1-1.37,2.63-1.46,4.13a39.7,39.7,0,0,0,.17,6.72,8.75,8.75,0,0,0,.95,3.53,1.67,1.67,0,0,0,1,.88c.78.18,1.48-.66,1.5-1.47A5,5,0,0,0,222,189a16.67,16.67,0,0,1-1.39-10.87"></path></g><path d="M127.13,158.37c-.59.2-7.08,4.42-12.19,7.78a8.81,8.81,0,0,0-3.2,10.94l12.68,28.5,4.44,17.27-14.39,37.82,1,4.2,68.93,5.89,3.36-7.92-4-36v-45.2l-11-28.17-18.94.24Z" style="fill:#FF725E"></path><g style="opacity:0.30000000000000004"><path d="M181.08,155.6a2.16,2.16,0,0,1,2,1.27,6.37,6.37,0,0,1,.51,2.49c.81,12.24.34,27.2.15,39.77l.86,38.77c-3.68-6.86-4-15-4.34-22.72q-.37-10.49-.77-21c-.43-11.6.14-23.2-.29-34.8C179.18,157.86,179.53,155.79,181.08,155.6Z"></path></g><g style="opacity:0.30000000000000004"><path d="M120.77,243.75c.37-1.22,1.33-3.49,1.33-3.49,3.48-5.69,6.13-15.09,5.71-21.74,0,0-1.63-6.87-3.39-13.31L122.57,201l.12.06c3.11,1.43,5,5.69,5.44,9.08s.85,7.27,3.43,9.6c1.69,1.54,4.06,2.12,5.9,3.48a8.51,8.51,0,0,1,3.41,6.94c0,1.12-.23,2.43.58,3.22,1,.94,2.51.45,3.76,0s2.94-.72,3.63.42a2.25,2.25,0,0,1-.73,2.71,19.06,19.06,0,0,1-2.64,1.52c-2.17,1.31-3.41,3.71-5.24,5.46-3.63,3.5-9.08,4.11-14.1,4.53-1.48.13-3.16.18-4.21-.87A3.57,3.57,0,0,1,120.77,243.75Z"></path></g><path d="M115,271.1c0-.09,1.23.27,3.2.59a28.59,28.59,0,0,0,7.77.15,28.27,28.27,0,0,0,7.52-2c1.84-.77,2.92-1.4,3-1.32s-.23.21-.71.52a17.89,17.89,0,0,1-2.1,1.14,25.15,25.15,0,0,1-15.51,1.85,17.08,17.08,0,0,1-2.31-.62A3,3,0,0,1,115,271.1Z" style="fill:#455a64"></path><path d="M159,233.68l-.36-.55s2.1,2.88,1.25,5.2a2.61,2.61,0,0,1-.56.92,3.74,3.74,0,0,1-5.54,3.29,1.55,1.55,0,0,1-1-1.49,2,2,0,0,1,.51-.85,2.78,2.78,0,0,0,.31-.43l-2.57-.5s-6.23-.38-7.91-3.71c-.27-.53-13.63.52-13.63.52l1-15.07,22.36,3s15.83,1.83,17.37,1.82a1.53,1.53,0,0,1,1.7,1.84c-.06,1-.83,1.42-2.36,1.48-.52,0-10,.33-10,.33h0c.8,1.18,1.82,3.08.57,3.77Z" style="fill:#ffbe9d"></path><path d="M154.46,235.46c0-.07.43-.08,1.13,0a5.74,5.74,0,0,1,2.61.88,3.07,3.07,0,0,1,1.44,2.38c0,.75-.29,1.14-.34,1.11s.08-.44,0-1.07a3,3,0,0,0-1.36-2,7.36,7.36,0,0,0-2.39-.95C154.86,235.65,154.44,235.53,154.46,235.46Z" style="fill:#eb996e"></path><path d="M154.65,230.75c0-.06.52-.07,1.29.19a6.37,6.37,0,0,1,2.66,1.73,6.25,6.25,0,0,1,1.48,2.79c.19.8.14,1.31.08,1.31a10.88,10.88,0,0,0-1.95-3.75A10.72,10.72,0,0,0,154.65,230.75Z" style="fill:#eb996e"></path><path d="M156.47,228.36c0-.14.91-.2,1.92.2s1.65,1,1.56,1.14-.81-.3-1.75-.66S156.46,228.5,156.47,228.36Z" style="fill:#eb996e"></path><path d="M156.31,240.57c-.12.07-.51-.39-1.17-.6s-1.25-.08-1.31-.22.6-.56,1.47-.27S156.46,240.53,156.31,240.57Z" style="fill:#eb996e"></path><path d="M122.9,200.52l-6.4,16.92,23.85,3.62-1.18,20.21-32.78-1.39c-8.2-.34-15.12-6.75-15.48-15,0-.35,0-.71,0-1.08.13-6,10.62-33.24,15.43-47.31a19.53,19.53,0,0,1,8.32-10.18h0Z" style="fill:#FF725E"></path><path d="M139.17,241.27a10.13,10.13,0,0,1,0-1.54c.05-1.07.1-2.5.18-4.25.19-3.69.45-8.71.75-14.43l.22.27-5-.72c-6.91-1-13.15-1.94-17.67-2.64l-5.34-.86-1.45-.26a1.82,1.82,0,0,1-.5-.13,2.18,2.18,0,0,1,.51,0l1.47.16,5.36.69c4.54.61,10.79,1.49,17.69,2.5l5,.72.23,0v.23c-.37,5.71-.7,10.73-.93,14.42-.14,1.74-.25,3.17-.33,4.24A8,8,0,0,1,139.17,241.27Z" style="fill:#263238"></path><path d="M115.13,174.52s.27.19.69.61a18.65,18.65,0,0,1,1.65,1.89,27.08,27.08,0,0,1,5.58,15.38,17.28,17.28,0,0,1,0,2.51,3.43,3.43,0,0,1-.13.91c-.1,0,0-1.31-.19-3.4a30.21,30.21,0,0,0-5.51-15.18C116,175.53,115.06,174.58,115.13,174.52Z" style="fill:#263238"></path><path d="M183.37,183.22a14.17,14.17,0,0,1,0-2.58c.06-1.59.13-3.79.14-6.21s-.06-4.62-.11-6.21a16,16,0,0,1,0-2.58,11,11,0,0,1,.37,2.56c.15,1.59.26,3.79.26,6.23s-.14,4.64-.29,6.23A11.46,11.46,0,0,1,183.37,183.22Z" style="fill:#263238"></path><path d="M129,251.51a11.93,11.93,0,0,1,1.64.62c1,.44,2.55,1.05,4.42,1.78A141,141,0,0,0,150,258.74a138.2,138.2,0,0,0,15.4,3.06c2,.28,3.61.48,4.73.61a12.44,12.44,0,0,1,1.73.25,10.08,10.08,0,0,1-1.75-.05c-1.13-.06-2.75-.21-4.76-.44a118.09,118.09,0,0,1-15.49-2.93,116.22,116.22,0,0,1-15-5c-1.86-.77-3.35-1.43-4.37-1.93A10,10,0,0,1,129,251.51Z" style="fill:#263238"></path><path d="M172.37,190.66a1,1,0,1,0,1-1A1,1,0,0,0,172.37,190.66Z" style="fill:#263238"></path><path d="M240.35,183.22a1,1,0,1,0,1-1A1,1,0,0,0,240.35,183.22Z" style="fill:#263238"></path><path d="M208.78,179.47a1,1,0,1,0,1.91,0,1,1,0,0,0-1.91,0Z" style="fill:#263238"></path><path d="M192.39,165.64a1,1,0,1,0,1-1A1,1,0,0,0,192.39,165.64Z" style="fill:#263238"></path><path d="M170.12,205.18a1,1,0,1,0,1-1A1,1,0,0,0,170.12,205.18Z" style="fill:#263238"></path><path d="M227.8,180.43a1,1,0,1,0,1-1A1,1,0,0,0,227.8,180.43Z" style="fill:#263238"></path><path d="M213.73,195.82a1,1,0,1,0,1.91,0,1,1,0,0,0-1.91,0Z" style="fill:#263238"></path><path d="M150.87,193.91a1,1,0,1,0,1-1A1,1,0,0,0,150.87,193.91Z" style="fill:#263238"></path><circle cx="147.08" cy="179.47" r="0.96" style="fill:#263238"></circle><path d="M164.14,173.46a1,1,0,1,0,1-1A1,1,0,0,0,164.14,173.46Z" style="fill:#263238"></path><path d="M196,180.43a1,1,0,1,0,1-1A1,1,0,0,0,196,180.43Z" style="fill:#263238"></path><circle cx="168.74" cy="160.86" r="0.96" style="fill:#263238"></circle><circle cx="134.58" cy="183.22" r="0.96" style="fill:#263238"></circle><path d="M150.87,212.2a1,1,0,1,0,1-1A1,1,0,0,0,150.87,212.2Z" style="fill:#263238"></path><circle cx="178.23" cy="261.49" r="0.96" style="fill:#263238"></circle><circle cx="152.79" cy="249.08" r="0.96" style="fill:#263238"></circle><path d="M124.41,259.73a1,1,0,1,0,1-1A1,1,0,0,0,124.41,259.73Z" style="fill:#263238"></path><path d="M159.59,239.68a1,1,0,1,0,1-1A1,1,0,0,0,159.59,239.68Z" style="fill:#263238"></path><circle cx="109.81" cy="181.11" r="0.96" style="fill:#263238"></circle><path d="M108.85,229a1,1,0,1,0,1-1A1,1,0,0,0,108.85,229Z" style="fill:#263238"></path><path d="M124.41,234.79a1,1,0,1,0,1-1A1,1,0,0,0,124.41,234.79Z" style="fill:#263238"></path><path d="M132.67,223.74a1,1,0,0,0,1.91,0,1,1,0,1,0-1.91,0Z" style="fill:#263238"></path><path d="M114.08,193.91a1,1,0,1,0,1-1A1,1,0,0,0,114.08,193.91Z" style="fill:#263238"></path><circle cx="178.23" cy="245.17" r="0.96" style="fill:#263238"></circle><circle cx="102.01" cy="207.88" r="0.96" style="fill:#263238"></circle><path d="M95.94,223.74a1,1,0,1,0,1-1A1,1,0,0,0,95.94,223.74Z" style="fill:#263238"></path><path d="M132.67,200.09a1,1,0,0,0,1.91,0,1,1,0,1,0-1.91,0Z" style="fill:#263238"></path><g style="opacity:0.30000000000000004"><path d="M137.91,164.25c-.59-1.84-1.4-2.21-3.15-3.05a32.62,32.62,0,0,1-6.09-3.89L120,162.82c-1,3.69-1.09,8,.68,11.33s5.59,5.81,9.35,5.22a9.45,9.45,0,0,0,5.95-3.85,16.79,16.79,0,0,0,2.77-6.65C139.05,167.62,138.29,165.46,137.91,164.25Z"></path></g><path d="M163,112.35c-1.09-6.53-6.27-14.14-12.75-12.77l-19.9,7.27a3.86,3.86,0,0,0-3,4.26l7.26,49.06-.14,0s6.05,13.43,19.14,7.83c2.59-1.12,3.52-4.17,3.75-7.24h.14c0-.36-.06-.69-.09-1a32.43,32.43,0,0,0-.61-6.77h0c-.36-4-.53-5.62-.52-5.58s8.25-2.26,8.86-13.39C165.35,128.5,164.16,119.6,163,112.35Z" style="fill:#ffbe9d"></path><path d="M160.91,120.09a1.41,1.41,0,0,1-1.21,1.55,1.35,1.35,0,0,1-1.57-1.12,1.4,1.4,0,0,1,1.2-1.55A1.35,1.35,0,0,1,160.91,120.09Z" style="fill:#263238"></path><path d="M161.49,117.19c-.15.2-1.3-.47-2.81-.31s-2.54,1-2.72.86,0-.43.5-.83a3.83,3.83,0,0,1,2.15-.91,3.75,3.75,0,0,1,2.27.48C161.38,116.79,161.57,117.1,161.49,117.19Z" style="fill:#263238"></path><path d="M146.67,121.86a1.42,1.42,0,0,1-1.21,1.56,1.35,1.35,0,0,1-1.57-1.12,1.41,1.41,0,0,1,1.2-1.56A1.35,1.35,0,0,1,146.67,121.86Z" style="fill:#263238"></path><path d="M146.67,119c-.16.2-1.3-.47-2.81-.31s-2.54,1-2.73.86.06-.42.5-.83a3.93,3.93,0,0,1,2.16-.91,3.71,3.71,0,0,1,2.26.48C146.55,118.6,146.74,118.91,146.67,119Z" style="fill:#263238"></path><path d="M153.3,129.65a9.76,9.76,0,0,1,2.41-.7c.38-.08.74-.19.78-.46a2,2,0,0,0-.38-1.12q-.68-1.35-1.44-2.82c-2-4-3.52-7.34-3.35-7.42s1.93,3.11,3.94,7.13c.49,1,1,1.94,1.4,2.84a2.26,2.26,0,0,1,.35,1.5,1,1,0,0,1-.57.63,3.22,3.22,0,0,1-.65.16A10.22,10.22,0,0,1,153.3,129.65Z" style="fill:#263238"></path><path d="M156.19,147.42a28.06,28.06,0,0,1-15.07-2.4s4.33,7.15,15.19,5Z" style="fill:#eb996e"></path><path d="M153,133.35a2.74,2.74,0,0,0-2.54-.76,2.56,2.56,0,0,0-1.63,1.1,1.57,1.57,0,0,0,.07,1.81,1.82,1.82,0,0,0,2,.3,5.8,5.8,0,0,0,1.81-1.35,1.66,1.66,0,0,0,.39-.49.51.51,0,0,0-.06-.56" style="fill:#eb996e"></path><path d="M149,131.15c.24,0,.41,1.6,1.94,2.62s3.25.66,3.28.89-.35.35-1.09.45a4.06,4.06,0,0,1-2.73-.65,3.59,3.59,0,0,1-1.53-2.21C148.71,131.58,148.85,131.15,149,131.15Z" style="fill:#263238"></path><path d="M147.07,116.29c-.1.42-1.63.39-3.38.78s-3.14,1-3.41.68c-.12-.16.09-.57.62-1a5.82,5.82,0,0,1,2.46-1.16,6,6,0,0,1,2.72,0C146.76,115.8,147.12,116.09,147.07,116.29Z" style="fill:#263238"></path><path d="M160.49,112.88c-.24.37-1.31.12-2.57.23s-2.28.47-2.57.14c-.12-.17,0-.53.44-.9a3.54,3.54,0,0,1,2-.78,3.59,3.59,0,0,1,2.11.48C160.4,112.36,160.59,112.7,160.49,112.88Z" style="fill:#263238"></path><path d="M152.71,96.8A13.26,13.26,0,0,1,164,109.16l-6.22.31-1.29-3.24c.76,2-.68,4.34-2.61,5.32s-4.2,1-6.37.92l-.4-2.78a5.29,5.29,0,0,1-3.22,4.3,15.93,15.93,0,0,1-5.49,1.15,15.24,15.24,0,0,0-5.49,1.17,11.66,11.66,0,0,1,.92-10.76,17,17,0,0,1,8.73-6.77,31.19,31.19,0,0,1,11.08-1.61" style="fill:#263238"></path><path d="M121.78,164c.6-3.2,1.68-6.42,1.19-9.63-.46-3-2.21-6-1.09-8.76a5.09,5.09,0,0,1,4.24-2.93c-4.2-6.86-4.84-15.54-4.54-23.69a29.54,29.54,0,0,1,1.08-7.84,11.57,11.57,0,0,1,4.52-6.33,7.3,7.3,0,0,1,7.52-.38l1.73.14a17.2,17.2,0,0,1-.57,12.77c-.67,1.47-1.57,2.91-1.67,4.52-.19,3.44,3.28,6.21,3.28,9.64,0,2.71-1.23,5.28-2.47,7.69-.79,1.52-1.08,2.41.27,4.19.81,1.07,6.7,15.62,2.27,23.76a11.36,11.36,0,0,1-4.58,7c-3,1.9-7.28,1.76-9.63-.84C121.15,170.87,121.17,167.2,121.78,164Z" style="fill:#263238"></path></g><g id="freepik--Device--inject-10"><path d="M341.05,429.53,211,429.45a28.33,28.33,0,0,1-28.32-28.33L182.74,75a28.32,28.32,0,0,1,28.35-28.32l130.06.07a28.34,28.34,0,0,1,28.32,28.34l-.07,326.08A28.32,28.32,0,0,1,341.05,429.53Z" style="fill:#263238"></path><path d="M341,58.33l-25.21,0a6.27,6.27,0,0,0-6.13,6.4v4.57a6.26,6.26,0,0,1-6.12,6.4l-49.16,0a6.27,6.27,0,0,1-6.12-6.4V64.67a6.27,6.27,0,0,0-6.12-6.4H211.21a19.85,19.85,0,0,0-19.86,19.84l-.06,318.27a19.85,19.85,0,0,0,19.83,19.85l129.81.07a19.83,19.83,0,0,0,19.85-19.83l.06-318.28A19.83,19.83,0,0,0,341,58.33Z" style="fill:#fff"></path><path d="M208.11,132.15h-1.83v-.48h4.21v.48h-1.83v4.72h-.55Z" style="fill:#263238"></path><path d="M210.45,134.92a2,2,0,1,1,2,2A1.92,1.92,0,0,1,210.45,134.92Zm3.44,0a1.46,1.46,0,1,0-1.45,1.52A1.43,1.43,0,0,0,213.89,134.92Z" style="fill:#263238"></path><path d="M219.06,131.36v5.51h-.5v-.77a1.69,1.69,0,0,1-1.51.81,2,2,0,0,1,0-4,1.72,1.72,0,0,1,1.49.78v-2.35Zm-.52,3.56a1.45,1.45,0,1,0-1.45,1.52A1.43,1.43,0,0,0,218.54,134.92Z" style="fill:#263238"></path><path d="M223.48,134.45v2.42H223v-.61a1.48,1.48,0,0,1-1.35.65c-.88,0-1.43-.46-1.43-1.14s.39-1.11,1.51-1.11H223v-.23a1,1,0,0,0-1.1-1,2,2,0,0,0-1.3.46l-.24-.39a2.49,2.49,0,0,1,1.59-.53A1.39,1.39,0,0,1,223.48,134.45ZM223,135.7v-.64h-1.22c-.76,0-1,.3-1,.7s.37.73,1,.73A1.24,1.24,0,0,0,223,135.7Z" style="fill:#263238"></path><path d="M228.12,133l-2,4.38c-.33.76-.74,1-1.3,1a1.34,1.34,0,0,1-1-.36l.24-.39a1,1,0,0,0,.72.3c.35,0,.58-.17.81-.66l.17-.38-1.75-3.9h.55l1.47,3.32L227.6,133Z" style="fill:#263238"></path><path d="M267.73,95.09h1.62v5.69h3.52v1.33h-5.14Z" style="fill:#263238"></path><path d="M273.49,95.09a.89.89,0,0,1,1-.87.88.88,0,0,1,1,.84,1,1,0,0,1-1.94,0Zm.19,1.62h1.56v5.4h-1.56Z" style="fill:#263238"></path><path d="M276.18,101.61l.52-1.13a3.69,3.69,0,0,0,1.87.53c.72,0,1-.2,1-.5,0-.88-3.25,0-3.25-2.13,0-1,.92-1.75,2.49-1.75a4.35,4.35,0,0,1,2.08.48l-.52,1.11a3.15,3.15,0,0,0-1.56-.4c-.7,0-1,.22-1,.5,0,.92,3.26,0,3.26,2.15,0,1-.93,1.72-2.55,1.72A4.62,4.62,0,0,1,276.18,101.61Z" style="fill:#263238"></path><path d="M285.5,101.85a2.23,2.23,0,0,1-1.27.34,1.78,1.78,0,0,1-2-1.94V98h-.83V96.83h.83V95.52h1.57v1.31h1.34V98h-1.34v2.19a.63.63,0,0,0,.67.71,1.05,1.05,0,0,0,.63-.2Z" style="fill:#263238"></path><path d="M344.67,94.49c0,.09-3.28.18-7.32.22s-7.33,0-7.33-.1,3.28-.18,7.33-.22S344.67,94.4,344.67,94.49Z" style="fill:#263238"></path><path d="M344.7,98.24c0,.08-3.27.18-7.32.22s-7.33,0-7.33-.1,3.28-.18,7.33-.22S344.7,98.15,344.7,98.24Z" style="fill:#263238"></path><path d="M344.73,102c0,.08-3.27.18-7.32.21s-7.32,0-7.33-.09,3.28-.19,7.33-.22S344.73,101.9,344.73,102Z" style="fill:#263238"></path><path d="M207.83,103.09a.35.35,0,0,1-.25-.1l-3.16-3.12a.35.35,0,0,1-.1-.26.36.36,0,0,1,.11-.25l3.15-3.06a.36.36,0,0,1,.5.51l-2.9,2.81,2.9,2.87a.35.35,0,0,1-.25.6Z" style="fill:#263238"></path><path d="M230.86,163.94c0,1.06-.76,1.69-2,1.69h-1.32v1.56H227v-4.94h1.85C230.1,162.25,230.86,162.89,230.86,163.94Zm-.52,0c0-.79-.52-1.24-1.51-1.24h-1.31v2.47h1.31C229.82,165.17,230.34,164.72,230.34,163.94Z" style="fill:#263238"></path><path d="M233.66,163.45v.49h-.12a1.21,1.21,0,0,0-1.25,1.37v1.89h-.5v-3.71h.48v.73A1.4,1.4,0,0,1,233.66,163.45Z" style="fill:#263238"></path><path d="M234.16,165.34a1.89,1.89,0,1,1,1.89,1.89A1.82,1.82,0,0,1,234.16,165.34Zm3.27,0a1.38,1.38,0,1,0-1.38,1.44A1.36,1.36,0,0,0,237.43,165.34Z" style="fill:#263238"></path><path d="M237.62,168.36l.18-.38a.85.85,0,0,0,.58.19c.39,0,.61-.24.61-.7v-4h.5v4a1,1,0,0,1-1.08,1.13A1.26,1.26,0,0,1,237.62,168.36Zm1.26-6.05a.37.37,0,0,1,.37-.36.36.36,0,0,1,.36.35.36.36,0,0,1-.36.37A.37.37,0,0,1,238.88,162.31Z" style="fill:#263238"></path><path d="M244.13,165.49H241a1.37,1.37,0,0,0,1.46,1.29,1.48,1.48,0,0,0,1.14-.48l.28.32a1.81,1.81,0,0,1-1.43.61,1.84,1.84,0,0,1-1.95-1.89,1.79,1.79,0,0,1,1.81-1.89,1.77,1.77,0,0,1,1.8,1.89Zm-3.11-.37h2.63a1.32,1.32,0,0,0-2.63,0Z" style="fill:#263238"></path><path d="M244.78,165.34a1.83,1.83,0,0,1,1.91-1.89,1.65,1.65,0,0,1,1.46.73l-.38.26a1.23,1.23,0,0,0-1.08-.55,1.45,1.45,0,0,0,0,2.89,1.22,1.22,0,0,0,1.08-.54l.38.26a1.65,1.65,0,0,1-1.46.73A1.83,1.83,0,0,1,244.78,165.34Z" style="fill:#263238"></path><path d="M251.13,167a1.19,1.19,0,0,1-.79.26,1,1,0,0,1-1.08-1.08V163.9h-.67v-.42h.67v-.81h.5v.81h1.13v.42h-1.13v2.22a.59.59,0,0,0,.64.68.8.8,0,0,0,.55-.19Z" style="fill:#263238"></path><path d="M253.55,164.72a2.48,2.48,0,0,1,2.6-2.51,2.37,2.37,0,0,1,1.8.72l-.33.33a2,2,0,0,0-1.46-.59,2.05,2.05,0,1,0,0,4.1,2,2,0,0,0,1.46-.59l.33.33a2.38,2.38,0,0,1-1.81.73A2.49,2.49,0,0,1,253.55,164.72Z" style="fill:#263238"></path><path d="M259,162h.5v5.24H259Z" style="fill:#263238"></path><path d="M260.75,162.31a.36.36,0,0,1,.36-.36.36.36,0,0,1,.37.35.37.37,0,1,1-.73,0Zm.11,1.17h.5v3.71h-.5Z" style="fill:#263238"></path><path d="M266,165.49h-3.1a1.37,1.37,0,0,0,1.46,1.29,1.5,1.5,0,0,0,1.14-.48l.28.32a1.82,1.82,0,0,1-1.44.61,1.84,1.84,0,0,1-1.95-1.89,1.79,1.79,0,0,1,1.82-1.89,1.77,1.77,0,0,1,1.8,1.89S266,165.44,266,165.49Zm-3.1-.37h2.63a1.32,1.32,0,0,0-2.63,0Z" style="fill:#263238"></path><path d="M270.44,165v2.15h-.5v-2.1a1,1,0,0,0-1.12-1.19,1.22,1.22,0,0,0-1.3,1.34v1.95H267v-3.71h.48v.68a1.56,1.56,0,0,1,1.41-.71A1.42,1.42,0,0,1,270.44,165Z" style="fill:#263238"></path><path d="M273.76,167a1.19,1.19,0,0,1-.79.26,1,1,0,0,1-1.08-1.08V163.9h-.67v-.42h.67v-.81h.5v.81h1.13v.42h-1.13v2.22a.59.59,0,0,0,.64.68.82.82,0,0,0,.55-.19Z" style="fill:#263238"></path><path d="M218,165.05a4.27,4.27,0,1,1-4.27-4.27A4.27,4.27,0,0,1,218,165.05Z" style="fill:#FF725E"></path><path d="M213.26,166.37a.27.27,0,0,1-.17-.06l-1.17-1.07a.26.26,0,0,1,0-.36.24.24,0,0,1,.35,0l1,.9,1.87-2a.25.25,0,1,1,.36.34l-2,2.15A.26.26,0,0,1,213.26,166.37Z" style="fill:#fff"></path><path d="M349.17,182.34s.32,0,.93-.12a5,5,0,0,0,2.43-1.2,5.16,5.16,0,0,0,1.75-3.93q0-2.67,0-6.14t0-7.68c0-1.4,0-2.87,0-4.39,0-.77,0-1.54,0-2.33a15.87,15.87,0,0,0-.09-2.39,5,5,0,0,0-3-3.69,5.85,5.85,0,0,0-2.55-.4h-2.75l-11.77,0-129,.08a4.94,4.94,0,0,0-3.88,1.89,5,5,0,0,0-.94,2,11.32,11.32,0,0,0-.11,2.28V177a5.11,5.11,0,0,0,.39,2.09,5,5,0,0,0,3.06,2.77,6.2,6.2,0,0,0,2.12.22h32l58,.05,39.1.09,10.63,0,2.77,0,.94,0s-.32,0-.94,0l-2.77,0-10.63.05-39.1.08-58,.06h-32a6.82,6.82,0,0,1-2.27-.24,5.53,5.53,0,0,1-3.38-3.06,5.66,5.66,0,0,1-.44-2.29V156.34a12.16,12.16,0,0,1,.12-2.39,5.46,5.46,0,0,1,5.33-4.3l129,.07,11.77,0h2.75a6.27,6.27,0,0,1,2.68.43,5.39,5.39,0,0,1,3.13,3.93,14.42,14.42,0,0,1,.09,2.44v2.33c0,1.52,0,3,0,4.39q0,4.22,0,7.68t0,6.14a5.23,5.23,0,0,1-1.83,4,5.11,5.11,0,0,1-2.49,1.18,4.33,4.33,0,0,1-.7.06Z" style="fill:#FF725E"></path><path d="M276.65,173.31c0,.15-11.07.26-24.72.26s-24.74-.11-24.74-.26,11.07-.26,24.74-.26S276.65,173.17,276.65,173.31Z" style="fill:#e0e0e0"></path><path d="M335.79,165.33a.21.21,0,0,1-.05.13L334.18,167a.19.19,0,0,1-.26,0l-1.53-1.58a.18.18,0,0,1,.26-.25l1.4,1.45,1.44-1.45a.18.18,0,0,1,.25,0A.18.18,0,0,1,335.79,165.33Z" style="fill:#FF725E"></path><path d="M227,203.54v-2.83h.52v2.81c0,1.17.55,1.71,1.51,1.71s1.52-.54,1.52-1.71v-2.81H231v2.83a2,2,0,1,1-4.06,0Z" style="fill:#263238"></path><path d="M236.24,203.8a1.8,1.8,0,0,1-1.85,1.89A1.62,1.62,0,0,1,233,205V207h-.5v-5.09H233v.73a1.62,1.62,0,0,1,1.43-.76A1.8,1.8,0,0,1,236.24,203.8Zm-.5,0a1.39,1.39,0,1,0-1.38,1.44A1.36,1.36,0,0,0,235.74,203.8Z" style="fill:#263238"></path><path d="M240.65,200.41v5.24h-.48v-.73a1.61,1.61,0,0,1-1.43.77,1.89,1.89,0,0,1,0-3.78,1.62,1.62,0,0,1,1.41.73v-2.23Zm-.49,3.39a1.38,1.38,0,1,0-1.38,1.44A1.36,1.36,0,0,0,240.16,203.8Z" style="fill:#263238"></path><path d="M244.85,203.35v2.3h-.48v-.57a1.39,1.39,0,0,1-1.28.61c-.84,0-1.35-.44-1.35-1.08s.37-1.05,1.43-1.05h1.18v-.23c0-.64-.36-1-1-1a1.91,1.91,0,0,0-1.24.44l-.22-.38a2.33,2.33,0,0,1,1.51-.5A1.32,1.32,0,0,1,244.85,203.35Zm-.5,1.19v-.61h-1.16c-.72,0-1,.28-1,.67s.35.69.94.69A1.18,1.18,0,0,0,244.35,204.54Z" style="fill:#263238"></path><path d="M248.17,205.43a1.17,1.17,0,0,1-.78.26,1,1,0,0,1-1.09-1.08v-2.25h-.67v-.42h.67v-.81h.5v.81h1.13v.42H246.8v2.22a.6.6,0,0,0,.64.68.8.8,0,0,0,.55-.19Z" style="fill:#263238"></path><path d="M252.18,204h-3.11a1.37,1.37,0,0,0,1.46,1.29,1.47,1.47,0,0,0,1.14-.48l.28.32a1.8,1.8,0,0,1-1.43.61,1.84,1.84,0,0,1-2-1.89,1.81,1.81,0,1,1,3.62,0S252.18,203.9,252.18,204Zm-3.11-.37h2.64a1.32,1.32,0,0,0-2.64,0Z" style="fill:#263238"></path><path d="M259,202.4c0,1.06-.76,1.69-2,1.69h-1.32v1.56h-.53v-4.94H257C258.27,200.71,259,201.35,259,202.4Zm-.52,0c0-.79-.52-1.24-1.51-1.24h-1.31v2.47H257C258,203.63,258.51,203.18,258.51,202.4Z" style="fill:#263238"></path><path d="M261.84,201.91v.49h-.12a1.2,1.2,0,0,0-1.25,1.37v1.89H260v-3.71h.48v.73A1.41,1.41,0,0,1,261.84,201.91Z" style="fill:#263238"></path><path d="M265.94,204h-3.11a1.37,1.37,0,0,0,1.46,1.29,1.48,1.48,0,0,0,1.14-.48l.28.32a1.81,1.81,0,0,1-1.43.61,1.84,1.84,0,0,1-1.95-1.89,1.79,1.79,0,0,1,1.81-1.89,1.77,1.77,0,0,1,1.8,1.89Zm-3.11-.37h2.63a1.32,1.32,0,0,0-2.63,0Z" style="fill:#263238"></path><path d="M266.45,205.23l.23-.39a2.23,2.23,0,0,0,1.32.41c.7,0,1-.24,1-.61,0-1-2.41-.2-2.41-1.67,0-.61.53-1.06,1.47-1.06a2.47,2.47,0,0,1,1.32.35l-.22.4a1.89,1.89,0,0,0-1.1-.32c-.67,0-1,.26-1,.62,0,1,2.4.24,2.4,1.67,0,.64-.56,1.06-1.53,1.06A2.49,2.49,0,0,1,266.45,205.23Z" style="fill:#263238"></path><path d="M273.65,204h-3.11a1.38,1.38,0,0,0,1.47,1.29,1.46,1.46,0,0,0,1.13-.48l.29.32A2,2,0,0,1,270,203.8a1.81,1.81,0,1,1,3.62,0S273.65,203.9,273.65,204Zm-3.11-.37h2.64a1.32,1.32,0,0,0-2.64,0Z" style="fill:#263238"></path><path d="M278.1,203.5v2.15h-.5v-2.1a1,1,0,0,0-1.12-1.19,1.22,1.22,0,0,0-1.3,1.34v2h-.5v-3.71h.48v.68a1.56,1.56,0,0,1,1.41-.71A1.42,1.42,0,0,1,278.1,203.5Z" style="fill:#263238"></path><path d="M281.42,205.43a1.19,1.19,0,0,1-.79.26,1,1,0,0,1-1.09-1.08v-2.25h-.66v-.42h.66v-.81h.51v.81h1.13v.42h-1.13v2.22a.59.59,0,0,0,.64.68.82.82,0,0,0,.55-.19Z" style="fill:#263238"></path><path d="M285.13,203.35v2.3h-.48v-.57a1.41,1.41,0,0,1-1.28.61c-.84,0-1.36-.44-1.36-1.08s.37-1.05,1.44-1.05h1.18v-.23c0-.64-.36-1-1.05-1a1.89,1.89,0,0,0-1.24.44l-.23-.38a2.37,2.37,0,0,1,1.51-.5A1.32,1.32,0,0,1,285.13,203.35Zm-.5,1.19v-.61h-1.17c-.72,0-.95.28-.95.67s.35.69.94.69A1.19,1.19,0,0,0,284.63,204.54Z" style="fill:#263238"></path><path d="M288.45,205.43a1.19,1.19,0,0,1-.79.26,1,1,0,0,1-1.09-1.08v-2.25h-.66v-.42h.66v-.81h.51v.81h1.13v.42h-1.13v2.22a.59.59,0,0,0,.64.68.82.82,0,0,0,.55-.19Z" style="fill:#263238"></path><path d="M289.24,200.77a.37.37,0,1,1,.37.36A.37.37,0,0,1,289.24,200.77Zm.12,1.17h.5v3.71h-.5Z" style="fill:#263238"></path><path d="M290.88,203.8a1.89,1.89,0,1,1,1.89,1.89A1.82,1.82,0,0,1,290.88,203.8Zm3.27,0a1.38,1.38,0,1,0-1.38,1.44A1.36,1.36,0,0,0,294.15,203.8Z" style="fill:#263238"></path><path d="M299.1,203.5v2.15h-.5v-2.1a1,1,0,0,0-1.12-1.19,1.22,1.22,0,0,0-1.3,1.34v2h-.5v-3.71h.48v.68a1.56,1.56,0,0,1,1.41-.71A1.42,1.42,0,0,1,299.1,203.5Z" style="fill:#263238"></path><path d="M218,203.51a4.27,4.27,0,1,1-4.27-4.27A4.27,4.27,0,0,1,218,203.51Z" style="fill:#FF725E"></path><path d="M213.26,204.83a.27.27,0,0,1-.17-.06l-1.17-1.07a.26.26,0,0,1,0-.36.25.25,0,0,1,.35,0l1,.9,1.87-2a.25.25,0,1,1,.36.34l-2,2.15A.26.26,0,0,1,213.26,204.83Z" style="fill:#fff"></path><path d="M349.17,220.8s.32,0,.93-.12a5,5,0,0,0,2.43-1.2,5.16,5.16,0,0,0,1.75-3.93q0-2.67,0-6.14c0-2.3,0-4.87,0-7.68,0-1.4,0-2.87,0-4.39,0-.77,0-1.54,0-2.33a15.87,15.87,0,0,0-.09-2.39,5,5,0,0,0-3-3.69,5.85,5.85,0,0,0-2.55-.4h-2.75l-11.77,0-129,.08a4.94,4.94,0,0,0-3.88,1.89,5,5,0,0,0-.94,2,11.32,11.32,0,0,0-.11,2.28v20.66a5.08,5.08,0,0,0,.39,2.09,5,5,0,0,0,3.06,2.77,6.2,6.2,0,0,0,2.12.22h32l58,.05,39.1.09,10.63.05,2.77,0,.94,0-.94,0-2.77,0-10.63.05-39.1.08-58,.06h-32a6.82,6.82,0,0,1-2.27-.24,5.53,5.53,0,0,1-3.38-3.06,5.63,5.63,0,0,1-.44-2.29V194.8a12.16,12.16,0,0,1,.12-2.39,5.46,5.46,0,0,1,5.33-4.3l129,.07,11.77,0h2.75a6.27,6.27,0,0,1,2.68.43,5.39,5.39,0,0,1,3.13,3.93,14.42,14.42,0,0,1,.09,2.44v2.33c0,1.52,0,3,0,4.39,0,2.81,0,5.38,0,7.68s0,4.36,0,6.14a5.23,5.23,0,0,1-1.83,4,5.11,5.11,0,0,1-2.49,1.18,4.33,4.33,0,0,1-.7.06Z" style="fill:#FF725E"></path><path d="M276.65,211.77c0,.15-11.07.26-24.72.26s-24.74-.11-24.74-.26,11.07-.26,24.74-.26S276.65,211.63,276.65,211.77Z" style="fill:#e0e0e0"></path><path d="M335.79,203.79a.21.21,0,0,1-.05.13l-1.56,1.58a.19.19,0,0,1-.26,0l-1.53-1.58a.18.18,0,0,1,.26-.25l1.4,1.45,1.44-1.45a.18.18,0,0,1,.25,0A.18.18,0,0,1,335.79,203.79Z" style="fill:#FF725E"></path><path d="M226.55,241.64a2.48,2.48,0,0,1,2.6-2.51,2.4,2.4,0,0,1,1.81.72l-.34.33a2,2,0,0,0-1.46-.59,2.05,2.05,0,1,0,0,4.1,2,2,0,0,0,1.46-.59l.34.33a2.42,2.42,0,0,1-1.82.73A2.49,2.49,0,0,1,226.55,241.64Z" style="fill:#263238"></path><path d="M233.83,240.37v.49h-.12a1.21,1.21,0,0,0-1.25,1.37v1.89H232V240.4h.48v.73A1.4,1.4,0,0,1,233.83,240.37Z" style="fill:#263238"></path><path d="M237.94,242.41h-3.11a1.37,1.37,0,0,0,1.46,1.29,1.48,1.48,0,0,0,1.14-.48l.28.32a1.81,1.81,0,0,1-1.43.61,1.84,1.84,0,0,1-1.95-1.89,1.79,1.79,0,0,1,1.81-1.89,1.77,1.77,0,0,1,1.8,1.89Zm-3.11-.37h2.63a1.32,1.32,0,0,0-2.63,0Z" style="fill:#263238"></path><path d="M241.66,241.81v2.3h-.48v-.57a1.39,1.39,0,0,1-1.28.61c-.84,0-1.35-.44-1.35-1.08s.36-1,1.43-1h1.18v-.23c0-.64-.36-1-1-1a1.91,1.91,0,0,0-1.24.44l-.22-.38a2.33,2.33,0,0,1,1.51-.5A1.32,1.32,0,0,1,241.66,241.81Zm-.5,1.19v-.61H240c-.73,0-1,.28-1,.67s.35.69.94.69A1.18,1.18,0,0,0,241.16,243Z" style="fill:#263238"></path><path d="M245,243.89a1.19,1.19,0,0,1-.78.26,1,1,0,0,1-1.09-1.08v-2.25h-.67v-.42h.67v-.81h.5v.81h1.13v.42h-1.13V243a.6.6,0,0,0,.64.68.8.8,0,0,0,.55-.19Z" style="fill:#263238"></path><path d="M249,242.41h-3.11a1.37,1.37,0,0,0,1.46,1.29,1.47,1.47,0,0,0,1.14-.48l.28.32a1.8,1.8,0,0,1-1.43.61,1.84,1.84,0,0,1-2-1.89,1.81,1.81,0,1,1,3.62,0S249,242.36,249,242.41Zm-3.11-.37h2.64a1.32,1.32,0,0,0-2.64,0Z" style="fill:#263238"></path><path d="M256.11,239.17v4.94h-.52v-2.28H252.5v2.28H252v-4.94h.53v2.2h3.09v-2.2Z" style="fill:#263238"></path><path d="M257.23,242.26a1.89,1.89,0,1,1,1.89,1.89A1.83,1.83,0,0,1,257.23,242.26Zm3.27,0a1.38,1.38,0,1,0-1.38,1.44A1.35,1.35,0,0,0,260.5,242.26Z" style="fill:#263238"></path><path d="M268.16,242v2.15h-.5V242c0-.79-.39-1.19-1.06-1.19a1.2,1.2,0,0,0-1.25,1.34v2h-.5V242c0-.79-.4-1.19-1.07-1.19a1.2,1.2,0,0,0-1.25,1.34v2H262V240.4h.48v.68a1.5,1.5,0,0,1,1.37-.71,1.34,1.34,0,0,1,1.32.78,1.61,1.61,0,0,1,1.47-.78A1.4,1.4,0,0,1,268.16,242Z" style="fill:#263238"></path><path d="M272.77,242.41h-3.11a1.37,1.37,0,0,0,1.46,1.29,1.47,1.47,0,0,0,1.14-.48l.28.32a1.8,1.8,0,0,1-1.43.61,1.84,1.84,0,0,1-1.95-1.89,1.81,1.81,0,1,1,3.62,0S272.77,242.36,272.77,242.41Zm-3.11-.37h2.64a1.32,1.32,0,0,0-2.64,0Z" style="fill:#263238"></path><path d="M277.56,242.26a1.8,1.8,0,0,1-1.85,1.89,1.62,1.62,0,0,1-1.41-.73v2.07h-.5V240.4h.48v.73a1.62,1.62,0,0,1,1.43-.76A1.8,1.8,0,0,1,277.56,242.26Zm-.5,0a1.39,1.39,0,1,0-1.38,1.44A1.36,1.36,0,0,0,277.06,242.26Z" style="fill:#263238"></path><path d="M281.37,241.81v2.3h-.48v-.57a1.41,1.41,0,0,1-1.28.61c-.84,0-1.36-.44-1.36-1.08s.37-1,1.44-1h1.18v-.23c0-.64-.36-1-1.06-1a1.86,1.86,0,0,0-1.23.44l-.23-.38a2.37,2.37,0,0,1,1.51-.5A1.32,1.32,0,0,1,281.37,241.81Zm-.5,1.19v-.61H279.7c-.72,0-.95.28-.95.67s.34.69.94.69A1.19,1.19,0,0,0,280.87,243Z" style="fill:#263238"></path><path d="M286.18,240.4v3.26a1.63,1.63,0,0,1-1.86,1.86,2.59,2.59,0,0,1-1.73-.57l.26-.38a2.25,2.25,0,0,0,1.46.51c.94,0,1.37-.44,1.37-1.35v-.48a1.66,1.66,0,0,1-1.45.72,1.8,1.8,0,1,1,0-3.6,1.67,1.67,0,0,1,1.47.74v-.71Zm-.49,1.76a1.41,1.41,0,1,0-1.41,1.37A1.32,1.32,0,0,0,285.69,242.16Z" style="fill:#263238"></path><path d="M290.82,242.41h-3.11a1.37,1.37,0,0,0,1.46,1.29,1.47,1.47,0,0,0,1.14-.48l.28.32a1.8,1.8,0,0,1-1.43.61,1.84,1.84,0,0,1-2-1.89,1.81,1.81,0,1,1,3.62,0S290.82,242.36,290.82,242.41Zm-3.11-.37h2.64a1.32,1.32,0,0,0-2.64,0Z" style="fill:#263238"></path><path d="M218,242c-.05,0,0-.38-.23-1a4.21,4.21,0,0,0-1.57-2.23,4,4,0,1,0,0,6.49,4.21,4.21,0,0,0,1.57-2.23c.19-.64.18-1,.23-1a2.29,2.29,0,0,1,0,1.07,4.23,4.23,0,0,1-1.54,2.47,4.43,4.43,0,0,1-4.23.7,4.49,4.49,0,0,1,0-8.47,4.43,4.43,0,0,1,4.23.69,4.28,4.28,0,0,1,1.54,2.48A2.22,2.22,0,0,1,218,242Z" style="fill:#e0e0e0"></path><path d="M349.17,259.26s.32,0,.93-.12a5,5,0,0,0,2.43-1.2,5.16,5.16,0,0,0,1.75-3.93c0-1.78,0-3.83,0-6.13s0-4.88,0-7.69c0-1.4,0-2.87,0-4.39,0-.76,0-1.54,0-2.33a15.87,15.87,0,0,0-.09-2.39,5,5,0,0,0-3-3.69,5.85,5.85,0,0,0-2.55-.4h-2.75l-11.77,0-129,.08a4.94,4.94,0,0,0-3.88,1.89,5,5,0,0,0-.94,2,11.32,11.32,0,0,0-.11,2.28v20.66a5.08,5.08,0,0,0,.39,2.09,5,5,0,0,0,3.06,2.77,6.2,6.2,0,0,0,2.12.22h32l58,.05,39.1.09,10.63,0,2.77,0,.94,0-.94,0-2.77,0-10.63.05-39.1.08-58,.06h-32a6.82,6.82,0,0,1-2.27-.24,5.53,5.53,0,0,1-3.38-3.06,5.63,5.63,0,0,1-.44-2.29V233.26a12.16,12.16,0,0,1,.12-2.39,5.46,5.46,0,0,1,5.33-4.3l129,.08h14.52a6.27,6.27,0,0,1,2.68.43A5.39,5.39,0,0,1,354.4,231a14.42,14.42,0,0,1,.09,2.44v2.33c0,1.52,0,3,0,4.39,0,2.81,0,5.38,0,7.69s0,4.35,0,6.13a5.23,5.23,0,0,1-1.83,4,5.11,5.11,0,0,1-2.49,1.18,4.33,4.33,0,0,1-.7.06Z" style="fill:#e0e0e0"></path><path d="M276.65,250.23c0,.15-11.07.26-24.72.26s-24.74-.11-24.74-.26,11.07-.26,24.74-.26S276.65,250.09,276.65,250.23Z" style="fill:#e0e0e0"></path><path d="M335.79,242.25a.19.19,0,0,1-.05.13L334.18,244a.19.19,0,0,1-.26,0l-1.53-1.58a.18.18,0,0,1,.26-.25l1.4,1.45,1.44-1.45a.18.18,0,0,1,.25,0A.18.18,0,0,1,335.79,242.25Z" style="fill:#e0e0e0"></path><path d="M230.86,278.46c0,1.05-.76,1.69-2,1.69h-1.32v1.56H227v-4.94h1.85C230.1,276.77,230.86,277.4,230.86,278.46Zm-.52,0c0-.79-.52-1.24-1.51-1.24h-1.31v2.47h1.31C229.82,279.69,230.34,279.24,230.34,278.46Z" style="fill:#263238"></path><path d="M233.66,278v.48h-.12a1.2,1.2,0,0,0-1.25,1.37v1.89h-.5V278h.48v.72A1.41,1.41,0,0,1,233.66,278Z" style="fill:#263238"></path><path d="M234.16,279.85a1.89,1.89,0,1,1,1.89,1.9A1.82,1.82,0,0,1,234.16,279.85Zm3.27,0a1.38,1.38,0,1,0-1.38,1.45A1.36,1.36,0,0,0,237.43,279.85Z" style="fill:#263238"></path><path d="M237.62,282.88l.18-.38a.9.9,0,0,0,.58.19c.39,0,.61-.24.61-.7v-4h.5v4a1,1,0,0,1-1.08,1.13A1.26,1.26,0,0,1,237.62,282.88Zm1.26-6.06a.36.36,0,0,1,.37-.35.36.36,0,1,1,0,.71A.36.36,0,0,1,238.88,276.82Z" style="fill:#263238"></path><path d="M244.13,280H241a1.37,1.37,0,0,0,1.46,1.29,1.46,1.46,0,0,0,1.14-.49l.28.33a2,2,0,0,1-3.38-1.29,1.78,1.78,0,0,1,1.81-1.88,1.77,1.77,0,0,1,1.8,1.88Zm-3.11-.38h2.63a1.32,1.32,0,0,0-2.63,0Z" style="fill:#263238"></path><path d="M244.78,279.85a1.83,1.83,0,0,1,1.91-1.88,1.62,1.62,0,0,1,1.46.73l-.38.26a1.24,1.24,0,0,0-1.08-.56,1.45,1.45,0,0,0,0,2.9,1.25,1.25,0,0,0,1.08-.54l.38.25a1.65,1.65,0,0,1-1.46.74A1.84,1.84,0,0,1,244.78,279.85Z" style="fill:#263238"></path><path d="M251.13,281.48a1.2,1.2,0,0,1-.79.27,1,1,0,0,1-1.08-1.08v-2.25h-.67V278h.67v-.82h.5V278h1.13v.42h-1.13v2.22a.59.59,0,0,0,.64.68.85.85,0,0,0,.55-.19Z" style="fill:#263238"></path><path d="M253.55,279.24a2.49,2.49,0,0,1,2.6-2.52,2.37,2.37,0,0,1,1.8.72l-.33.34a2,2,0,0,0-1.46-.59,2.05,2.05,0,1,0,0,4.1,1.92,1.92,0,0,0,1.46-.6l.33.34a2.37,2.37,0,0,1-1.81.72A2.48,2.48,0,0,1,253.55,279.24Z" style="fill:#263238"></path><path d="M259,276.47h.5v5.24H259Z" style="fill:#263238"></path><path d="M260.75,276.82a.36.36,0,0,1,.36-.35.36.36,0,1,1,0,.71A.36.36,0,0,1,260.75,276.82Zm.11,1.18h.5v3.71h-.5Z" style="fill:#263238"></path><path d="M266,280h-3.1a1.37,1.37,0,0,0,1.46,1.29,1.47,1.47,0,0,0,1.14-.49l.28.33a2,2,0,0,1-3.39-1.29A1.79,1.79,0,0,1,264.2,278a1.77,1.77,0,0,1,1.8,1.88S266,280,266,280Zm-3.1-.38h2.63a1.32,1.32,0,0,0-2.63,0Z" style="fill:#263238"></path><path d="M270.44,279.56v2.15h-.5v-2.1a1,1,0,0,0-1.12-1.19,1.21,1.21,0,0,0-1.3,1.34v1.95H267V278h.48v.68a1.56,1.56,0,0,1,1.41-.71A1.42,1.42,0,0,1,270.44,279.56Z" style="fill:#263238"></path><path d="M273.76,281.48a1.2,1.2,0,0,1-.79.27,1,1,0,0,1-1.08-1.08v-2.25h-.67V278h.67v-.82h.5V278h1.13v.42h-1.13v2.22a.59.59,0,0,0,.64.68.87.87,0,0,0,.55-.19Z" style="fill:#263238"></path><path d="M279.56,281.26v.45h-3.47v-.36l2.06-2c.56-.55.66-.89.66-1.22,0-.58-.4-.93-1.16-.93a1.7,1.7,0,0,0-1.35.55l-.36-.31a2.23,2.23,0,0,1,1.75-.71c1,0,1.64.51,1.64,1.34a2,2,0,0,1-.81,1.55l-1.68,1.65Z" style="fill:#263238"></path><path d="M218,279.57c-.05,0,0-.38-.23-1a4.21,4.21,0,0,0-1.57-2.23,4,4,0,1,0,0,6.5,4.28,4.28,0,0,0,1.57-2.23c.19-.64.18-1,.23-1a2.27,2.27,0,0,1,0,1.07,4.26,4.26,0,0,1-1.54,2.47,4.43,4.43,0,0,1-4.23.7,4.5,4.5,0,0,1,0-8.48,4.43,4.43,0,0,1,4.23.7,4.23,4.23,0,0,1,1.54,2.47A2.27,2.27,0,0,1,218,279.57Z" style="fill:#e0e0e0"></path><path d="M349.17,296.85a8,8,0,0,0,.93-.11,5.18,5.18,0,0,0,4.18-5.13q0-2.67,0-6.14c0-2.31,0-4.88,0-7.68,0-1.41,0-2.87,0-4.4,0-.76,0-1.54,0-2.33a15.74,15.74,0,0,0-.09-2.38,5.07,5.07,0,0,0-3-3.7,5.85,5.85,0,0,0-2.55-.39h-2.75l-11.77,0-129,.08a4.88,4.88,0,0,0-3.88,1.89,5,5,0,0,0-.94,2,11.26,11.26,0,0,0-.11,2.27v20.66a5.16,5.16,0,0,0,.39,2.1,5,5,0,0,0,3.06,2.77,6.46,6.46,0,0,0,2.12.22h32l58,.06,39.1.08,10.63.05,2.77,0,.94,0-.94,0-2.77,0-10.63,0-39.1.08-58,0h-32a6.83,6.83,0,0,1-2.27-.25,5.49,5.49,0,0,1-3.38-3.05,5.68,5.68,0,0,1-.44-2.3V270.85a12.1,12.1,0,0,1,.12-2.38,5.48,5.48,0,0,1,5.33-4.31l129,.08,11.77,0h2.75a6.28,6.28,0,0,1,2.68.44,5.35,5.35,0,0,1,3.13,3.93,14.3,14.3,0,0,1,.09,2.43v2.33c0,1.53,0,3,0,4.4,0,2.8,0,5.37,0,7.68s0,4.36,0,6.14a5.27,5.27,0,0,1-1.83,4,5.08,5.08,0,0,1-2.49,1.17,4.62,4.62,0,0,1-.7.07Z" style="fill:#e0e0e0"></path><path d="M276.65,287.83c0,.14-11.07.26-24.72.26s-24.74-.12-24.74-.26,11.07-.26,24.74-.26S276.65,287.69,276.65,287.83Z" style="fill:#e0e0e0"></path><path d="M335.79,279.85a.21.21,0,0,1-.05.13l-1.56,1.57a.17.17,0,0,1-.26,0L332.39,280a.18.18,0,1,1,.26-.24l1.4,1.45,1.44-1.45a.18.18,0,0,1,.25,0A.21.21,0,0,1,335.79,279.85Z" style="fill:#e0e0e0"></path><path d="M231.13,318c0,.84-.63,1.32-1.86,1.32H227v-4.95h2.14c1.1,0,1.73.47,1.73,1.27a1.16,1.16,0,0,1-.75,1.13A1.18,1.18,0,0,1,231.13,318Zm-3.61-3.2v1.8h1.57c.79,0,1.25-.31,1.25-.9s-.46-.9-1.25-.9Zm3.08,3.15c0-.64-.47-.92-1.34-.92h-1.74v1.86h1.74C230.13,318.88,230.6,318.59,230.6,317.94Z" style="fill:#263238"></path><path d="M235.56,315.59v3.72h-.48v-.68a1.48,1.48,0,0,1-1.34.71,1.44,1.44,0,0,1-1.57-1.59v-2.16h.5v2.11a1,1,0,0,0,1.12,1.19,1.21,1.21,0,0,0,1.27-1.35v-2Z" style="fill:#263238"></path><path d="M240.08,315.59l-1.86,4.16c-.31.73-.7,1-1.23,1a1.27,1.27,0,0,1-.91-.34l.24-.37a.93.93,0,0,0,.67.28c.34,0,.56-.15.77-.62l.17-.36-1.66-3.71h.52l1.4,3.16,1.4-3.16Z" style="fill:#263238"></path><path d="M246.22,316.83h.5v1.89a2.7,2.7,0,0,1-1.81.63,2.52,2.52,0,1,1,0-5,2.43,2.43,0,0,1,1.83.71l-.32.33a2.05,2.05,0,0,0-1.49-.57,2,2,0,1,0,0,4.09,2.11,2.11,0,0,0,1.29-.38Z" style="fill:#263238"></path><path d="M248,314.42a.36.36,0,0,1,.36-.36.36.36,0,1,1-.36.36Zm.11,1.17h.5v3.72h-.5Z" style="fill:#263238"></path><path d="M250.56,315.15v.44h1.15V316h-1.13v3.3h-.51V316h-.66v-.42h.66v-.46a1,1,0,0,1,1.13-1.1,1.21,1.21,0,0,1,.74.23l-.17.38a.85.85,0,0,0-.55-.19C250.79,314.45,250.56,314.69,250.56,315.15Z" style="fill:#263238"></path><path d="M254.34,319.08a1.19,1.19,0,0,1-.78.26,1,1,0,0,1-1.09-1.08V316h-.67v-.42h.67v-.81h.5v.81h1.13V316H253v2.22a.59.59,0,0,0,.64.68.8.8,0,0,0,.55-.19Z" style="fill:#263238"></path><path d="M218,317.16c-.05,0,0-.38-.23-1a4.21,4.21,0,0,0-1.57-2.23,4,4,0,1,0,0,6.49,4.21,4.21,0,0,0,1.57-2.23c.19-.64.18-1,.23-1a2.29,2.29,0,0,1,0,1.07,4.28,4.28,0,0,1-1.54,2.48,4.46,4.46,0,0,1-4.23.69,4.49,4.49,0,0,1,0-8.47,4.46,4.46,0,0,1,4.23.69,4.28,4.28,0,0,1,1.54,2.48A2.22,2.22,0,0,1,218,317.16Z" style="fill:#e0e0e0"></path><path d="M349.17,334.45s.32,0,.93-.11a5.18,5.18,0,0,0,4.18-5.14c0-1.78,0-3.83,0-6.13s0-4.88,0-7.69c0-1.4,0-2.87,0-4.39,0-.76,0-1.54,0-2.33a15.87,15.87,0,0,0-.09-2.39,5,5,0,0,0-3-3.69,5.85,5.85,0,0,0-2.55-.4h-2.75l-11.77,0-129,.07a5,5,0,0,0-4.82,3.89,11.36,11.36,0,0,0-.11,2.28v20.66a5.08,5.08,0,0,0,.39,2.09,5,5,0,0,0,3.06,2.77,6.46,6.46,0,0,0,2.12.23h32l58,.06,39.1.08,10.63,0,2.77,0,.94,0-.94,0-2.77,0-10.63.05-39.1.08-58,.06h-32a6.82,6.82,0,0,1-2.27-.24,5.55,5.55,0,0,1-3.38-3,5.71,5.71,0,0,1-.44-2.3V308.45a12.16,12.16,0,0,1,.12-2.39,5.42,5.42,0,0,1,1-2.21,5.5,5.5,0,0,1,4.29-2.09l129,.08,11.77,0h2.75a6.27,6.27,0,0,1,2.68.43,5.39,5.39,0,0,1,3.13,3.93,14.42,14.42,0,0,1,.09,2.44V311c0,1.52,0,3,0,4.39,0,2.81,0,5.38,0,7.69s0,4.35,0,6.13a5.27,5.27,0,0,1-1.83,4,5.08,5.08,0,0,1-2.49,1.17,3.42,3.42,0,0,1-.7.06Z" style="fill:#e0e0e0"></path><path d="M276.65,325.43c0,.14-11.07.26-24.72.26s-24.74-.12-24.74-.26,11.07-.26,24.74-.26S276.65,325.28,276.65,325.43Z" style="fill:#e0e0e0"></path><path d="M335.79,317.45a.18.18,0,0,1-.05.12l-1.56,1.58a.19.19,0,0,1-.26,0l-1.53-1.58a.18.18,0,0,1,.26-.25l1.4,1.45,1.44-1.45a.18.18,0,0,1,.25,0A.19.19,0,0,1,335.79,317.45Z" style="fill:#e0e0e0"></path><circle cx="326.08" cy="374.96" r="20.76" transform="translate(-96.55 636.32) rotate(-80.72)" style="fill:#FF725E"></circle><path d="M326.08,380.88a.5.5,0,0,1-.5-.5V369.54a.5.5,0,0,1,1,0v10.84A.5.5,0,0,1,326.08,380.88Z" style="fill:#fff"></path><path d="M331.5,375.46H320.66a.5.5,0,0,1-.5-.5.5.5,0,0,1,.5-.5H331.5a.5.5,0,0,1,.5.5A.5.5,0,0,1,331.5,375.46Z" style="fill:#fff"></path><polygon points="333.34 136.07 333.24 138.48 335.63 138.16 341.18 132.67 338.94 130.43 333.34 136.07" style="fill:#FF725E"></polygon><path d="M339.26,130.18l2.17,2.18.33-.32a1.39,1.39,0,0,0,0-2l-.23-.22a1.37,1.37,0,0,0-2,0Z" style="fill:#FF725E"></path></g></svg>