<svg xmlns="http://www.w3.org/2000/svg" xmlns:xlink="http://www.w3.org/1999/xlink" viewBox="0 0 750 500"><defs><clipPath id="freepik--clip-path--inject-108"><rect x="164.59" y="75.76" width="327.44" height="205.35" style="fill:none"></rect></clipPath></defs><g id="freepik--Desk--inject-108"><polygon points="79.27 415.09 153.2 414.85 227.13 414.76 375 414.59 522.87 414.76 596.8 414.85 670.73 415.09 596.8 415.34 522.87 415.42 375 415.59 227.13 415.42 153.2 415.33 79.27 415.09" style="fill:#263238"></polygon></g><g id="freepik--Shadow--inject-108"><ellipse cx="375" cy="447.47" rx="296.85" ry="26.27" style="fill:#ebebeb"></ellipse></g><g id="freepik--Device--inject-108"><rect x="142.07" y="54.19" width="465.86" height="331.8" style="fill:#263238"></rect><rect x="164.59" y="75.76" width="420.82" height="238.26" style="fill:#fff"></rect><rect x="142.07" y="337.04" width="465.86" height="48.94" style="fill:#ebebeb"></rect><rect x="279.92" y="433.25" width="190.17" height="12.56" style="fill:#c7c7c7"></rect><polygon points="447.44 433.26 302.56 433.26 306.24 411.47 306.42 410.44 306.76 408.4 306.93 407.37 307.29 405.32 307.33 405.01 307.46 404.3 307.81 402.25 307.98 401.22 310.55 386 439.44 386 441.87 400.36 442 401.05 442.4 403.43 442.51 404.12 442.66 405.01 442.92 406.5 443.03 407.2 443.43 409.59 443.55 410.27 447.44 433.26" style="fill:#dbdbdb"></polygon><rect x="164.59" y="75.76" width="420.82" height="12.89" style="fill:#455a64"></rect><path d="M174.83,82.2A3.2,3.2,0,1,1,171.64,79,3.19,3.19,0,0,1,174.83,82.2Z" style="fill:#c7c7c7"></path><path d="M187.88,82.2A3.2,3.2,0,1,1,184.69,79,3.19,3.19,0,0,1,187.88,82.2Z" style="fill:#fff"></path><path d="M200.93,82.2A3.2,3.2,0,1,1,197.74,79,3.19,3.19,0,0,1,200.93,82.2Z" style="fill:#FFC727"></path><circle cx="374.86" cy="358.22" r="8.08" transform="matrix(0.23, -0.97, 0.97, 0.23, -60.14, 640.39)" style="fill:#263238"></circle><polygon points="442.66 405.01 307.33 405.01 307.46 404.3 307.81 402.25 307.98 401.22 310.55 386 439.44 386 441.87 400.36 442 401.05 442.4 403.43 442.51 404.12 442.66 405.01" style="fill:#c7c7c7"></polygon><rect x="492.03" y="88.65" width="93.39" height="225.38" style="fill:#ebebeb"></rect><polygon points="515.13 181.43 570.6 181.43 570.6 145.3 515.13 145.3 515.13 145.3 515.13 181.43 515.13 181.43" style="fill:#FFC727"></polygon><rect x="521.72" y="151.55" width="42.29" height="0.69" style="fill:#fff"></rect><rect x="521.72" y="155.26" width="21.14" height="0.69" style="fill:#fff"></rect><rect x="521.72" y="162.67" width="33.91" height="0.69" style="fill:#fff"></rect><rect x="521.72" y="166.38" width="42.29" height="0.69" style="fill:#fff"></rect><rect x="521.72" y="170.09" width="42.29" height="0.69" style="fill:#fff"></rect><rect x="521.72" y="173.79" width="14.07" height="0.69" style="fill:#fff"></rect><polygon points="570.57 174.8 574.39 187.21 561.23 181.39 570.57 174.8" style="fill:#FFC727"></polygon><rect x="506.87" y="103.64" width="55.47" height="30.48" style="fill:#263238"></rect><polygon points="506.87 127.53 503.05 139.95 516.21 134.12 506.87 127.53" style="fill:#263238"></polygon><rect x="513.59" y="109.27" width="25.26" height="0.69" style="fill:#fff"></rect><rect x="513.59" y="112.98" width="42.29" height="0.69" style="fill:#fff"></rect><rect x="513.59" y="116.68" width="42.29" height="0.69" style="fill:#fff"></rect><rect x="513.59" y="120.39" width="34.22" height="0.69" style="fill:#fff"></rect><rect x="513.59" y="124.1" width="42.29" height="0.69" style="fill:#fff"></rect><rect x="513.59" y="127.81" width="15.69" height="0.69" style="fill:#fff"></rect><rect x="506.87" y="191.66" width="55.47" height="20.86" style="fill:#263238"></rect><polygon points="506.87 205.93 503.05 218.34 516.21 212.52 506.87 205.93" style="fill:#263238"></polygon><rect x="513.59" y="197.29" width="36.62" height="0.69" style="fill:#fff"></rect><rect x="513.59" y="201" width="19.13" height="0.69" style="fill:#fff"></rect><rect x="513.59" y="204.7" width="31.93" height="0.69" style="fill:#fff"></rect><rect x="503.05" y="259.63" width="71.34" height="13.14" style="fill:#fff"></rect><path d="M571.27,266.36a3.24,3.24,0,1,1-3.23-3.23A3.24,3.24,0,0,1,571.27,266.36Z" style="fill:#FFC727"></path><polygon points="567.44 264.49 569.44 266.36 567.44 268.23 567.03 267.79 568.55 266.36 567.03 264.93 567.44 264.49" style="fill:#fff"></polygon><rect x="505.88" y="262.28" width="0.86" height="7.84" style="fill:#263238"></rect><rect x="164.59" y="281.11" width="420.82" height="32.92" style="fill:#FFC727"></rect><circle cx="335.43" cy="297.57" r="11.31" style="fill:#a6a6a6"></circle><rect x="342.2" y="294.66" width="0.52" height="5.81" style="fill:#fff"></rect><polygon points="341.97 294.66 341.97 300.47 339.29 299.79 338.51 299.59 338.51 295.54 340.53 295.03 341.97 294.66" style="fill:#fff"></polygon><rect x="328.13" y="292.92" width="10.37" height="9.3" rx="1.46" style="fill:#fff"></rect><circle cx="414.57" cy="297.57" r="11.31" style="fill:#a6a6a6"></circle><path d="M414.58,305.4a.32.32,0,0,1-.32-.32v-3.73a.32.32,0,0,1,.32-.32.32.32,0,0,1,.32.32v3.73A.32.32,0,0,1,414.58,305.4Z" style="fill:#fff"></path><path d="M416.62,305.4h-4.09a.32.32,0,0,1-.32-.32.33.33,0,0,1,.32-.32h4.09a.33.33,0,0,1,.32.32A.32.32,0,0,1,416.62,305.4Z" style="fill:#fff"></path><path d="M417.2,292.36v5.43a2.62,2.62,0,0,1-5,1.16,2.51,2.51,0,0,1-.27-1.16v-5.43a2.63,2.63,0,0,1,5.25-.13Z" style="fill:#fff"></path><path d="M414.57,301.67a3.82,3.82,0,0,1-3.81-3.82v-2.29a.32.32,0,1,1,.63,0v2.29a3.16,3.16,0,0,0,1,2.3,3.11,3.11,0,0,0,2.34.87,3.26,3.26,0,0,0,3-3.28v-2.18a.32.32,0,0,1,.32-.32.32.32,0,0,1,.32.32v2.18a3.86,3.86,0,0,1-3.64,3.92Z" style="fill:#fff"></path><path d="M380.28,308.87H369.35A11.3,11.3,0,0,1,358,297.57h0a11.31,11.31,0,0,1,11.31-11.31h10.93a11.31,11.31,0,0,1,11.31,11.31h0A11.31,11.31,0,0,1,380.28,308.87Z" style="fill:#455a64"></path><g id="freepik--IaQ7Yo--inject-108"><path d="M366.11,297.37a2,2,0,0,1,.34-1l.27-.41.6-.6c.23-.16.45-.34.69-.49a8.56,8.56,0,0,1,3.12-1.21,19.63,19.63,0,0,1,7.75,0,8.41,8.41,0,0,1,3.08,1.19c.24.16.47.34.71.51l.57.57a3.27,3.27,0,0,1,.67,1.43h-5.07a.2.2,0,0,1-.2-.12,1.68,1.68,0,0,0-1.44-.92,36.38,36.38,0,0,0-4.43,0,1.71,1.71,0,0,0-1.44.93c0,.07-.07.12-.17.12h-5.05Z" style="fill:#fff"></path><path d="M366.1,300.23v-1.72c0-.05,0-.09,0-.12h5c0,.12,0,.24,0,.37v1.47a.56.56,0,0,1-.64.64h-3.74A.57.57,0,0,1,366.1,300.23Z" style="fill:#fff"></path><path d="M378.87,300.26c0-.63,0-1.26.05-1.88h4.94a.37.37,0,0,1,0,.11v1.75a.55.55,0,0,1-.61.62h-3.78A.55.55,0,0,1,378.87,300.26Z" style="fill:#fff"></path></g></g><g id="freepik--character-2--inject-108"><rect x="393.3" y="88.65" width="98.72" height="96.63" style="fill:#dbdbdb"></rect><path d="M446.5,150.25c-7.36,7-22.47,13.86-36.68,14.19-8,.19-24.05-30.41-27.1-37.06-5.1-11.09,14.77-13.8,19.37-12.71,5.73,1.36,14.46,26.62,17.62,29.23,1.11.92,16.63-1.16,23.2-2.48C449.93,140,450.29,146.65,446.5,150.25Z" style="fill:#ad6359"></path><path d="M383.09,128.08c-1.21-2.57-5.71-14.84-6.19-18.53s-1.12-14.43,1.67-15.09,3.23,2.47,3.23,2.47.45-4.58,3.32-5,3.39,4.48,3.39,4.48.8-4.66,3.69-4.86,2.59,4.79,2.59,4.79.54-4.29,3-3.46c2.95,1,1.06,8.82,1.9,12.86.19.91,5.21,18.3,5.21,18.3Z" style="fill:#ad6359"></path><path d="M394.81,95.92c-1.37,5.75-1,8.51.9,14,0,.11-.12.19-.17.08-2.32-5.23-3.32-8.61-1-14.17C394.65,95.57,394.88,95.65,394.81,95.92Z" style="fill:#263238"></path><path d="M388.62,96c-.9,6.09-.5,9.08,1,15,0,.09-.12.13-.15.05-2-5.67-2.91-9.07-1.2-15C388.39,95.7,388.67,95.69,388.62,96Z" style="fill:#263238"></path><path d="M381.89,97.22c-.46,6-.16,9.26,2.08,14.81,0,.13-.14.22-.2.1-2.83-5.44-3.23-9.55-2.07-14.9C381.78,96.86,381.91,96.85,381.89,97.22Z" style="fill:#263238"></path><path d="M406.31,128.23s2.5-7,2.92-10.28-2.53-16.2-5.35-15.72c-3.64.62-3.4,8.4-2.79,12.2,0,0-8.43,1.42-9.46,7S406.31,128.23,406.31,128.23Z" style="fill:#ad6359"></path><path d="M402.94,102.73c-2.92,3-1.79,7.89-1.47,11.62a.34.34,0,0,1-.41.38c-3.5.83-8.18,3-9.57,6.55a.08.08,0,0,1-.16,0c1-4,5.4-6.51,9.28-7.18-.39-3.82-1.3-8.81,2.3-11.35A0,0,0,0,1,402.94,102.73Z" style="fill:#263238"></path><path d="M408.93,122s-21.22,16.2-21.19,18c0,0,14.35,24.44,21,24.94,10,.74,25.47-4.9,34.58-11.14,9.75-6.68,10.4-14.69-1.83-13.06-13.16,1.76-20.32,3-21.61,2S410,122.4,408.93,122Z" style="fill:#FFC727"></path><path d="M410.61,128.19a58.69,58.69,0,0,0-4.95,3.48c-1.62,1.21-3.23,2.44-4.8,3.71s-3.15,2.55-4.68,3.87-2.91,2.62-4.38,3.91c-.07.06,0,.17.1.12,1.58-1.25,3.21-2.44,4.81-3.67s3.17-2.49,4.77-3.74,3.16-2.51,4.74-3.78,3.08-2.43,4.5-3.77C410.79,128.25,410.69,128.15,410.61,128.19Z" style="fill:#263238"></path><path d="M443.32,153.8c-9.11,6.24-24.61,11.88-34.58,11.14a3.89,3.89,0,0,1-1.17-.3L450,142.36C452,144.88,449.45,149.6,443.32,153.8Z" style="opacity:0.1"></path><path d="M445.88,147.56c3.32,1.2,9.77-3.35,12.56-7.32.19-.27.09-3.37.15-7.15.05-2.29.15-4.85.42-7.17l-15,1.89a37.34,37.34,0,0,1,.4,9.07,4.46,4.46,0,0,1-.21.94c0,.05,0,.1,0,.16C443.69,139.75,442.67,146.41,445.88,147.56Z" style="fill:#ad6359"></path><path d="M458.16,126c-.85,3.13-4.2,12.95-12.48,12.2a10,10,0,0,1-1.49-.25c0-.06,0-.11,0-.16a4.46,4.46,0,0,0,.21-.94,37.34,37.34,0,0,0-.4-9.07Z" style="fill:#263238"></path><path d="M460.68,107.21c1.75,5.14-.52,20.23-4.11,23.69-5.21,5-14,5.75-18.28-.56-4.19-6.11-.88-25.72,3.16-28.89C447.38,96.78,458.1,99.61,460.68,107.21Z" style="fill:#ad6359"></path><path d="M456.93,130.74h0" style="fill:none;stroke:#f3a59c;stroke-linecap:round;stroke-linejoin:round;stroke-width:0px"></path><path d="M448.6,117s.08.06.07.1c-.18,1-.22,2.2.65,2.67,0,0,0,.07,0,.06C448.21,119.53,448.27,118,448.6,117Z" style="fill:#263238"></path><path d="M449.67,116.09c1.65.11,1.3,3.41-.23,3.31S448.28,116,449.67,116.09Z" style="fill:#263238"></path><path d="M442.6,116.16s-.09,0-.09.09c-.08,1-.34,2.18-1.3,2.42,0,0,0,.06,0,.06C442.36,118.69,442.69,117.15,442.6,116.16Z" style="fill:#263238"></path><path d="M441.8,115c-1.63-.3-2.11,3-.6,3.26S443.16,115.25,441.8,115Z" style="fill:#263238"></path><path d="M451.13,114.72a10.7,10.7,0,0,1-1.23-.59,2.18,2.18,0,0,1-1.14-.83.71.71,0,0,1,.2-.84,1.76,1.76,0,0,1,1.76,0,2.56,2.56,0,0,1,1.35,1.26A.75.75,0,0,1,451.13,114.72Z" style="fill:#263238"></path><path d="M440.7,113.2A10.07,10.07,0,0,0,442,113a2.14,2.14,0,0,0,1.34-.47.7.7,0,0,0,.05-.85,1.75,1.75,0,0,0-1.69-.51,2.53,2.53,0,0,0-1.65.81A.74.74,0,0,0,440.7,113.2Z" style="fill:#263238"></path><path d="M448.26,126.44c-.28.21-.55.51-.93.51a2.75,2.75,0,0,1-1.07-.38s-.07,0-.05.05a1.37,1.37,0,0,0,1.24.69,1.09,1.09,0,0,0,.9-.82S448.29,126.41,448.26,126.44Z" style="fill:#263238"></path><path d="M447.51,123.26a3.51,3.51,0,0,1-2.49,1.31,4.86,4.86,0,0,1-1.26-.08l-.24,0-.22-.06a.27.27,0,0,1-.18-.25h0a.29.29,0,0,1,0-.1h0v-.09c.06-.79.26-2,.26-2-.3.12-1.84.62-1.77.21a52.88,52.88,0,0,1,2.47-10.39.09.09,0,0,1,.18,0c-.41,3.27-1.4,6.45-1.87,9.73a6.21,6.21,0,0,1,1.7-.33c.11.05-.43,2.29-.43,2.65,0,0,0,0,0,0a4.86,4.86,0,0,0,3.72-.74C447.5,123.11,447.58,123.19,447.51,123.26Z" style="fill:#263238"></path><path d="M444.28,124.27a4.13,4.13,0,0,0,1.58,1.39,2,2,0,0,0,1.13.14c.83-.17.89-.92.78-1.57a4.68,4.68,0,0,0-.3-1A5.38,5.38,0,0,1,444.28,124.27Z" style="fill:#263238"></path><path d="M445.86,125.66a2,2,0,0,0,1.13.14c.83-.17.89-.92.78-1.57A1.91,1.91,0,0,0,445.86,125.66Z" style="fill:#ff99ba"></path><path d="M439.5,105.87c4.58,4.55,12.75.43,12.75.43a5.8,5.8,0,0,0,5.12,4.68s-.6,9.06,1.74,9.47c3.57.63,6.89-11.26,6.21-13.85s-3.6-3.75-3.6-3.75a6,6,0,0,0-1.78-4C457.85,96.57,449,97.53,449,97.53a7.94,7.94,0,0,0-1.62-3.29,2.24,2.24,0,0,0-3.23-.3,5.25,5.25,0,0,1,.46,2.35c-.06,2.67-2.18,2.28-1.73-.07a3.73,3.73,0,0,1,1.27-2.28c-.76-1.73-2.38-2.54-3.57-1.91C438.41,93.18,435.68,102.08,439.5,105.87Z" style="fill:#263238"></path><path d="M457.86,119.53s3.34-4.89,5.55-3.7-.25,8.25-2.83,9.24a2.64,2.64,0,0,1-3.54-1.38Z" style="fill:#ad6359"></path><path d="M462.65,117.83a0,0,0,0,1,0,.07c-1.81.76-2.74,2.45-3.39,4.2a1.45,1.45,0,0,1,2.17-.42s0,.11-.05.1a1.63,1.63,0,0,0-1.78.58,8,8,0,0,0-.83,1.45c-.09.16-.38.08-.32-.11l0,0C458.41,121.35,460.17,118.09,462.65,117.83Z" style="fill:#263238"></path><path d="M479.83,185.29c-5.43-18.1-12.88-37.95-20.07-43.73-.68-1,.22-4.72-.26-5.1s-15.86.25-16.31.63,0,2.67-.49,3.26a114.21,114.21,0,0,0-8.29,16.07c-2.27,5.76-4.74,17.32-6.76,28.87Z" style="fill:#FFC727"></path><path d="M458,137.48a11.91,11.91,0,0,0,0,3.51,11.07,11.07,0,0,0,0-3.51Z" style="fill:#263238"></path><path d="M456.06,137.48a11.07,11.07,0,0,0,0,3.51,11.07,11.07,0,0,0,0-3.51Z" style="fill:#263238"></path><path d="M454.14,137.48a11.07,11.07,0,0,0,0,3.51,11.91,11.91,0,0,0,0-3.51Z" style="fill:#263238"></path><path d="M452.21,137.48a11.91,11.91,0,0,0,0,3.51,10.33,10.33,0,0,0,.14-1.75A11.5,11.5,0,0,0,452.21,137.48Z" style="fill:#263238"></path><path d="M450.29,137.48a11.5,11.5,0,0,0-.14,1.76,10.33,10.33,0,0,0,.14,1.75,11.91,11.91,0,0,0,0-3.51Z" style="fill:#263238"></path><path d="M448.36,137.48a11.91,11.91,0,0,0,0,3.51,9.39,9.39,0,0,0,.14-1.75A10.36,10.36,0,0,0,448.36,137.48Z" style="fill:#263238"></path><path d="M446.44,137.48a11.07,11.07,0,0,0,0,3.51,11.07,11.07,0,0,0,0-3.51Z" style="fill:#263238"></path><path d="M444.52,137.48a11.07,11.07,0,0,0,0,3.51,11.91,11.91,0,0,0,0-3.51Z" style="fill:#263238"></path><path d="M436.86,150.49a29.89,29.89,0,0,0-1.58,3.15c0-.22.09-.45.13-.68.12-.6.28-1.21.45-1.8,0,0,0,0-.05,0a12.33,12.33,0,0,0-.58,1.78,10.32,10.32,0,0,0-.24,1.37c-.06.14-.13.28-.18.43a42.08,42.08,0,0,0-1.43,4.37c0,.1.12.13.15,0,1.09-2.89,2.34-5.71,3.41-8.61C437,150.47,436.88,150.45,436.86,150.49Z" style="fill:#263238"></path><path d="M492,174.31c-10.34-14-24-27.3-30.48-30.63-7.8-4-1.77,10.93,3.18,19.63,4,7.09,12.9,19,12.33,19.34s-2.47-4.43-5.4-4.91c-3.36-.56-17.63,0-17.39,2,.09.83,1.05,2.85,2.67,5.54H492Z" style="fill:#ad6359"></path><path d="M492,185.26V173.45a215.81,215.81,0,0,0-23.83-25.89c-9.23-8.1-14.74-8.51-7.85,7.87A100.21,100.21,0,0,0,476.58,182s-9.83,1.86-15.6,3.27Z" style="fill:#FFC727"></path><path d="M459.05,157.44a20.61,20.61,0,0,1,2.16,1.8l.57.58c-.9-1.53-1.78-3.07-2.62-4.63a.1.1,0,1,1,.18-.09c2.5,4,5,8,7.51,11.89s5.14,7.73,7.74,11.57c1.48,2.18,2.9,4.41,4.39,6.58.06.08-.08.17-.14.09-1.43-1.84-2.91-3.64-4.28-5.53s-2.64-3.73-3.91-5.63q-3.91-5.83-7.48-11.88l-.71-1.2c-.2-.19-.41-.36-.61-.53-.35-.3-.69-.61-1-.92a22,22,0,0,1-1.83-2S459,157.4,459.05,157.44Z" style="fill:#263238"></path><path d="M476.88,174.44c-2.8-.36-4.07,2.48-4.07,2.48s-1.25-3.49-4.12-3.49c-1.48,0-2.77,2.37-2.77,2.37a4.29,4.29,0,0,0-3.8-2.31c-2,.13-3,2.48-3,2.48s-2.3-1.82-4.33-1c-4.12,1.62-4.84,19.11,1.5,22.07,3,1.38,2.89-2.9,2.89-2.9s1.57,6.14,5.17,6.38,3.19-5.32,3.19-5.32,1.57,5.93,5.33,5.8,2.55-5.62,2.55-5.62,2.48,4,5.33,3.24c4.72-1.25-.62-9.52.45-13.33H491S483.84,175.36,476.88,174.44Z" style="fill:#ad6359"></path><path d="M454.26,179.49c-3.94.65-7.59-4.79-11.44-4.71-5.22.1-1.9,8.92,5.29,10.47l6.13,0Z" style="fill:#ad6359"></path><path d="M458.89,176.32c0-.06-.08-.08-.09,0a30.39,30.39,0,0,0,.33,18.06c.07.18.4.15.36-.06A62.29,62.29,0,0,1,458.89,176.32Z" style="fill:#263238"></path><path d="M465.89,175.72a.07.07,0,0,0-.13,0,28.49,28.49,0,0,0,1.59,19.67c.11.21.42.3.31,0C465.92,191.15,465.17,181.33,465.89,175.72Z" style="fill:#263238"></path><path d="M475.77,195.74c-2.74-6-3.27-12.36-2.88-18.92,0-.09-.11-.09-.14,0-1.06,3.16-.88,7.37-.45,10.64a17.42,17.42,0,0,0,3.26,8.4C475.63,195.94,475.83,195.87,475.77,195.74Z" style="fill:#263238"></path><path d="M452.18,179.32a13.9,13.9,0,0,0-.78,5.9c0,.09.15.11.16,0,.12-1,.41-4.06.78-5.88C452.36,179.28,452.22,179.24,452.18,179.32Z" style="fill:#263238"></path></g><g id="freepik--character-1--inject-108"><g style="clip-path:url(#freepik--clip-path--inject-108)"><path d="M243.12,156.91c-1.42,21.64-2.52,43.93-.61,65.55,1.48,16.85,8.41,30.78,25.86,35.1,16.18,4,39.3,3.94,53.14-6.67,6.44-4.95,8.74-12,8.4-19.94-.47-11-8.58-71.5-11-90.35-1.45-11.49-2.86-23.13-6.34-34.25-7.31-23.33-18.81-23.26-20.4-23.74-1.37-.9-10.16-4.93-22.77-1.06a24.49,24.49,0,0,0-15.06,13.14C245.11,113.25,244.47,136.65,243.12,156.91Z" style="fill:#263238"></path><path d="M295.72,85.87c13.77,6.61,16.91,21.75,20.12,35.33,4.47,18.9,8.61,37.88,11.83,57,1.55,9.21,2.89,18.46,4,27.73,1,8.88,2.65,18.36,2,27.32-1.14,14.8-14.77,21.4-27.92,23.37a.5.5,0,0,1-.18-1c7.49-1.4,15.15-3.4,20.77-8.89,7.22-7,6.49-16.34,5.74-25.59-1.27-15.76-3.44-31.43-6.17-47s-6-31.07-9.54-46.49c-3.36-14.68-5.71-34-20.66-41.59C295.5,86,295.58,85.8,295.72,85.87Z" style="fill:#263238"></path><path d="M247.8,107.57c2.75-11.29,8.75-22.26,20.7-25.42,0,0,0,0,0,0-15.46,4.75-19.39,21.54-21.59,35.59q-3.46,22.15-5.29,44.54c-1.18,14.34-2.06,28.79-1.93,43.19.14,15.53,2.8,30.11,11.83,43a.26.26,0,0,1-.39.33c-8.92-10.45-11.77-24.74-12.35-38.1-.77-17.6.56-35.47,2.12-53C242.39,141.09,243.85,123.84,247.8,107.57Z" style="fill:#263238"></path><path d="M378.52,235.59l-8.27,57.32s-43.19.75-60-9.12c-20.38-12-38.76-86.31-40.9-98.35-3.52-19.77.71-30.45,10.38-25.68,3.76,1.82,8.35,6,13.61,12.92,5.51,7.22,36.27,53.06,46.95,62.7C346.29,240.77,378.52,235.59,378.52,235.59Z" style="fill:#ebebeb"></path><path d="M360,288.75c1-8.51,6.21-43.18,7.85-50.59.11-.52.46-.57.41,0-2.29,25.56-6.54,42.34-7.92,50.63C360.33,289,360,289,360,288.75Z" style="fill:#263238"></path><path d="M352.09,292.44c-13.87-.82-32.19-3-41.82-8.65-20.38-12-38.76-86.31-40.9-98.35-3.52-19.77.71-30.45,10.38-25.68a9.83,9.83,0,0,1,.9.48Z" style="fill:#263238"></path><path d="M299.59,281.1,297,238.19s11.54-12.77,9-24.3c-1.29-5.84-21.21-50.24-23.16-52.06-7.85-7.31-21.09-4.4-26.52-.29C226.22,184.29,205,233.11,194.82,281.1Z" style="fill:#FFC727"></path><path d="M299.59,281.1,297,238.19s11.54-12.77,9-24.3c-1.29-5.84-21.21-50.24-23.16-52.06-7.85-7.31-21.09-4.4-26.52-.29C226.22,184.29,205,233.11,194.82,281.1Z" style="fill:#FFC727"></path><path d="M297,238.2l2.56,42.91H194.83c10.17-48,31.39-96.82,61.49-119.57.39-.29.82-.57,1.28-.85l.78-.44c.3-.17.62-.32,1-.48l.5-.22,29.86,72.83-6.81-70.52c1.65,1.76,14,28.9,20,43.51a.34.34,0,0,1,.06.12l.93,2.33c.11.28.22.56.33.82.16.43.32.85.47,1.23a39,39,0,0,1,1.35,4C308.57,225.42,297,238.2,297,238.2Z" style="fill:#ebebeb"></path><path d="M258.38,160.25c-2.55,7.1-5.21,14.16-7.81,21.24l-.44-.67,15.31.37,1,0-.41.94-5.17,11.92-.1-.84,14.94,19.89,7.47,9.95,7.4,10-1.73.5,1.7-21.27c.54-7.1,1.2-14.18,1.81-21.27l.13.44-7.2-10.06-.38-.55.61-.23,4.69-1.8-.23.55c-2.37-5.83-4.77-11.65-7.08-17.51,2.66,5.71,5.24,11.45,7.85,17.18l.17.39-.4.17-4.62,2,.22-.78,7.44,9.89.14.19,0,.25c-.45,7.1-.86,14.2-1.4,21.3l-1.52,21.29-.18,2.55-1.54-2-7.45-10-7.39-10-14.77-20-.3-.4.21-.44,5.46-11.8.6,1-15.29-.74-.71,0,.27-.63C252.57,174.17,255.41,167.19,258.38,160.25Z" style="fill:#dbdbdb"></path><path d="M282.41,158.65s.31,15.7-2.55,15.88c-8.8.56-18.22-11.81-18.7-13.74-.12-.49.95-12.65,1.8-22.09.55-6.08,1-11,1-11L286,141.18l-3.37,16.3Z" style="fill:#eb9481"></path><path d="M286,141.18l-3.37,16.3A33.38,33.38,0,0,1,263,138.7c.55-6.08,1-11,1-11l2.78,1.58Z" style="fill:#263238"></path><path d="M309.89,115.77c3.83,29-13.08,34.53-19.33,35.35-5.67.74-25.07,2.55-31.87-25.86S264.14,85.92,277,83.53,306.06,86.81,309.89,115.77Z" style="fill:#eb9481"></path><path d="M304,112.07a16.9,16.9,0,0,1-2-.29,3.26,3.26,0,0,1-2-.69,1,1,0,0,1-.07-1.27,2.56,2.56,0,0,1,2.49-.75,3.74,3.74,0,0,1,2.46,1.19A1.1,1.1,0,0,1,304,112.07Z" style="fill:#263238"></path><path d="M284.37,113.94a18.76,18.76,0,0,0,1.95-.54,3.29,3.29,0,0,0,1.88-.92,1.05,1.05,0,0,0-.08-1.27,2.6,2.6,0,0,0-2.58-.45,3.74,3.74,0,0,0-2.28,1.49A1.1,1.1,0,0,0,284.37,113.94Z" style="fill:#263238"></path><path d="M289.66,120.67c0-.08-.15.11-.14.19.24,2,.17,4.28-1.57,5.09-.05,0,0,.12,0,.11C290.14,125.56,290.2,122.5,289.66,120.67Z" style="fill:#263238"></path><path d="M287.72,118.75c-3.21,0-2.92,6.44,0,6.42S290.4,118.72,287.72,118.75Z" style="fill:#263238"></path><path d="M286.47,119.15c-.54.38-1.06,1-1.73,1.15s-1.4-.53-1.94-1.16c-.06-.06-.11,0-.11.08,0,1.23.57,2.47,1.89,2.6s2-1,2.28-2.27C286.9,119.32,286.69,119,286.47,119.15Z" style="fill:#263238"></path><path d="M300.57,119.58c0-.08.16.09.16.17,0,2,.36,4.27,2.19,4.86a.06.06,0,0,1,0,.11C300.7,124.49,300.26,121.47,300.57,119.58Z" style="fill:#263238"></path><path d="M302.27,117.43c3.18-.36,3.68,6,.73,6.38S299.59,117.74,302.27,117.43Z" style="fill:#263238"></path><path d="M303.63,117.75c.54.3,1.08.88,1.69.87s1.17-.74,1.57-1.44c0-.07.09,0,.1.07.13,1.22-.18,2.52-1.34,2.85s-1.92-.69-2.31-1.89C303.27,118,303.42,117.63,303.63,117.75Z" style="fill:#263238"></path><path d="M289.84,136.25c.48.47,1,1.11,1.68,1.17a5.12,5.12,0,0,0,2.13-.5c.07,0,.13,0,.09.1a2.66,2.66,0,0,1-2.52,1.08,2.11,2.11,0,0,1-1.57-1.76C289.62,136.23,289.77,136.19,289.84,136.25Z" style="fill:#263238"></path><path d="M297.73,128.6s.58,2.94.66,4.34c0,.13-.33.21-.8.27h0a6.67,6.67,0,0,1-6.61-2.11c-.1-.13.07-.29.2-.21a10,10,0,0,0,6.17,1.39c.08-.39-1.16-5-.94-5a12.28,12.28,0,0,1,3.22.53c-1-6.16-3-12.11-4-18.26a.19.19,0,0,1,.36-.11c2.55,6.08,3.89,13.15,5.12,19.49C301.24,129.69,298.3,128.8,297.73,128.6Z" style="fill:#263238"></path><path d="M296,132.89a6.68,6.68,0,0,1-2.65,2.11,3,3,0,0,1-1.82.14c-1.33-.33-1.38-1.54-1.15-2.58A6.91,6.91,0,0,1,291,131,8.64,8.64,0,0,0,296,132.89Z" style="fill:#263238"></path><path d="M293.37,135a3,3,0,0,1-1.82.14c-1.33-.33-1.38-1.54-1.15-2.58A3.12,3.12,0,0,1,293.37,135Z" style="fill:#ff99ba"></path><path d="M260.3,123.49c6.76-.17,6.33-10.82,6.33-10.82s7.64-1,7.77-13.35c0,0,4,7.34,14.38,8.5,2.21.25-5.35-5.2-5.35-5.2s9.1,7.69,25.38,4.09c1.16-.26-1.91-17.46-15-22.91s-24.53-1.7-32.2,6.69c0,0-9.28,4.66-10,13.62S257.67,123.55,260.3,123.49Z" style="fill:#263238"></path><path d="M285.38,131.21a9.12,9.12,0,1,1,8.91-11.31h0a9.13,9.13,0,0,1-8.91,11.31Zm.11-17a7.64,7.64,0,0,0-1.95.23,7.9,7.9,0,1,0,1.95-.23Z" style="fill:#FFC727"></path><path d="M306.16,128.79c-3.49,0-6.63-3.61-7.15-8.34a10.82,10.82,0,0,1,1.21-6.55,5.68,5.68,0,0,1,9.67-1.07A10.84,10.84,0,0,1,312.5,119c.56,5-2,9.4-5.74,9.81Q306.46,128.79,306.16,128.79Zm-.81-17a3.44,3.44,0,0,0-.46,0,4.84,4.84,0,0,0-3.61,2.65,9.65,9.65,0,0,0-1.06,5.81c.48,4.33,3.34,7.58,6.41,7.24s5.14-4.14,4.66-8.47a9.61,9.61,0,0,0-2.31-5.43A5,5,0,0,0,305.35,111.82Z" style="fill:#FFC727"></path><path d="M294.1,121l-.88-.84c1.24-1.31,4.25-3.22,6.73-1.09l-.8.92C296.94,118.07,294.21,120.86,294.1,121Z" style="fill:#FFC727"></path><path d="M254,127.79l-1.13-.44c.2-.53,2.06-5.21,4.72-5.94,2.49-.69,18.9-1,19.59-1l0,1.22c-4.7.08-17.36.4-19.28.93C256.13,123.07,254.47,126.51,254,127.79Z" style="fill:#FFC727"></path><path d="M263.59,126.88s-6.78-8.82-10.81-6.37,1.35,15.45,6.28,17a4.94,4.94,0,0,0,6.5-3Z" style="fill:#eb9481"></path><path d="M254.41,124.2a.07.07,0,0,0,0,.13c3.47,1.23,5.4,4.3,6.8,7.51-1.07-1.21-2.48-1.84-4.11-.56a.11.11,0,0,0,.1.18,3,3,0,0,1,3.39.91,14.88,14.88,0,0,1,1.72,2.63c.17.3.72.11.58-.23l0-.08C262.73,130.35,259.09,124.43,254.41,124.2Z" style="fill:#263238"></path><path d="M261.74,136.14a1,1,0,1,1-1-1A1,1,0,0,1,261.74,136.14Z" style="fill:#fff"></path><path d="M258.85,134.42a.65.65,0,0,1-1.3,0,.65.65,0,0,1,1.3,0Z" style="fill:#fff"></path><path d="M280.77,198.1s-6.85-9-.32-13.2,11.85,5.85,11.85,5.85Z" style="fill:#455a64"></path><path d="M334.94,257.57h0l.95,11.05.34,3.64-3.2-1.81-9.62-5.53h0l-42.87-67.2,11.54-7.36,42.87,67.21Z" style="fill:#455a64"></path><polygon points="335.9 268.63 336.23 272.28 333.03 270.46 335.9 268.63" style="fill:#37474f"></polygon><rect x="278.93" y="193.44" width="15.97" height="3.17" transform="translate(-59.86 184.95) rotate(-32.54)" style="fill:#263238"></rect><rect x="280.81" y="196.39" width="15.97" height="3.17" transform="translate(-61.15 186.44) rotate(-32.54)" style="fill:#263238"></rect><polygon points="282.92 203.61 287.26 200.83 300.38 226.67 298.72 227.6 282.92 203.61" style="fill:#263238"></polygon><path d="M237.51,177.92C204,213.44,165.68,273.73,181.23,287.1c14.19,12.22,67.21,2,100.65-10.27,6.37-2.34-18.06-58.74-24.57-55.55a185.4,185.4,0,0,1-21.2,9c-1.83.45,7.57-21.08,19.11-47.19C268.1,154,256.7,157.61,237.51,177.92Z" style="fill:#eb9481"></path><path d="M338,218.81c-.1,6.5-16.09,4.88-16.09,4.88a12,12,0,0,1,4.73,6.63c1.11,4.81-6,8.66-6,8.66a14.8,14.8,0,0,1,3.89,7.79c.59,4.71-6,9.61-6,9.61a13,13,0,0,1-.91,9c-4,7.31-16.76,7.2-24.7,8.69a169.59,169.59,0,0,0-26.1,7.71l-13.46-58.64s34.71-19.63,44.28-19C305.81,204.72,338.18,208.89,338,218.81Z" style="fill:#eb9481"></path><path d="M321.8,223.51c-8.44-2.65-17.48-3.27-26.22-3.78-.2,0-.21.3,0,.3,8.7.41,17.5,3.14,26.16,3.89A.21.21,0,0,0,321.8,223.51Z" style="fill:#263238"></path><path d="M320.49,238.32a22.75,22.75,0,0,0-6-.47c-2.14,0-4.27,0-6.41.06q-6.4.17-12.8.65c-.19,0-.22.3,0,.3,4.26-.1,8.52-.14,12.78-.06q3.19.06,6.39.17a27,27,0,0,0,6-.07A.3.3,0,0,0,320.49,238.32Z" style="fill:#263238"></path><path d="M318.45,256.37c-1.66-.53-3.72-.2-5.43-.12q-2.92.13-5.84.23c-3.9.14-7.79.27-11.68.27a.16.16,0,0,0,0,.31c4,0,7.92.09,11.87.08,1.95,0,3.89,0,5.83-.06,1.66,0,3.72.13,5.28-.51A.11.11,0,0,0,318.45,256.37Z" style="fill:#263238"></path><path d="M254,162.31c-24,13.77-87.37,97.36-77,121.25s87.21.43,87.21.43l-4.66-64.12s-20.34,10.59-21,9.56,12-29.84,17.08-41.56S266.77,155,254,162.31Z" style="fill:#ebebeb"></path><path d="M254.7,280.06c-1.13-8.49-4.51-43.38-4.73-51,0-.53.32-.67.4-.12,4,25.35,4,42.65,4.67,51C255.05,280.21,254.73,280.28,254.7,280.06Z" style="fill:#263238"></path><path d="M259.08,219.91a46,46,0,0,0-6.52,2.75c-1.91.88-3.82,1.76-5.71,2.67-4.12,2-8.19,4-12.25,6.14s-8.09,4.23-12.09,6.43-7.86,4.62-11.85,6.83c-.18.1,0,.37.17.27,4.06-2.14,8.26-4,12.36-6l12.07-6c4-2,8.06-3.95,12.07-6,2-1,3.93-2,5.89-3a51,51,0,0,0,6.23-3.34A.45.45,0,0,0,259.08,219.91Z" style="fill:#263238"></path><path d="M253,201.34c-1.27,1.53-2.53,3.07-3.73,4.66-.22.29-.42.6-.64.9l1-2.48a84.41,84.41,0,0,0,3.45-8.77c0-.14-.16-.2-.23-.09a90.36,90.36,0,0,0-4.29,8.86c-1.34,2.9-2.71,5.8-4,8.72s-2.62,5.85-3.85,8.81a64.11,64.11,0,0,0-3.33,8.84c0,.18.2.25.3.11a65.56,65.56,0,0,0,4.4-8.79c1.33-2.92,2.57-5.87,3.85-8.8.54-1.23,1.05-2.47,1.57-3.71l.64-.83c.6-.76,1.16-1.55,1.71-2.34,1.13-1.65,2.18-3.33,3.22-5A.06.06,0,0,0,253,201.34Z" style="fill:#263238"></path><path d="M274.87,212l-1.71.83-13.74-18.62-.3-.4.21-.44,5-10.89-14.27-.69-.71,0,.27-.63c2.91-7,5.75-13.95,8.72-20.89-2.47,6.88-5,13.73-7.57,20.59l14.63.35,1,0-.41.94-5,11.47Z" style="fill:#dbdbdb"></path><path d="M250.13,180.82l.68,0-.24.65Z" style="fill:#dbdbdb"></path><polygon points="260.76 193.23 261.05 193.62 260.86 194.07 260.76 193.23" style="fill:#dbdbdb"></polygon><polygon points="264.79 181.59 265.39 182.55 264.37 182.5 264.79 181.59" style="fill:#dbdbdb"></polygon><polygon points="367.79 293.38 300.62 298.25 325.73 209.82 392.89 204.95 367.79 293.38" style="fill:#fff"></polygon><polygon points="372.38 293.05 305.22 297.92 330.33 209.49 397.49 204.61 372.38 293.05" style="fill:#455a64"></polygon><path d="M337.47,209a5.93,5.93,0,0,1-2.63,3.71c-.61.39-.85-.43-.24-.8a4.48,4.48,0,0,0,1.79-2.36,2.81,2.81,0,0,0,.12-.48,3.17,3.17,0,0,0,0-1.65,1,1,0,0,0-.41-.56.14.14,0,0,1-.05,0s-.07,0-.08,0h-.13a.79.79,0,0,0-.47.07,2,2,0,0,0-.74.55,4.2,4.2,0,0,0-.6,1c-.1.16-.17.33-.26.51l0,.12a.45.45,0,0,0-.07.18.56.56,0,0,0,0,.12l-.95.07a6.84,6.84,0,0,1,.79-1.73,3.72,3.72,0,0,1,2.46-1.83,1.48,1.48,0,0,1,1.6,1.27A4,4,0,0,1,337.47,209Z" style="fill:#FFC727"></path><path d="M342.72,208.6a6,6,0,0,1-2.62,3.71c-.62.39-.85-.43-.24-.8a4.48,4.48,0,0,0,1.79-2.36c0-.15.09-.33.12-.49a3.13,3.13,0,0,0,0-1.64,1,1,0,0,0-.42-.57.08.08,0,0,1,0,0l-.09,0h-.13a.75.75,0,0,0-.46.07,1.91,1.91,0,0,0-.74.55,3.88,3.88,0,0,0-.6.95,3.06,3.06,0,0,0-.26.51l0,.12a1.34,1.34,0,0,0-.07.18s0,.08,0,.11l-.95.07a6.94,6.94,0,0,1,.79-1.72,3.61,3.61,0,0,1,2.46-1.83,1.48,1.48,0,0,1,1.6,1.27A3.89,3.89,0,0,1,342.72,208.6Z" style="fill:#FFC727"></path><path d="M348,208.21a6,6,0,0,1-2.63,3.72c-.61.39-.84-.44-.23-.81a4.46,4.46,0,0,0,1.79-2.35c0-.16.09-.33.12-.49a3.24,3.24,0,0,0,0-1.64,1.06,1.06,0,0,0-.42-.57l0,0-.08,0h-.13a.79.79,0,0,0-.47.07,1.79,1.79,0,0,0-.73.55,4.43,4.43,0,0,0-.61.94c-.1.16-.17.34-.26.52l0,.12a.67.67,0,0,0-.07.18s0,.08,0,.11l-1,.07a7.75,7.75,0,0,1,.79-1.72,3.66,3.66,0,0,1,2.46-1.83,1.49,1.49,0,0,1,1.61,1.26A4,4,0,0,1,348,208.21Z" style="fill:#FFC727"></path><path d="M353.24,207.83a6,6,0,0,1-2.63,3.72c-.61.39-.85-.44-.24-.81a4.46,4.46,0,0,0,1.79-2.35,2.92,2.92,0,0,0,.12-.49,3,3,0,0,0,0-1.64,1,1,0,0,0-.41-.57l-.05,0s-.07,0-.08,0a.42.42,0,0,1-.13,0,.89.89,0,0,0-.47.08,1.82,1.82,0,0,0-.74.55,4.14,4.14,0,0,0-.6.94c-.1.16-.17.34-.26.52l0,.12a.47.47,0,0,0-.07.17.56.56,0,0,0,0,.12l-.95.07a6.78,6.78,0,0,1,.79-1.72,3.66,3.66,0,0,1,2.46-1.83,1.48,1.48,0,0,1,1.6,1.26A4,4,0,0,1,353.24,207.83Z" style="fill:#FFC727"></path><path d="M358.49,207.45a6,6,0,0,1-2.62,3.72c-.62.39-.85-.44-.24-.81a4.46,4.46,0,0,0,1.79-2.35c0-.16.09-.33.12-.49a3.17,3.17,0,0,0,0-1.65,1,1,0,0,0-.42-.56l0,0s-.07,0-.09,0a.42.42,0,0,1-.13,0,.84.84,0,0,0-.46.08,1.82,1.82,0,0,0-.74.55,3.65,3.65,0,0,0-.6.94,3.16,3.16,0,0,0-.26.52l0,.12a1.22,1.22,0,0,0-.07.17s0,.08,0,.12l-.95.07a6.78,6.78,0,0,1,.79-1.72,3.61,3.61,0,0,1,2.46-1.83,1.48,1.48,0,0,1,1.6,1.26A3.89,3.89,0,0,1,358.49,207.45Z" style="fill:#FFC727"></path><path d="M363.75,207.07a6,6,0,0,1-2.62,3.72c-.62.39-.85-.44-.24-.81a4.46,4.46,0,0,0,1.79-2.35c0-.16.09-.34.12-.49a3.28,3.28,0,0,0,0-1.65,1.08,1.08,0,0,0-.42-.56l-.05,0s-.07,0-.08,0h-.13a.79.79,0,0,0-.47.07,1.91,1.91,0,0,0-.73.56,4,4,0,0,0-.61.94c-.1.16-.17.34-.26.52l0,.11a.67.67,0,0,0-.07.18s0,.08,0,.12l-1,.07a7.82,7.82,0,0,1,.79-1.73,3.67,3.67,0,0,1,2.46-1.82,1.48,1.48,0,0,1,1.61,1.26A4,4,0,0,1,363.75,207.07Z" style="fill:#FFC727"></path><path d="M369,206.69a6,6,0,0,1-2.63,3.72c-.61.39-.85-.44-.24-.81a4.46,4.46,0,0,0,1.79-2.35,3.17,3.17,0,0,0,.12-.49,3.06,3.06,0,0,0,0-1.65,1.06,1.06,0,0,0-.41-.56.14.14,0,0,1-.05,0s-.07,0-.08,0h-.13a.79.79,0,0,0-.47.07,2,2,0,0,0-.74.55,4.2,4.2,0,0,0-.6.95c-.1.16-.17.34-.26.52l0,.11a.45.45,0,0,0-.07.18.56.56,0,0,0,0,.12l-.95.07a6.84,6.84,0,0,1,.79-1.73,3.67,3.67,0,0,1,2.46-1.82,1.47,1.47,0,0,1,1.6,1.26A4,4,0,0,1,369,206.69Z" style="fill:#FFC727"></path><path d="M374.26,206.31a6,6,0,0,1-2.62,3.71c-.62.39-.85-.43-.24-.8a4.48,4.48,0,0,0,1.79-2.36c0-.15.09-.33.12-.48a3.17,3.17,0,0,0,0-1.65,1,1,0,0,0-.42-.56.14.14,0,0,1,0,0s-.07,0-.09,0h-.13a.75.75,0,0,0-.46.07,2,2,0,0,0-.74.55,3.88,3.88,0,0,0-.6.95,4.89,4.89,0,0,0-.26.51l0,.12a1.34,1.34,0,0,0-.07.18s0,.08,0,.12l-1,.07a6.84,6.84,0,0,1,.79-1.73,3.7,3.7,0,0,1,2.46-1.83,1.48,1.48,0,0,1,1.6,1.27A3.89,3.89,0,0,1,374.26,206.31Z" style="fill:#FFC727"></path><path d="M379.52,205.93a6,6,0,0,1-2.62,3.71c-.62.39-.85-.43-.24-.8a4.48,4.48,0,0,0,1.79-2.36c0-.15.09-.33.12-.48a3.27,3.27,0,0,0,0-1.65,1.1,1.1,0,0,0-.42-.57l-.05,0s-.07,0-.08,0h-.13a.79.79,0,0,0-.47.07,2,2,0,0,0-.73.55,4.25,4.25,0,0,0-.61.95c-.1.16-.17.33-.26.51l0,.12a.67.67,0,0,0-.07.18s0,.08,0,.12l-1,.06a7.75,7.75,0,0,1,.79-1.72,3.69,3.69,0,0,1,2.46-1.83,1.49,1.49,0,0,1,1.61,1.27A4,4,0,0,1,379.52,205.93Z" style="fill:#FFC727"></path><path d="M384.78,205.55a6,6,0,0,1-2.63,3.71c-.61.39-.84-.43-.24-.8a4.48,4.48,0,0,0,1.79-2.36,2.7,2.7,0,0,0,.12-.49,3,3,0,0,0,0-1.64,1,1,0,0,0-.41-.57s0,0-.05,0l-.08,0h-.13a.79.79,0,0,0-.47.07,1.82,1.82,0,0,0-.74.55,4.38,4.38,0,0,0-.6.94c-.1.17-.17.34-.26.52l0,.12a.45.45,0,0,0-.07.18s0,.08,0,.11l-.95.07a6.94,6.94,0,0,1,.79-1.72,3.66,3.66,0,0,1,2.46-1.83,1.48,1.48,0,0,1,1.6,1.27A4,4,0,0,1,384.78,205.55Z" style="fill:#FFC727"></path><path d="M390,205.16a6,6,0,0,1-2.62,3.72c-.62.39-.85-.44-.24-.81a4.46,4.46,0,0,0,1.79-2.35c0-.16.09-.33.12-.49a3.13,3.13,0,0,0,0-1.64,1,1,0,0,0-.42-.57.08.08,0,0,1,0,0s-.07,0-.09,0a.42.42,0,0,1-.13,0,.84.84,0,0,0-.46.08,1.82,1.82,0,0,0-.74.55,4,4,0,0,0-.6.94,4.2,4.2,0,0,0-.26.52l0,.12a1.34,1.34,0,0,0-.07.18s0,.08,0,.11l-.95.07a6.78,6.78,0,0,1,.79-1.72,3.64,3.64,0,0,1,2.46-1.83,1.48,1.48,0,0,1,1.6,1.26A3.89,3.89,0,0,1,390,205.16Z" style="fill:#FFC727"></path><path d="M395.29,204.78a6,6,0,0,1-2.62,3.72c-.62.39-.85-.44-.24-.81a4.46,4.46,0,0,0,1.79-2.35c0-.16.09-.33.12-.49a3.28,3.28,0,0,0,0-1.65,1.08,1.08,0,0,0-.42-.56l0,0s-.07,0-.08,0a.42.42,0,0,1-.13,0,.89.89,0,0,0-.47.08,1.79,1.79,0,0,0-.73.55,4,4,0,0,0-.61.94c-.1.16-.17.34-.26.52l0,.12a.77.77,0,0,0-.07.17s0,.08,0,.12l-1,.07a7.55,7.55,0,0,1,.79-1.72,3.66,3.66,0,0,1,2.46-1.83,1.48,1.48,0,0,1,1.61,1.26A4,4,0,0,1,395.29,204.78Z" style="fill:#FFC727"></path><path d="M394.19,224.5c3.55,7.27,12.4,16.25,13.18,22.21a6.91,6.91,0,0,1-3.75,7.34s6,2.9,5.82,8.43c-.09,2.84-4.72,5.2-4.72,5.2s4.7,2.53,4.24,7.44c-.37,3.91-4.95,5.68-4.95,5.68s3.37,4.54,1.72,8.4c-3.35,7.83-37.06,8.22-42.41-4.13-2.5-5.76,5.74-5.41,5.74-5.41s-11.72-3.37-12-10.32,10.42-5.84,10.42-5.84-11.34-3.36-10.88-10.59c.48-7.53,11-4.6,11-4.6s-7.55-5-5.93-10.45c2.67-9,17,2.12,24.38.27L390,225.87Z" style="fill:#eb9481"></path><path d="M401.07,235c-2.77-7.18,6.06-16.18,4.4-23.43-2.24-9.8-13.19,0-15.48,14.26l.17,11.41Z" style="fill:#eb9481"></path><path d="M403.33,281.19a.09.09,0,0,1,0,.17c-11.06,2.83-24.07,2.55-34.75-1.67-.35-.14-.28-.77.14-.69C380.58,281.25,391.27,282.3,403.33,281.19Z" style="fill:#263238"></path><path d="M404.88,267.74c.13,0,.16.21,0,.24-11.41,2.86-26.06,2.14-37.8-4.17-.4-.22-.54-.82-.06-.6C375.16,266.81,394,268.8,404.88,267.74Z" style="fill:#263238"></path><path d="M366.88,247.58c11.49,5.62,23.62,7,36.28,6.61.17,0,.16.22,0,.27-6.14,1.87-14.24,1.28-20.5.28a33.7,33.7,0,0,1-16-6.76C366.5,247.84,366.63,247.46,366.88,247.58Z" style="fill:#263238"></path><path d="M338.94,138.63h-7v-7.58h-7.58v-7h7.58v-7.58h7V124h7.58v7h-7.58Zm-6-1h5v-7.58h7.58v-5h-7.58v-7.58h-5V125h-7.58v5h7.58Z" style="fill:#FFC727"></path><path d="M198.05,206.67h-7v-7.58h-7.58v-7H191v-7.59h7v7.59h7.59v7h-7.59Zm-6-1h5v-7.58h7.59v-5h-7.59v-7.59h-5v7.59h-7.58v5H192Z" style="fill:#FFC727"></path></g></g><g id="freepik--Clipboard--inject-108"><polygon points="622.41 447.68 508.61 447.68 508.61 447.68 508.61 297.76 508.61 297.76 622.41 297.76 622.41 447.68" style="fill:#455a64"></polygon><rect x="519.4" y="307.37" width="92.22" height="130.69" style="fill:#fff"></rect><rect x="519.4" y="307.37" width="34.55" height="130.69" style="fill:#ebebeb"></rect><path d="M542.07,333.82a9,9,0,0,1-2.67,1.11,9.26,9.26,0,0,1-11.18-6.78,9.25,9.25,0,1,1,13.85,5.67Z" style="fill:#a6a6a6"></path><path d="M540,324.89a2.82,2.82,0,1,1-2.82-2.81A2.82,2.82,0,0,1,540,324.89Z" style="fill:#fff"></path><path d="M542.07,332.66v1.16a9,9,0,0,1-2.67,1.11,9.14,9.14,0,0,1-7.06-1.12v-1.15a4.87,4.87,0,1,1,9.73,0Z" style="fill:#fff"></path><rect x="560.05" y="318.42" width="24.89" height="1.72" style="fill:#ebebeb"></rect><rect x="560.05" y="323.18" width="43.01" height="1.72" style="fill:#ebebeb"></rect><rect x="560.05" y="327.93" width="33.42" height="1.72" style="fill:#ebebeb"></rect><rect x="560.05" y="337.44" width="19.29" height="1.72" style="fill:#ebebeb"></rect><rect x="560.05" y="342.2" width="33.42" height="1.72" style="fill:#ebebeb"></rect><rect x="560.05" y="346.96" width="43.01" height="1.72" style="fill:#ebebeb"></rect><rect x="560.05" y="351.71" width="24.89" height="1.72" style="fill:#ebebeb"></rect><rect x="560.05" y="361.23" width="43.01" height="1.72" style="fill:#ebebeb"></rect><rect x="560.05" y="365.98" width="31.2" height="1.72" style="fill:#ebebeb"></rect><rect x="560.05" y="370.74" width="23.17" height="1.72" style="fill:#ebebeb"></rect><rect x="560.05" y="375.5" width="38.74" height="1.72" style="fill:#ebebeb"></rect><rect x="560.05" y="385.01" width="31.2" height="1.72" style="fill:#ebebeb"></rect><rect x="560.05" y="389.77" width="43.01" height="1.72" style="fill:#ebebeb"></rect><rect x="560.05" y="399.28" width="38.74" height="1.72" style="fill:#ebebeb"></rect><rect x="560.05" y="404.04" width="22.95" height="1.72" style="fill:#ebebeb"></rect><rect x="560.05" y="408.79" width="43.01" height="1.72" style="fill:#ebebeb"></rect><rect x="560.05" y="418.31" width="31.2" height="1.72" style="fill:#ebebeb"></rect><rect x="560.05" y="423.06" width="43.01" height="1.72" style="fill:#ebebeb"></rect><rect x="560.05" y="427.82" width="38.74" height="1.72" style="fill:#ebebeb"></rect><rect x="527.96" y="342.2" width="11.42" height="1.72" style="fill:#a6a6a6"></rect><rect x="527.96" y="346.96" width="19.01" height="1.72" style="fill:#a6a6a6"></rect><rect x="527.96" y="351.71" width="15.89" height="1.72" style="fill:#a6a6a6"></rect><rect x="527.96" y="361.23" width="19.01" height="1.72" style="fill:#a6a6a6"></rect><rect x="527.96" y="365.98" width="20.2" height="1.72" style="fill:#a6a6a6"></rect><rect x="527.96" y="370.74" width="14.17" height="1.72" style="fill:#a6a6a6"></rect><rect x="527.96" y="375.5" width="16.74" height="1.72" style="fill:#a6a6a6"></rect><rect x="536.67" y="289.05" width="57.68" height="20.44" style="fill:#a6a6a6"></rect><polygon points="586.03 296.98 544.99 296.98 544.99 296.98 544.99 281.12 544.99 281.12 586.03 281.12 586.03 296.98 586.03 296.98" style="fill:#a6a6a6"></polygon></g><g id="freepik--Pills--inject-108"><rect x="114.69" y="340.93" width="66.8" height="100.2" style="fill:#FFC727"></rect><rect x="106.63" y="314.03" width="82.93" height="26.9" style="fill:#455a64"></rect><rect x="125.86" y="369.77" width="44.47" height="44.47" style="fill:#fff"></rect><polygon points="114.69 340.93 114.69 348.73 152.3 362.96 152.3 441.13 170.33 441.13 170.33 340.93 114.69 340.93" style="opacity:0.1"></polygon><path d="M94,438.84v0a8.41,8.41,0,0,1,8.42-8.39h16.66a8.41,8.41,0,0,1,8.41,8.39v0a8.43,8.43,0,0,1-8.41,8.41H102.43A8.43,8.43,0,0,1,94,438.84Z" style="fill:#455a64"></path><path d="M94,438.84v0a8.41,8.41,0,0,1,8.42-8.39h8.34v16.83h-8.34A8.43,8.43,0,0,1,94,438.84Z" style="fill:#FFC727"></path><path d="M208.3,438.83v0a8.41,8.41,0,0,1-8.42,8.39H183.22a8.4,8.4,0,0,1-8.41-8.39v0a8.42,8.42,0,0,1,8.41-8.41h16.66A8.43,8.43,0,0,1,208.3,438.83Z" style="fill:#455a64"></path><path d="M208.3,438.83v0a8.41,8.41,0,0,1-8.42,8.39h-8.34V430.42h8.34A8.43,8.43,0,0,1,208.3,438.83Z" style="fill:#FFC727"></path><path d="M227.2,442.26l0,0a8.4,8.4,0,0,1-11.88,0l-11.78-11.78a8.4,8.4,0,0,1,0-11.88l0,0a8.43,8.43,0,0,1,11.9,0l11.78,11.78A8.43,8.43,0,0,1,227.2,442.26Z" style="fill:#455a64"></path><path d="M227.2,442.26l0,0a8.4,8.4,0,0,1-11.88,0l-5.9-5.9,11.9-11.9,5.9,5.9A8.43,8.43,0,0,1,227.2,442.26Z" style="fill:#FFC727"></path><path d="M151,455.66v0a8.41,8.41,0,0,1,8.42-8.39h16.66a8.4,8.4,0,0,1,8.41,8.39v0a8.42,8.42,0,0,1-8.41,8.42H159.42A8.43,8.43,0,0,1,151,455.66Z" style="fill:#455a64"></path><path d="M151,455.66v0a8.41,8.41,0,0,1,8.42-8.39h8.34v16.83h-8.34A8.43,8.43,0,0,1,151,455.66Z" style="fill:#FFC727"></path></g></svg>